0
SECTION
2
HEADER
9
$INSUNITS
70
4
0
ENDSEC
0
SECTION
2
TABLES
0
TABLE
2
LTYPE
0
LTYPE
72
65
70
64
2
CONTINUOUS
3
______
73
0
40
0
0
ENDTAB
0
TABLE
2
LAYER
0
ENDTAB
0
ENDSEC
0
SECTION
2
ENTITIES
0
LINE
8
0
10
140.725
20
-159.275
11
159.275
21
-159.275
0
LINE
8
0
10
159.275
20
-159.275
11
159.275
21
-140.725
0
LINE
8
0
10
159.275
20
-140.725
11
140.725
21
-140.725
0
LINE
8
0
10
140.725
20
-140.725
11
140.725
21
-159.275
0
LINE
8
0
10
140.725
20
-139.225
11
159.275
21
-139.225
0
LINE
8
0
10
159.275
20
-139.225
11
159.275
21
-120.675
0
LINE
8
0
10
159.275
20
-120.675
11
140.725
21
-120.675
0
LINE
8
0
10
140.725
20
-120.675
11
140.725
21
-139.225
0
LINE
8
0
10
140.725
20
-119.175
11
159.275
21
-119.175
0
LINE
8
0
10
159.275
20
-119.175
11
159.275
21
-100.625
0
LINE
8
0
10
159.275
20
-100.625
11
140.725
21
-100.625
0
LINE
8
0
10
140.725
20
-100.625
11
140.725
21
-119.175
0
LINE
8
0
10
140.725
20
-99.125
11
159.275
21
-99.125
0
LINE
8
0
10
159.275
20
-99.125
11
159.275
21
-80.575
0
LINE
8
0
10
159.275
20
-80.575
11
140.725
21
-80.575
0
LINE
8
0
10
140.725
20
-80.575
11
140.725
21
-99.125
0
LINE
8
0
10
140.725
20
-79.075
11
159.275
21
-79.075
0
LINE
8
0
10
159.275
20
-79.075
11
159.275
21
-60.525
0
LINE
8
0
10
159.275
20
-60.525
11
140.725
21
-60.525
0
LINE
8
0
10
140.725
20
-60.525
11
140.725
21
-79.075
0
LINE
8
0
10
160.3022951
20
-158.7768729
11
178.8268729
21
-159.7477049
0
LINE
8
0
10
178.8268729
20
-159.7477049
11
179.7977049
21
-141.2231271
0
LINE
8
0
10
179.7977049
20
-141.2231271
11
161.2731271
21
-140.2522951
0
LINE
8
0
10
161.2731271
20
-140.2522951
11
160.3022951
21
-158.7768729
0
LINE
8
0
10
161.351631
20
-138.7543507
11
179.8762088
21
-139.7251827
0
LINE
8
0
10
179.8762088
20
-139.7251827
11
180.8470408
21
-121.2006049
0
LINE
8
0
10
180.8470408
20
-121.2006049
11
162.322463
21
-120.2297729
0
LINE
8
0
10
162.322463
20
-120.2297729
11
161.351631
21
-138.7543507
0
LINE
8
0
10
162.4009669
20
-118.7318285
11
180.9255447
21
-119.7026605
0
LINE
8
0
10
180.9255447
20
-119.7026605
11
181.8963767
21
-101.1780827
0
LINE
8
0
10
181.8963767
20
-101.1780827
11
163.3717989
21
-100.2072507
0
LINE
8
0
10
163.3717989
20
-100.2072507
11
162.4009669
21
-118.7318285
0
LINE
8
0
10
163.4503028
20
-98.7093063
11
181.9748806
21
-99.6801383
0
LINE
8
0
10
181.9748806
20
-99.6801383
11
182.9457126
21
-81.1555605
0
LINE
8
0
10
182.9457126
20
-81.1555605
11
164.4211348
21
-80.1847285
0
LINE
8
0
10
164.4211348
20
-80.1847285
11
163.4503028
21
-98.7093063
0
LINE
8
0
10
164.4996387
20
-78.6867841
11
183.0242165
21
-79.6576161
0
LINE
8
0
10
183.0242165
20
-79.6576161
11
183.9950485
21
-61.1330383
0
LINE
8
0
10
183.9950485
20
-61.1330383
11
165.4704707
21
-60.1622063
0
LINE
8
0
10
165.4704707
20
-60.1622063
11
164.4996387
21
-78.6867841
0
LINE
8
0
10
180.0358379
20
-156.3081364
11
198.4842191
21
-158.2471394
0
LINE
8
0
10
198.4842191
20
-158.2471394
11
200.4232221
21
-139.7987582
0
LINE
8
0
10
200.4232221
20
-139.7987582
11
181.9748409
21
-137.8597552
0
LINE
8
0
10
181.9748409
20
-137.8597552
11
180.0358379
21
-156.3081364
0
LINE
8
0
10
182.1316336
20
-136.3679724
11
200.5800148
21
-138.3069754
0
LINE
8
0
10
200.5800148
20
-138.3069754
11
202.5190178
21
-119.8585942
0
LINE
8
0
10
202.5190178
20
-119.8585942
11
184.0706366
21
-117.9195912
0
LINE
8
0
10
184.0706366
20
-117.9195912
11
182.1316336
21
-136.3679724
0
LINE
8
0
10
184.2274293
20
-116.4278084
11
202.6758105
21
-118.3668114
0
LINE
8
0
10
202.6758105
20
-118.3668114
11
204.6148135
21
-99.9184302
0
LINE
8
0
10
204.6148135
20
-99.9184302
11
186.1664323
21
-97.9794272
0
LINE
8
0
10
186.1664323
20
-97.9794272
11
184.2274293
21
-116.4278084
0
LINE
8
0
10
186.323225
20
-96.4876444
11
204.7716062
21
-98.4266474
0
LINE
8
0
10
204.7716062
20
-98.4266474
11
206.7106092
21
-79.9782662
0
LINE
8
0
10
206.7106092
20
-79.9782662
11
188.262228
21
-78.0392632
0
LINE
8
0
10
188.262228
20
-78.0392632
11
186.323225
21
-96.4876444
0
LINE
8
0
10
188.4190207
20
-76.5474804
11
206.8674019
21
-78.4864834
0
LINE
8
0
10
206.8674019
20
-78.4864834
11
208.8064049
21
-60.0381022
0
LINE
8
0
10
208.8064049
20
-60.0381022
11
190.3580237
21
-58.0990992
0
LINE
8
0
10
190.3580237
20
-58.0990992
11
188.4190207
21
-76.5474804
0
LINE
8
0
10
203.4293036
20
-132.9547433
11
221.6974875
21
-136.175917
0
LINE
8
0
10
221.6974875
20
-136.175917
11
224.9186612
21
-117.9077331
0
LINE
8
0
10
224.9186612
20
-117.9077331
11
206.6504773
21
-114.6865594
0
LINE
8
0
10
206.6504773
20
-114.6865594
11
203.4293036
21
-132.9547433
0
LINE
8
0
10
206.9109496
20
-113.2093479
11
225.1791335
21
-116.4305216
0
LINE
8
0
10
225.1791335
20
-116.4305216
11
228.4003072
21
-98.1623377
0
LINE
8
0
10
228.4003072
20
-98.1623377
11
210.1321233
21
-94.941164
0
LINE
8
0
10
210.1321233
20
-94.941164
11
206.9109496
21
-113.2093479
0
LINE
8
0
10
210.3925956
20
-93.4639525
11
228.6607795
21
-96.6851262
0
LINE
8
0
10
228.6607795
20
-96.6851262
11
231.8819532
21
-78.4169423
0
LINE
8
0
10
231.8819532
20
-78.4169423
11
213.6137693
21
-75.1957686
0
LINE
8
0
10
213.6137693
20
-75.1957686
11
210.3925956
21
-93.4639525
0
LINE
8
0
10
213.8742416
20
-73.7185571
11
232.1424255
21
-76.9397308
0
LINE
8
0
10
232.1424255
20
-76.9397308
11
235.3635992
21
-58.6715469
0
LINE
8
0
10
235.3635992
20
-58.6715469
11
217.0954153
21
-55.4503732
0
LINE
8
0
10
217.0954153
20
-55.4503732
11
213.8742416
21
-73.7185571
0
LINE
8
0
10
222.9560562
20
-140.9970598
11
241.0306209
21
-145.1699019
0
LINE
8
0
10
241.0306209
20
-145.1699019
11
245.203463
21
-127.0953372
0
LINE
8
0
10
245.203463
20
-127.0953372
11
227.1288983
21
-122.9224951
0
LINE
8
0
10
227.1288983
20
-122.9224951
11
222.9560562
21
-140.9970598
0
LINE
8
0
10
227.4663248
20
-121.46094
11
245.5408895
21
-125.6337821
0
LINE
8
0
10
245.5408895
20
-125.6337821
11
249.7137316
21
-107.5592174
0
LINE
8
0
10
249.7137316
20
-107.5592174
11
231.6391669
21
-103.3863753
0
LINE
8
0
10
231.6391669
20
-103.3863753
11
227.4663248
21
-121.46094
0
LINE
8
0
10
231.9765934
20
-101.9248202
11
250.0511581
21
-106.0976623
0
LINE
8
0
10
250.0511581
20
-106.0976623
11
254.2240002
21
-88.0230976
0
LINE
8
0
10
254.2240002
20
-88.0230976
11
236.1494355
21
-83.8502555
0
LINE
8
0
10
236.1494355
20
-83.8502555
11
231.9765934
21
-101.9248202
0
LINE
8
0
10
236.486862
20
-82.3887004
11
254.5614267
21
-86.5615425
0
LINE
8
0
10
254.5614267
20
-86.5615425
11
258.7342688
21
-68.4869778
0
LINE
8
0
10
258.7342688
20
-68.4869778
11
240.6597041
21
-64.3141357
0
LINE
8
0
10
240.6597041
20
-64.3141357
11
236.486862
21
-82.3887004
0
LINE
8
0
10
241.1424695
20
-151.3535488
11
259.2170342
21
-155.5263909
0
LINE
8
0
10
259.2170342
20
-155.5263909
11
263.3898763
21
-137.4518262
0
LINE
8
0
10
263.3898763
20
-137.4518262
11
245.3153116
21
-133.2789841
0
LINE
8
0
10
245.3153116
20
-133.2789841
11
241.1424695
21
-151.3535488
0
LINE
8
0
10
245.6527381
20
-131.817429
11
263.7273028
21
-135.9902711
0
LINE
8
0
10
263.7273028
20
-135.9902711
11
267.9001449
21
-117.9157064
0
LINE
8
0
10
267.9001449
20
-117.9157064
11
249.8255802
21
-113.7428643
0
LINE
8
0
10
249.8255802
20
-113.7428643
11
245.6527381
21
-131.817429
0
LINE
8
0
10
250.1630067
20
-112.2813092
11
268.2375714
21
-116.4541513
0
LINE
8
0
10
268.2375714
20
-116.4541513
11
272.4104135
21
-98.3795866
0
LINE
8
0
10
272.4104135
20
-98.3795866
11
254.3358488
21
-94.2067445
0
LINE
8
0
10
254.3358488
20
-94.2067445
11
250.1630067
21
-112.2813092
0
LINE
8
0
10
254.6732753
20
-92.7451894
11
272.74784
21
-96.9180315
0
LINE
8
0
10
272.74784
20
-96.9180315
11
276.9206821
21
-78.8434668
0
LINE
8
0
10
276.9206821
20
-78.8434668
11
258.8461174
21
-74.6706247
0
LINE
8
0
10
258.8461174
20
-74.6706247
11
254.6732753
21
-92.7451894
0
LINE
8
0
10
233.1101777
20
-170.010486
11
251.0281018
21
-174.8115793
0
LINE
8
0
10
251.0281018
20
-174.8115793
11
255.8291951
21
-156.8936552
0
LINE
8
0
10
255.8291951
20
-156.8936552
11
237.911271
21
-152.0925619
0
LINE
8
0
10
237.911271
20
-152.0925619
11
233.1101777
21
-170.010486
0
LINE
8
0
10
251.4627684
20
-174.9280479
11
269.3806925
21
-179.7291412
0
LINE
8
0
10
269.3806925
20
-179.7291412
11
274.1817858
21
-161.8112171
0
LINE
8
0
10
274.1817858
20
-161.8112171
11
256.2638617
21
-157.0101238
0
LINE
8
0
10
256.2638617
20
-157.0101238
11
251.4627684
21
-174.9280479
0
ENDSEC
0
EOF