0
SECTION
2
HEADER
9
$INSUNITS
70
4
0
ENDSEC
0
SECTION
2
TABLES
0
TABLE
2
LTYPE
0
LTYPE
72
65
70
64
2
CONTINUOUS
3
______
73
0
40
0
0
ENDTAB
0
TABLE
2
LAYER
0
ENDTAB
0
ENDSEC
0
SECTION
2
ENTITIES
0
LINE
8
0
10
140.475
20
-159.525
11
159.525
21
-159.525
0
LINE
8
0
10
159.525
20
-159.525
11
159.525
21
-140.475
0
LINE
8
0
10
159.525
20
-140.475
11
140.475
21
-140.475
0
LINE
8
0
10
140.475
20
-140.475
11
140.475
21
-159.525
0
LINE
8
0
10
140.475
20
-139.475
11
159.525
21
-139.475
0
LINE
8
0
10
159.525
20
-139.475
11
159.525
21
-120.425
0
LINE
8
0
10
159.525
20
-120.425
11
140.475
21
-120.425
0
LINE
8
0
10
140.475
20
-120.425
11
140.475
21
-139.475
0
LINE
8
0
10
140.475
20
-119.425
11
159.525
21
-119.425
0
LINE
8
0
10
159.525
20
-119.425
11
159.525
21
-100.375
0
LINE
8
0
10
159.525
20
-100.375
11
140.475
21
-100.375
0
LINE
8
0
10
140.475
20
-100.375
11
140.475
21
-119.425
0
LINE
8
0
10
140.475
20
-99.375
11
159.525
21
-99.375
0
LINE
8
0
10
159.525
20
-99.375
11
159.525
21
-80.325
0
LINE
8
0
10
159.525
20
-80.325
11
140.475
21
-80.325
0
LINE
8
0
10
140.475
20
-80.325
11
140.475
21
-99.375
0
LINE
8
0
10
140.475
20
-79.325
11
159.525
21
-79.325
0
LINE
8
0
10
159.525
20
-79.325
11
159.525
21
-60.275
0
LINE
8
0
10
159.525
20
-60.275
11
140.475
21
-60.275
0
LINE
8
0
10
140.475
20
-60.275
11
140.475
21
-79.325
0
LINE
8
0
10
160.0395537
20
-159.0134463
11
179.0634463
21
-160.0104463
0
LINE
8
0
10
179.0634463
20
-160.0104463
11
180.0604463
21
-140.9865537
0
LINE
8
0
10
180.0604463
20
-140.9865537
11
161.0365537
21
-139.9895537
0
LINE
8
0
10
161.0365537
20
-139.9895537
11
160.0395537
21
-159.0134463
0
LINE
8
0
10
161.0888896
20
-138.9909241
11
180.1127822
21
-139.9879241
0
LINE
8
0
10
180.1127822
20
-139.9879241
11
181.1097822
21
-120.9640315
0
LINE
8
0
10
181.1097822
20
-120.9640315
11
162.0858896
21
-119.9670315
0
LINE
8
0
10
162.0858896
20
-119.9670315
11
161.0888896
21
-138.9909241
0
LINE
8
0
10
162.1382255
20
-118.9684019
11
181.1621181
21
-119.9654019
0
LINE
8
0
10
181.1621181
20
-119.9654019
11
182.1591181
21
-100.9415093
0
LINE
8
0
10
182.1591181
20
-100.9415093
11
163.1352255
21
-99.9445093
0
LINE
8
0
10
163.1352255
20
-99.9445093
11
162.1382255
21
-118.9684019
0
LINE
8
0
10
163.1875614
20
-98.9458797
11
182.211454
21
-99.9428797
0
LINE
8
0
10
182.211454
20
-99.9428797
11
183.208454
21
-80.9189871
0
LINE
8
0
10
183.208454
20
-80.9189871
11
164.1845614
21
-79.9219871
0
LINE
8
0
10
164.1845614
20
-79.9219871
11
163.1875614
21
-98.9458797
0
LINE
8
0
10
164.2368973
20
-78.9233575
11
183.2607899
21
-79.9203575
0
LINE
8
0
10
183.2607899
20
-79.9203575
11
184.2577899
21
-60.8964649
0
LINE
8
0
10
184.2577899
20
-60.8964649
11
165.2338973
21
-59.8994649
0
LINE
8
0
10
165.2338973
20
-59.8994649
11
164.2368973
21
-78.9233575
0
LINE
8
0
10
179.7610753
20
-156.5306347
11
198.7067174
21
-158.521902
0
LINE
8
0
10
198.7067174
20
-158.521902
11
200.6979847
21
-139.5762599
0
LINE
8
0
10
200.6979847
20
-139.5762599
11
181.7523426
21
-137.5849926
0
LINE
8
0
10
181.7523426
20
-137.5849926
11
179.7610753
21
-156.5306347
0
LINE
8
0
10
181.856871
20
-136.5904707
11
200.8025131
21
-138.581738
0
LINE
8
0
10
200.8025131
20
-138.581738
11
202.7937804
21
-119.6360959
0
LINE
8
0
10
202.7937804
20
-119.6360959
11
183.8481383
21
-117.6448286
0
LINE
8
0
10
183.8481383
20
-117.6448286
11
181.856871
21
-136.5904707
0
LINE
8
0
10
183.9526667
20
-116.6503067
11
202.8983088
21
-118.641574
0
LINE
8
0
10
202.8983088
20
-118.641574
11
204.8895761
21
-99.6959319
0
LINE
8
0
10
204.8895761
20
-99.6959319
11
185.943934
21
-97.7046646
0
LINE
8
0
10
185.943934
20
-97.7046646
11
183.9526667
21
-116.6503067
0
LINE
8
0
10
186.0484624
20
-96.7101427
11
204.9941045
21
-98.70141
0
LINE
8
0
10
204.9941045
20
-98.70141
11
206.9853718
21
-79.7557679
0
LINE
8
0
10
206.9853718
20
-79.7557679
11
188.0397297
21
-77.7645006
0
LINE
8
0
10
188.0397297
20
-77.7645006
11
186.0484624
21
-96.7101427
0
LINE
8
0
10
188.1442581
20
-76.7699787
11
207.0899002
21
-78.761246
0
LINE
8
0
10
207.0899002
20
-78.761246
11
209.0811675
21
-59.8156039
0
LINE
8
0
10
209.0811675
20
-59.8156039
11
190.1355254
21
-57.8243366
0
LINE
8
0
10
190.1355254
20
-57.8243366
11
188.1442581
21
-76.7699787
0
LINE
8
0
10
203.1396897
20
-133.1575332
11
221.9002774
21
-136.4655309
0
LINE
8
0
10
221.9002774
20
-136.4655309
11
225.2082751
21
-117.7049432
0
LINE
8
0
10
225.2082751
20
-117.7049432
11
206.4476874
21
-114.3969455
0
LINE
8
0
10
206.4476874
20
-114.3969455
11
203.1396897
21
-133.1575332
0
LINE
8
0
10
206.6213357
20
-113.4121378
11
225.3819234
21
-116.7201355
0
LINE
8
0
10
225.3819234
20
-116.7201355
11
228.6899211
21
-97.9595478
0
LINE
8
0
10
228.6899211
20
-97.9595478
11
209.9293334
21
-94.6515501
0
LINE
8
0
10
209.9293334
20
-94.6515501
11
206.6213357
21
-113.4121378
0
LINE
8
0
10
210.1029817
20
-93.6667424
11
228.8635694
21
-96.9747401
0
LINE
8
0
10
228.8635694
20
-96.9747401
11
232.1715671
21
-78.2141524
0
LINE
8
0
10
232.1715671
20
-78.2141524
11
213.4109794
21
-74.9061547
0
LINE
8
0
10
213.4109794
20
-74.9061547
11
210.1029817
21
-93.6667424
0
LINE
8
0
10
213.5846277
20
-73.921347
11
232.3452154
21
-77.2293447
0
LINE
8
0
10
232.3452154
20
-77.2293447
11
235.6532131
21
-58.468757
0
LINE
8
0
10
235.6532131
20
-58.468757
11
216.8926254
21
-55.1607593
0
LINE
8
0
10
216.8926254
20
-55.1607593
11
213.5846277
21
-73.921347
0
LINE
8
0
10
222.6562259
20
-141.1844146
11
241.2179757
21
-145.4697322
0
LINE
8
0
10
241.2179757
20
-145.4697322
11
245.5032933
21
-126.9079824
0
LINE
8
0
10
245.5032933
20
-126.9079824
11
226.9415435
21
-122.6226648
0
LINE
8
0
10
226.9415435
20
-122.6226648
11
222.6562259
21
-141.1844146
0
LINE
8
0
10
227.1664945
20
-121.6482948
11
245.7282443
21
-125.9336124
0
LINE
8
0
10
245.7282443
20
-125.9336124
11
250.0135619
21
-107.3718626
0
LINE
8
0
10
250.0135619
20
-107.3718626
11
231.4518121
21
-103.086545
0
LINE
8
0
10
231.4518121
20
-103.086545
11
227.1664945
21
-121.6482948
0
LINE
8
0
10
231.6767631
20
-102.112175
11
250.2385129
21
-106.3974926
0
LINE
8
0
10
250.2385129
20
-106.3974926
11
254.5238305
21
-87.8357428
0
LINE
8
0
10
254.5238305
20
-87.8357428
11
235.9620807
21
-83.5504252
0
LINE
8
0
10
235.9620807
20
-83.5504252
11
231.6767631
21
-102.112175
0
LINE
8
0
10
236.1870317
20
-82.5760552
11
254.7487815
21
-86.8613728
0
LINE
8
0
10
254.7487815
20
-86.8613728
11
259.0340991
21
-68.299623
0
LINE
8
0
10
259.0340991
20
-68.299623
11
240.4723493
21
-64.0143054
0
LINE
8
0
10
240.4723493
20
-64.0143054
11
236.1870317
21
-82.5760552
0
LINE
8
0
10
240.8426392
20
-151.5409036
11
259.404389
21
-155.8262212
0
LINE
8
0
10
259.404389
20
-155.8262212
11
263.6897066
21
-137.2644714
0
LINE
8
0
10
263.6897066
20
-137.2644714
11
245.1279568
21
-132.9791538
0
LINE
8
0
10
245.1279568
20
-132.9791538
11
240.8426392
21
-151.5409036
0
LINE
8
0
10
245.3529078
20
-132.0047838
11
263.9146576
21
-136.2901014
0
LINE
8
0
10
263.9146576
20
-136.2901014
11
268.1999752
21
-117.7283516
0
LINE
8
0
10
268.1999752
20
-117.7283516
11
249.6382254
21
-113.443034
0
LINE
8
0
10
249.6382254
20
-113.443034
11
245.3529078
21
-132.0047838
0
LINE
8
0
10
249.8631764
20
-112.468664
11
268.4249262
21
-116.7539816
0
LINE
8
0
10
268.4249262
20
-116.7539816
11
272.7102438
21
-98.1922318
0
LINE
8
0
10
272.7102438
20
-98.1922318
11
254.148494
21
-93.9069142
0
LINE
8
0
10
254.148494
20
-93.9069142
11
249.8631764
21
-112.468664
0
LINE
8
0
10
254.373445
20
-92.9325442
11
272.9351948
21
-97.2178618
0
LINE
8
0
10
272.9351948
20
-97.2178618
11
277.2205124
21
-78.656112
0
LINE
8
0
10
277.2205124
20
-78.656112
11
258.6587626
21
-74.3707944
0
LINE
8
0
10
258.6587626
20
-74.3707944
11
254.373445
21
-92.9325442
0
LINE
8
0
10
232.8039915
20
-170.1872627
11
269.5574692
21
-180.0353274
0
LINE
8
0
10
237.7344943
20
-151.7863757
11
256.1353813
21
-156.7168785
0
LINE
8
0
10
237.7344943
20
-151.7863757
11
232.8039915
21
-170.1872627
0
LINE
8
0
10
269.5574692
20
-180.0353274
11
274.487972
21
-161.6344404
0
LINE
8
0
10
274.487972
20
-161.6344404
11
256.1353813
21
-156.7168785
0
ENDSEC
0
EOF