0
SECTION
2
HEADER
9
$INSUNITS
70
4
0
ENDSEC
0
SECTION
2
TABLES
0
TABLE
2
LTYPE
0
LTYPE
72
65
70
64
2
CONTINUOUS
3
______
73
0
40
0
0
ENDTAB
0
TABLE
2
LAYER
0
ENDTAB
0
ENDSEC
0
SECTION
2
ENTITIES
0
LINE
8
0
10
57.2421246
20
-128.2106325
11
77.4263815
21
-52.8819603
0
LINE
8
0
10
80.6502401
20
-50.6761914
11
140.8487945
21
-57.2583925
0
LINE
8
0
10
141.3998285
20
-57.371704
11
163.1544694
21
-64.0227652
0
LINE
8
0
10
163.1905446
20
-64.0335475
11
218.5748514
21
-80.2090054
0
LINE
8
0
10
220.6027259
20
-83.965817
11
195.9928902
21
-164.4609624
0
LINE
8
0
10
196.5440114
20
-167.2427652
11
211.9078478
21
-185.938844
0
LINE
8
0
10
212.1341989
20
-189.4332896
11
196.294856
21
-214.781537
0
LINE
8
0
10
192.6145323
20
-215.9683051
11
174.6191146
21
-208.6044183
0
LINE
8
0
10
174.1655362
20
-208.3720366
11
155.2357729
21
-196.5434077
0
LINE
8
0
10
154.5304941
20
-195.9313109
11
128.6315687
21
-165.1665493
0
LINE
8
0
10
127.6245263
20
-164.3891557
11
58.8519079
21
-131.6965306
0
ARC
8
0
10
80.324159
20
-53.6584173
40
3
50
83.7599815
51
165.0000021
0
ARC
8
0
10
140.5227134
20
-60.2406184
40
3
50
73.000001
51
83.7599815
0
ARC
8
0
10
164.0315845
20
-61.1538509
40
3
50
253.000001
51
253.7191074
0
ARC
8
0
10
217.7338115
20
-83.0887019
40
3
50
343.000001
51
73.7191074
0
ARC
8
0
10
198.8618045
20
-165.3380775
40
3
50
163.000001
51
219.4122638
0
ARC
8
0
10
209.5900547
20
-187.8435317
40
3
50
327.9999984
51
39.4122638
0
ARC
8
0
10
193.7507117
20
-213.1917791
40
3
50
247.7451799
51
327.9999984
0
ARC
8
0
10
175.755294
20
-205.8278924
40
3
50
237.9999984
51
247.7451799
0
ARC
8
0
10
156.8255307
20
-193.9992635
40
3
50
220.0919232
51
237.9999984
0
ARC
8
0
10
126.3365321
20
-167.0985967
40
3
50
40.0919232
51
64.5748628
0
ARC
8
0
10
60.1399022
20
-128.9870896
40
3
50
165.0000021
51
244.5748628
0
LINE
8
0
10
59.3511694
20
-129.0329025
11
77.2690935
21
-133.8339958
0
LINE
8
0
10
77.2690935
20
-133.8339958
11
82.0701868
21
-115.9160717
0
LINE
8
0
10
82.0701868
20
-115.9160717
11
64.1522627
21
-111.1149784
0
LINE
8
0
10
64.1522627
20
-111.1149784
11
59.3511694
21
-129.0329025
0
LINE
8
0
10
64.5281974
20
-109.7119712
11
82.4461215
21
-114.5130645
0
LINE
8
0
10
82.4461215
20
-114.5130645
11
87.2472148
21
-96.5951404
0
LINE
8
0
10
87.2472148
20
-96.5951404
11
69.3292907
21
-91.7940471
0
LINE
8
0
10
69.3292907
20
-91.7940471
11
64.5281974
21
-109.7119712
0
LINE
8
0
10
69.7052253
20
-90.3910399
11
87.6231494
21
-95.1921332
0
LINE
8
0
10
87.6231494
20
-95.1921332
11
92.4242427
21
-77.2742091
0
LINE
8
0
10
92.4242427
20
-77.2742091
11
74.5063186
21
-72.4731158
0
LINE
8
0
10
74.5063186
20
-72.4731158
11
69.7052253
21
-90.3910399
0
LINE
8
0
10
74.8822533
20
-71.0701085
11
92.8001774
21
-75.8712018
0
LINE
8
0
10
92.8001774
20
-75.8712018
11
97.6012707
21
-57.9532777
0
LINE
8
0
10
97.6012707
20
-57.9532777
11
79.6833466
21
-53.1521844
0
LINE
8
0
10
79.6833466
20
-53.1521844
11
74.8822533
21
-71.0701085
0
LINE
8
0
10
78.6721008
20
-134.2099305
11
96.5900249
21
-139.0110238
0
LINE
8
0
10
96.5900249
20
-139.0110238
11
101.3911182
21
-121.0930997
0
LINE
8
0
10
101.3911182
20
-121.0930997
11
83.4731941
21
-116.2920064
0
LINE
8
0
10
83.4731941
20
-116.2920064
11
78.6721008
21
-134.2099305
0
LINE
8
0
10
83.8491287
20
-114.8889991
11
101.7670528
21
-119.6900924
0
LINE
8
0
10
101.7670528
20
-119.6900924
11
106.5681461
21
-101.7721683
0
LINE
8
0
10
106.5681461
20
-101.7721683
11
88.650222
21
-96.971075
0
LINE
8
0
10
88.650222
20
-96.971075
11
83.8491287
21
-114.8889991
0
LINE
8
0
10
89.0261567
20
-95.5680678
11
106.9440808
21
-100.3691611
0
LINE
8
0
10
106.9440808
20
-100.3691611
11
111.7451741
21
-82.451237
0
LINE
8
0
10
111.7451741
20
-82.451237
11
93.82725
21
-77.6501437
0
LINE
8
0
10
93.82725
20
-77.6501437
11
89.0261567
21
-95.5680678
0
LINE
8
0
10
94.2031846
20
-76.2471365
11
112.1211087
21
-81.0482298
0
LINE
8
0
10
112.1211087
20
-81.0482298
11
116.922202
21
-63.1303057
0
LINE
8
0
10
116.922202
20
-63.1303057
11
99.0042779
21
-58.3292124
0
LINE
8
0
10
99.0042779
20
-58.3292124
11
94.2031846
21
-76.2471365
0
LINE
8
0
10
99.0651618
20
-134.156893
11
116.8046151
21
-139.5803881
0
LINE
8
0
10
116.8046151
20
-139.5803881
11
122.2281102
21
-121.8409348
0
LINE
8
0
10
122.2281102
20
-121.8409348
11
104.4886569
21
-116.4174397
0
LINE
8
0
10
104.4886569
20
-116.4174397
11
99.0651618
21
-134.156893
0
LINE
8
0
10
104.9133269
20
-115.0284071
11
122.6527802
21
-120.4519022
0
LINE
8
0
10
122.6527802
20
-120.4519022
11
128.0762753
21
-102.7124489
0
LINE
8
0
10
128.0762753
20
-102.7124489
11
110.336822
21
-97.2889538
0
LINE
8
0
10
110.336822
20
-97.2889538
11
104.9133269
21
-115.0284071
0
LINE
8
0
10
110.7614919
20
-95.8999213
11
128.5009452
21
-101.3234164
0
LINE
8
0
10
128.5009452
20
-101.3234164
11
133.9244403
21
-83.5839631
0
LINE
8
0
10
133.9244403
20
-83.5839631
11
116.184987
21
-78.160468
0
LINE
8
0
10
116.184987
20
-78.160468
11
110.7614919
21
-95.8999213
0
LINE
8
0
10
116.6096569
20
-76.7714354
11
134.3491102
21
-82.1949305
0
LINE
8
0
10
134.3491102
20
-82.1949305
11
139.7726053
21
-64.4554772
0
LINE
8
0
10
139.7726053
20
-64.4554772
11
122.033152
21
-59.0319821
0
LINE
8
0
10
122.033152
20
-59.0319821
11
116.6096569
21
-76.7714354
0
LINE
8
0
10
119.6555062
20
-135.2235342
11
137.3949595
21
-140.6470293
0
LINE
8
0
10
137.3949595
20
-140.6470293
11
142.8184546
21
-122.907576
0
LINE
8
0
10
142.8184546
20
-122.907576
11
125.0790013
21
-117.4840809
0
LINE
8
0
10
125.0790013
20
-117.4840809
11
119.6555062
21
-135.2235342
0
LINE
8
0
10
125.5036713
20
-116.0950483
11
143.2431246
21
-121.5185434
0
LINE
8
0
10
143.2431246
20
-121.5185434
11
148.6666197
21
-103.7790901
0
LINE
8
0
10
148.6666197
20
-103.7790901
11
130.9271664
21
-98.355595
0
LINE
8
0
10
130.9271664
20
-98.355595
11
125.5036713
21
-116.0950483
0
LINE
8
0
10
131.3518363
20
-96.9665625
11
149.0912896
21
-102.3900576
0
LINE
8
0
10
149.0912896
20
-102.3900576
11
154.5147847
21
-84.6506043
0
LINE
8
0
10
154.5147847
20
-84.6506043
11
136.7753314
21
-79.2271092
0
LINE
8
0
10
136.7753314
20
-79.2271092
11
131.3518363
21
-96.9665625
0
LINE
8
0
10
137.2000013
20
-77.8380766
11
154.9394546
21
-83.2615717
0
LINE
8
0
10
154.9394546
20
-83.2615717
11
160.3629497
21
-65.5221184
0
LINE
8
0
10
160.3629497
20
-65.5221184
11
142.6234964
21
-60.0986233
0
LINE
8
0
10
142.6234964
20
-60.0986233
11
137.2000013
21
-77.8380766
0
LINE
8
0
10
138.0530629
20
-143.4624612
11
155.7925162
21
-148.8859563
0
LINE
8
0
10
155.7925162
20
-148.8859563
11
161.2160113
21
-131.146503
0
LINE
8
0
10
161.2160113
20
-131.146503
11
143.476558
21
-125.7230079
0
LINE
8
0
10
143.476558
20
-125.7230079
11
138.0530629
21
-143.4624612
0
LINE
8
0
10
143.9012279
20
-124.3339753
11
161.6406812
21
-129.7574704
0
LINE
8
0
10
161.6406812
20
-129.7574704
11
167.0641763
21
-112.0180171
0
LINE
8
0
10
167.0641763
20
-112.0180171
11
149.324723
21
-106.594522
0
LINE
8
0
10
149.324723
20
-106.594522
11
143.9012279
21
-124.3339753
0
LINE
8
0
10
149.7493929
20
-105.2054895
11
167.4888462
21
-110.6289846
0
LINE
8
0
10
167.4888462
20
-110.6289846
11
172.9123413
21
-92.8895313
0
LINE
8
0
10
172.9123413
20
-92.8895313
11
155.172888
21
-87.4660362
0
LINE
8
0
10
155.172888
20
-87.4660362
11
149.7493929
21
-105.2054895
0
LINE
8
0
10
155.597558
20
-86.0770036
11
173.3370113
21
-91.5004987
0
LINE
8
0
10
173.3370113
20
-91.5004987
11
178.7605064
21
-73.7610454
0
LINE
8
0
10
178.7605064
20
-73.7610454
11
161.0210531
21
-68.3375503
0
LINE
8
0
10
161.0210531
20
-68.3375503
11
155.597558
21
-86.0770036
0
LINE
8
0
10
156.4506195
20
-151.701388
11
174.1900728
21
-157.1248831
0
LINE
8
0
10
174.1900728
20
-157.1248831
11
179.6135679
21
-139.3854298
0
LINE
8
0
10
179.6135679
20
-139.3854298
11
161.8741146
21
-133.9619347
0
LINE
8
0
10
161.8741146
20
-133.9619347
11
156.4506195
21
-151.701388
0
LINE
8
0
10
162.2987846
20
-132.5729022
11
180.0382379
21
-137.9963973
0
LINE
8
0
10
180.0382379
20
-137.9963973
11
185.461733
21
-120.256944
0
LINE
8
0
10
185.461733
20
-120.256944
11
167.7222797
21
-114.8334489
0
LINE
8
0
10
167.7222797
20
-114.8334489
11
162.2987846
21
-132.5729022
0
LINE
8
0
10
168.1469496
20
-113.4444163
11
185.8864029
21
-118.8679114
0
LINE
8
0
10
185.8864029
20
-118.8679114
11
191.309898
21
-101.1284581
0
LINE
8
0
10
191.309898
20
-101.1284581
11
173.5704447
21
-95.704963
0
LINE
8
0
10
173.5704447
20
-95.704963
11
168.1469496
21
-113.4444163
0
LINE
8
0
10
173.9951146
20
-94.3159305
11
191.7345679
21
-99.7394256
0
LINE
8
0
10
191.7345679
20
-99.7394256
11
197.158063
21
-81.9999723
0
LINE
8
0
10
197.158063
20
-81.9999723
11
179.4186097
21
-76.5764772
0
LINE
8
0
10
179.4186097
20
-76.5764772
11
173.9951146
21
-94.3159305
0
LINE
8
0
10
131.1414098
20
-163.4253071
11
148.3406703
21
-170.3742594
0
LINE
8
0
10
148.3406703
20
-170.3742594
11
155.2896226
21
-153.1749989
0
LINE
8
0
10
155.2896226
20
-153.1749989
11
138.0903621
21
-146.2260466
0
LINE
8
0
10
138.0903621
20
-146.2260466
11
131.1414098
21
-163.4253071
0
LINE
8
0
10
150.1698065
20
-170.2033577
11
166.6979775
21
-178.6248815
0
LINE
8
0
10
166.6979775
20
-178.6248815
11
175.1195013
21
-162.0967105
0
LINE
8
0
10
175.1195013
20
-162.0967105
11
158.5913303
21
-153.6751867
0
LINE
8
0
10
158.5913303
20
-153.6751867
11
150.1698065
21
-170.2033577
0
LINE
8
0
10
168.5350484
20
-178.61405
11
184.2663406
21
-188.4440524
0
LINE
8
0
10
184.2663406
20
-188.4440524
11
194.096343
21
-172.7127602
0
LINE
8
0
10
194.096343
20
-172.7127602
11
178.3650508
21
-162.8827578
0
LINE
8
0
10
178.3650508
20
-162.8827578
11
168.5350484
21
-178.61405
0
LINE
8
0
10
157.9353384
20
-195.5771321
11
173.6666306
21
-205.4071345
0
LINE
8
0
10
173.6666306
20
-205.4071345
11
183.496633
21
-189.6758423
0
LINE
8
0
10
183.496633
20
-189.6758423
11
167.7653408
21
-179.8458399
0
LINE
8
0
10
167.7653408
20
-179.8458399
11
157.9353384
21
-195.5771321
0
LINE
8
0
10
197.2927252
20
-208.9386826
11
207.1227276
21
-193.2073904
0
LINE
8
0
10
207.1227276
20
-193.2073904
11
191.3914354
21
-183.377388
0
LINE
8
0
10
191.3914354
20
-183.377388
11
181.561433
21
-199.1086802
0
LINE
8
0
10
181.561433
20
-199.1086802
11
197.2927252
21
-208.9386826
0
ENDSEC
0
EOF