0
SECTION
2
HEADER
9
$INSUNITS
70
4
0
ENDSEC
0
SECTION
2
TABLES
0
TABLE
2
LTYPE
0
LTYPE
72
65
70
64
2
CONTINUOUS
3
______
73
0
40
0
0
ENDTAB
0
TABLE
2
LAYER
0
ENDTAB
0
ENDSEC
0
SECTION
2
ENTITIES
0
LINE
8
0
10
59.0449832
20
-129.2096792
11
106.4260599
21
-141.9054005
0
LINE
8
0
10
59.0449832
20
-129.2096792
11
79.5065699
21
-52.8459982
0
LINE
8
0
10
79.5065699
20
-52.8459982
11
110.654416
21
-61.1920385
0
LINE
8
0
10
107.7229682
20
-137.0652729
11
106.4260599
21
-141.9054005
0
LINE
8
0
10
107.7229682
20
-137.0652729
11
126.5336459
21
-142.8162742
0
LINE
8
0
10
127.9955044
20
-138.0347504
11
126.5336459
21
-142.8162742
0
LINE
8
0
10
112.3041212
20
-55.796096
11
131.4326071
21
-61.644261
0
LINE
8
0
10
110.654416
20
-61.1920385
11
112.3041212
21
-55.796096
0
LINE
8
0
10
127.9955044
20
-138.0347504
11
138.4718231
21
-141.2376825
0
LINE
8
0
10
159.9441895
20
-67.7468971
11
160.6751188
21
-65.3561352
0
LINE
8
0
10
132.8944656
20
-56.8627372
11
160.6751188
21
-65.3561352
0
LINE
8
0
10
131.4326071
20
-61.644261
11
132.8944656
21
-56.8627372
0
LINE
8
0
10
137.7408938
20
-143.6284444
11
156.8693796
21
-149.4766094
0
LINE
8
0
10
138.4718231
20
-141.2376825
11
137.7408938
21
-143.6284444
0
LINE
8
0
10
178.3417462
20
-75.9858241
11
179.0726755
21
-73.5950622
0
LINE
8
0
10
159.9441895
20
-67.7468971
11
179.0726755
21
-73.5950622
0
LINE
8
0
10
156.1384504
20
-151.8673712
11
174.356056
21
-157.4370522
0
LINE
8
0
10
174.356056
20
-157.4370522
11
197.4702321
21
-81.8339891
0
LINE
8
0
10
156.8693796
20
-149.4766094
11
156.1384504
21
-151.8673712
0
LINE
8
0
10
178.3417462
20
-75.9858241
11
197.4702321
21
-81.8339891
0
LINE
8
0
10
130.8159622
20
-163.5634514
11
148.4788146
21
-170.699707
0
LINE
8
0
10
148.4788146
20
-170.699707
11
155.6150702
21
-153.0368546
0
LINE
8
0
10
155.6150702
20
-153.0368546
11
137.9522178
21
-145.900599
0
LINE
8
0
10
137.9522178
20
-145.900599
11
130.8159622
21
-163.5634514
0
LINE
8
0
10
149.8335572
20
-170.3126117
11
166.8072315
21
-178.9611308
0
LINE
8
0
10
166.8072315
20
-178.9611308
11
175.4557506
21
-161.9874565
0
LINE
8
0
10
175.4557506
20
-161.9874565
11
158.4820763
21
-153.3389374
0
LINE
8
0
10
158.4820763
20
-153.3389374
11
149.8335572
21
-170.3126117
0
LINE
8
0
10
168.1905566
20
-178.6935822
11
184.3458728
21
-188.7885442
0
LINE
8
0
10
184.3458728
20
-188.7885442
11
194.4408348
21
-172.633228
0
LINE
8
0
10
194.4408348
20
-172.633228
11
178.2855186
21
-162.538266
0
LINE
8
0
10
178.2855186
20
-162.538266
11
168.1905566
21
-178.6935822
0
LINE
8
0
10
157.5908466
20
-195.6566643
11
173.7461628
21
-205.7516263
0
LINE
8
0
10
173.7461628
20
-205.7516263
11
183.8411248
21
-189.5963101
0
LINE
8
0
10
183.8411248
20
-189.5963101
11
167.6858086
21
-179.5013481
0
LINE
8
0
10
167.6858086
20
-179.5013481
11
157.5908466
21
-195.6566643
0
LINE
8
0
10
197.3722574
20
-209.2831744
11
207.4672194
21
-193.1278582
0
LINE
8
0
10
207.4672194
20
-193.1278582
11
191.3119032
21
-183.0328962
0
LINE
8
0
10
191.3119032
20
-183.0328962
11
181.2169412
21
-199.1882124
0
LINE
8
0
10
181.2169412
20
-199.1882124
11
197.3722574
21
-209.2831744
0
ENDSEC
0
EOF