%TF.GenerationSoftware,KiCad,Pcbnew,9.0.4*%
%TF.CreationDate,2025-11-27T19:30:42+01:00*%
%TF.ProjectId,lag_large,6c61675f-6c61-4726-9765-2e6b69636164,v1.0.0*%
%TF.SameCoordinates,Original*%
%TF.FileFunction,Legend,Bot*%
%TF.FilePolarity,Positive*%
%FSLAX46Y46*%
G04 Gerber Fmt 4.6, Leading zero omitted, Abs format (unit mm)*
G04 Created by KiCad (PCBNEW 9.0.4) date 2025-11-27 19:30:42*
%MOMM*%
%LPD*%
G01*
G04 APERTURE LIST*
%ADD10C,0.000000*%
%ADD11C,0.100000*%
%ADD12C,0.150000*%
%ADD13C,0.200000*%
%ADD14C,0.120000*%
G04 APERTURE END LIST*
D10*
G36*
X135133354Y-153076175D02*
G01*
X134089025Y-153076184D01*
X134089029Y-152727719D01*
X135133354Y-152727718D01*
X135133354Y-153076175D01*
G37*
G36*
X131304062Y-146801986D02*
G01*
X131652073Y-146801969D01*
X131652061Y-147499236D01*
X132000214Y-147499223D01*
X131996481Y-148564558D01*
X131996498Y-148901368D01*
X131999303Y-150296657D01*
X131999299Y-152030304D01*
X132348540Y-152030299D01*
X132348539Y-152378779D01*
X132696531Y-152378783D01*
X132698092Y-152398541D01*
X132696538Y-152727082D01*
X131652211Y-152727084D01*
X131650331Y-152748246D01*
X131652061Y-153076186D01*
X130259427Y-153076183D01*
X130259422Y-152727087D01*
X129911264Y-152727095D01*
X129911253Y-153076172D01*
X128170446Y-153076178D01*
X128170462Y-152727081D01*
X128866942Y-152727090D01*
X128866867Y-152379080D01*
X128866867Y-152379078D01*
X129214925Y-152379078D01*
X130606343Y-152379089D01*
X130626884Y-148893438D01*
X129214933Y-148893428D01*
X129214925Y-152379078D01*
X128866867Y-152379078D01*
X128866311Y-148893428D01*
X128170609Y-148893444D01*
X128170609Y-148545104D01*
X129911246Y-148545115D01*
X129914353Y-148195387D01*
X129564503Y-148195401D01*
X129564504Y-147847865D01*
X129564504Y-147847853D01*
X130258807Y-147847853D01*
X130606485Y-147847847D01*
X130606484Y-147499378D01*
X130259418Y-147499385D01*
X130258807Y-147847853D01*
X129564504Y-147847853D01*
X129564491Y-147842729D01*
X128517994Y-147847858D01*
X128518002Y-148196479D01*
X128170454Y-148196476D01*
X128170453Y-147847541D01*
X128518774Y-147847550D01*
X128518768Y-147499090D01*
X128866924Y-147499072D01*
X128866920Y-146801822D01*
X129214941Y-146801825D01*
X129214930Y-146453517D01*
X131304053Y-146453505D01*
X131304062Y-146801986D01*
G37*
G36*
X135830446Y-151681664D02*
G01*
X135830458Y-152030301D01*
X133044548Y-152030297D01*
X133044539Y-151681661D01*
X135830446Y-151681664D01*
G37*
G36*
X127822453Y-152030304D02*
G01*
X124689171Y-152030299D01*
X124689158Y-151681675D01*
X127822467Y-151681672D01*
X127822453Y-152030304D01*
G37*
G36*
X137222631Y-144711461D02*
G01*
X137222626Y-154819163D01*
X97535135Y-154819175D01*
X97535131Y-154121907D01*
X97535131Y-154121905D01*
X123296678Y-154121905D01*
X136526307Y-154121915D01*
X136526315Y-145408403D01*
X123296685Y-145408406D01*
X123296678Y-154121905D01*
X97535131Y-154121905D01*
X97535129Y-153072918D01*
X108588482Y-153072918D01*
X109205426Y-153072903D01*
X109205429Y-150808859D01*
X112460429Y-150808858D01*
X112460432Y-153072920D01*
X113077375Y-153072919D01*
X113077382Y-152466708D01*
X114744867Y-152466708D01*
X114744878Y-153072906D01*
X118365616Y-153072902D01*
X118365622Y-146440897D01*
X117714580Y-146440896D01*
X117714582Y-152466721D01*
X114744867Y-152466708D01*
X113077382Y-152466708D01*
X113077382Y-152466702D01*
X113077370Y-148968141D01*
X113076549Y-148886735D01*
X113073887Y-148809539D01*
X113069170Y-148736225D01*
X113062233Y-148666488D01*
X113052785Y-148599969D01*
X113040654Y-148536321D01*
X113025606Y-148475228D01*
X113007437Y-148416346D01*
X112985928Y-148359340D01*
X112960833Y-148303864D01*
X112931983Y-148249621D01*
X112899111Y-148196218D01*
X112862031Y-148143376D01*
X112820510Y-148090710D01*
X112774344Y-148037910D01*
X112723306Y-147984664D01*
X111227004Y-146441048D01*
X110438860Y-146441054D01*
X108942572Y-147985603D01*
X108891521Y-148038849D01*
X108845350Y-148091637D01*
X108803841Y-148144297D01*
X108766767Y-148197164D01*
X108733900Y-148250546D01*
X108705035Y-148304795D01*
X108679949Y-148360256D01*
X108658436Y-148417290D01*
X108640250Y-148476163D01*
X108625231Y-148537262D01*
X108613089Y-148600902D01*
X108603647Y-148667430D01*
X108596693Y-148737168D01*
X108591982Y-148810471D01*
X108589324Y-148887638D01*
X108588485Y-148969069D01*
X108588482Y-153072918D01*
X97535129Y-153072918D01*
X97535123Y-149459630D01*
X102466169Y-149459630D01*
X102466183Y-151700799D01*
X102467857Y-151776174D01*
X102472785Y-151849993D01*
X102480959Y-151922253D01*
X102492271Y-151992833D01*
X102506672Y-152061748D01*
X102524106Y-152128874D01*
X102544489Y-152194207D01*
X102567751Y-152257667D01*
X102593850Y-152319194D01*
X102622714Y-152378742D01*
X102654274Y-152436261D01*
X102688464Y-152491673D01*
X102725233Y-152544910D01*
X102764510Y-152595954D01*
X102806216Y-152644747D01*
X102850289Y-152691214D01*
X102896699Y-152735292D01*
X102945319Y-152776937D01*
X102996125Y-152816112D01*
X103049057Y-152852717D01*
X103104040Y-152886712D01*
X103161007Y-152918060D01*
X103219895Y-152946689D01*
X103280618Y-152972561D01*
X103343155Y-152995580D01*
X103407419Y-153015710D01*
X103473318Y-153032921D01*
X103540826Y-153047119D01*
X103609876Y-153058240D01*
X103680371Y-153066282D01*
X103752272Y-153071116D01*
X103825523Y-153072770D01*
X105595896Y-153072765D01*
X105669127Y-153070927D01*
X105741008Y-153065499D01*
X105811505Y-153056547D01*
X105880541Y-153044156D01*
X105948038Y-153028399D01*
X106013932Y-153009352D01*
X106078184Y-152987143D01*
X106140696Y-152961802D01*
X106201414Y-152933438D01*
X106260305Y-152902120D01*
X106317258Y-152867917D01*
X106372223Y-152830958D01*
X106425163Y-152791253D01*
X106475971Y-152748962D01*
X106524594Y-152704126D01*
X106570970Y-152656812D01*
X106615056Y-152607128D01*
X106656765Y-152555157D01*
X106696031Y-152500958D01*
X106732795Y-152444633D01*
X106766977Y-152386242D01*
X106798545Y-152325910D01*
X106827392Y-152263665D01*
X106853511Y-152199620D01*
X106876780Y-152133847D01*
X106897175Y-152066451D01*
X106914576Y-151997465D01*
X106928998Y-151927008D01*
X106940307Y-151855172D01*
X106948468Y-151781975D01*
X106953412Y-151707565D01*
X106955070Y-151632020D01*
X106955068Y-148969069D01*
X106955067Y-147858456D01*
X106953413Y-147782939D01*
X106948463Y-147708735D01*
X106940303Y-147635881D01*
X106928976Y-147564444D01*
X106914592Y-147494509D01*
X106897163Y-147426135D01*
X106876788Y-147359421D01*
X106853501Y-147294426D01*
X106827399Y-147231210D01*
X106798538Y-147169862D01*
X106766979Y-147110479D01*
X106732789Y-147053064D01*
X106696024Y-146997765D01*
X106656760Y-146944617D01*
X106615059Y-146893701D01*
X106570975Y-146845080D01*
X106524599Y-146798862D01*
X106475958Y-146755072D01*
X106425152Y-146713815D01*
X106372231Y-146675163D01*
X106317262Y-146639183D01*
X106260301Y-146605918D01*
X106201426Y-146575496D01*
X106140694Y-146547967D01*
X106078175Y-146523393D01*
X106013934Y-146501871D01*
X105948028Y-146483448D01*
X105880531Y-146468214D01*
X105811505Y-146456242D01*
X105741016Y-146447589D01*
X105669117Y-146442343D01*
X105595904Y-146440584D01*
X103825517Y-146440591D01*
X103752284Y-146442223D01*
X103680366Y-146447078D01*
X103609874Y-146455107D01*
X103540832Y-146466238D01*
X103473325Y-146480447D01*
X103407398Y-146497646D01*
X103343164Y-146517806D01*
X103280621Y-146540813D01*
X103219895Y-146566669D01*
X103161000Y-146595312D01*
X103104035Y-146626663D01*
X103049068Y-146660673D01*
X102996131Y-146697280D01*
X102945331Y-146736449D01*
X102896696Y-146778098D01*
X102850295Y-146822204D01*
X102806220Y-146868661D01*
X102764513Y-146917442D01*
X102725241Y-146968491D01*
X102688467Y-147021756D01*
X102654274Y-147077172D01*
X102622716Y-147134679D01*
X102593855Y-147194220D01*
X102567751Y-147255744D01*
X102544458Y-147319206D01*
X102524089Y-147384509D01*
X102506668Y-147451661D01*
X102492271Y-147520559D01*
X102480954Y-147591131D01*
X102472785Y-147663356D01*
X102467839Y-147737178D01*
X102466197Y-147812529D01*
X102466178Y-148064659D01*
X103094340Y-148064669D01*
X103094339Y-147721483D01*
X103095202Y-147687267D01*
X103097779Y-147653253D01*
X103101988Y-147619482D01*
X103107858Y-147586013D01*
X103115281Y-147552928D01*
X103124246Y-147520246D01*
X103134719Y-147488065D01*
X103146669Y-147456445D01*
X103160020Y-147425398D01*
X103174775Y-147395013D01*
X103190855Y-147365374D01*
X103208247Y-147336490D01*
X103226909Y-147308450D01*
X103246787Y-147281316D01*
X103267847Y-147255117D01*
X103290045Y-147229940D01*
X103313365Y-147205831D01*
X103337740Y-147182852D01*
X103363115Y-147161079D01*
X103389500Y-147140526D01*
X103416822Y-147121291D01*
X103445051Y-147103420D01*
X103474154Y-147086990D01*
X103504041Y-147072027D01*
X103534752Y-147058594D01*
X103566199Y-147046774D01*
X103598336Y-147036615D01*
X103631155Y-147028167D01*
X103664594Y-147021493D01*
X103698615Y-147016656D01*
X103733174Y-147013704D01*
X103768239Y-147012700D01*
X105653016Y-147012711D01*
X105688111Y-147013764D01*
X105722699Y-147016908D01*
X105756743Y-147022054D01*
X105790201Y-147029135D01*
X105823022Y-147038103D01*
X105855179Y-147048872D01*
X105886633Y-147061398D01*
X105917336Y-147075566D01*
X105947253Y-147091359D01*
X105976351Y-147108703D01*
X106004576Y-147127514D01*
X106031892Y-147147725D01*
X106058276Y-147169279D01*
X106083653Y-147192087D01*
X106108035Y-147216126D01*
X106131338Y-147241305D01*
X106153521Y-147267544D01*
X106174567Y-147294791D01*
X106194450Y-147322984D01*
X106213081Y-147352032D01*
X106230469Y-147381879D01*
X106246550Y-147412474D01*
X106261279Y-147443738D01*
X106274643Y-147475607D01*
X106286558Y-147508007D01*
X106297048Y-147540880D01*
X106306014Y-147574161D01*
X106313439Y-147607764D01*
X106319268Y-147641649D01*
X106323494Y-147675711D01*
X106326060Y-147709923D01*
X106326931Y-147744213D01*
X106326927Y-151735061D01*
X106326053Y-151769299D01*
X106323495Y-151803420D01*
X106319283Y-151837339D01*
X106313425Y-151871014D01*
X106305999Y-151904377D01*
X106297017Y-151937335D01*
X106286560Y-151969869D01*
X106274631Y-152001901D01*
X106261283Y-152033362D01*
X106246557Y-152064188D01*
X106230472Y-152094317D01*
X106213077Y-152123678D01*
X106194443Y-152152226D01*
X106174582Y-152179908D01*
X106153520Y-152206629D01*
X106131328Y-152232365D01*
X106108029Y-152257008D01*
X106083663Y-152280512D01*
X106058271Y-152302812D01*
X106031904Y-152323877D01*
X106004584Y-152343604D01*
X105976342Y-152361957D01*
X105947274Y-152378851D01*
X105917329Y-152394231D01*
X105886639Y-152408053D01*
X105855184Y-152420226D01*
X105823024Y-152430692D01*
X105790196Y-152439387D01*
X105756748Y-152446269D01*
X105722702Y-152451281D01*
X105688110Y-152454309D01*
X105653014Y-152455336D01*
X103768251Y-152455349D01*
X103733184Y-152454380D01*
X103698617Y-152451523D01*
X103664592Y-152446853D01*
X103631153Y-152440389D01*
X103598345Y-152432210D01*
X103566191Y-152422328D01*
X103534746Y-152410864D01*
X103504062Y-152397838D01*
X103474138Y-152383286D01*
X103445047Y-152367287D01*
X103416819Y-152349903D01*
X103389501Y-152331149D01*
X103363118Y-152311134D01*
X103337729Y-152289853D01*
X103313364Y-152267425D01*
X103290046Y-152243852D01*
X103267860Y-152219207D01*
X103246803Y-152193561D01*
X103226918Y-152166935D01*
X103208248Y-152139402D01*
X103190867Y-152111017D01*
X103174770Y-152081817D01*
X103160035Y-152051890D01*
X103146660Y-152021280D01*
X103134725Y-151990005D01*
X103124243Y-151958166D01*
X103115281Y-151925791D01*
X103107834Y-151892949D01*
X103101997Y-151859686D01*
X103097762Y-151826061D01*
X103095201Y-151792118D01*
X103094336Y-151757937D01*
X103094335Y-150042810D01*
X104453673Y-150042808D01*
X104453688Y-149459642D01*
X102466169Y-149459630D01*
X97535123Y-149459630D01*
X97535120Y-147812528D01*
X97535137Y-144711453D01*
X137222631Y-144711461D01*
G37*
G36*
X128170451Y-148544813D02*
G01*
X127822450Y-148544802D01*
X127822449Y-148196479D01*
X128170454Y-148196476D01*
X128170451Y-148544813D01*
G37*
G36*
X128170609Y-148545104D02*
G01*
X128170462Y-148545109D01*
X128170451Y-148544813D01*
X128170614Y-148544804D01*
X128170609Y-148545104D01*
G37*
G36*
X127126128Y-152727088D02*
G01*
X127126125Y-153076188D01*
X126427483Y-153076196D01*
X126427464Y-152727085D01*
X127126128Y-152727088D01*
G37*
G36*
X125385643Y-152727080D02*
G01*
X123992691Y-152727080D01*
X123992680Y-152378771D01*
X125385637Y-152378759D01*
X125385643Y-152727080D01*
G37*
G36*
X112243313Y-148373292D02*
G01*
X112281529Y-148415331D01*
X112314992Y-148455803D01*
X112343980Y-148495027D01*
X112368834Y-148533317D01*
X112389874Y-148571002D01*
X112407418Y-148608391D01*
X112421793Y-148645829D01*
X112433277Y-148683600D01*
X112442239Y-148722043D01*
X112448983Y-148761467D01*
X112453797Y-148802190D01*
X112457031Y-148844540D01*
X112459000Y-148888848D01*
X112460003Y-148935425D01*
X112460445Y-149036614D01*
X112460432Y-150271915D01*
X109205446Y-150271911D01*
X109205435Y-150271751D01*
X109205437Y-149036623D01*
X109206320Y-148935417D01*
X109207819Y-148888850D01*
X109210396Y-148844540D01*
X109214304Y-148802173D01*
X109219818Y-148761416D01*
X109227211Y-148721987D01*
X109236746Y-148683541D01*
X109248667Y-148645755D01*
X109263285Y-148608325D01*
X109280849Y-148570939D01*
X109301626Y-148533250D01*
X109325876Y-148494968D01*
X109353885Y-148455764D01*
X109385907Y-148415305D01*
X109422230Y-148373292D01*
X110735804Y-146989833D01*
X110907165Y-146989831D01*
X112243313Y-148373292D01*
G37*
D11*
X190372188Y-100907989D02*
X190272188Y-100955608D01*
X190272188Y-100955608D02*
X190105522Y-100955608D01*
X190105522Y-100955608D02*
X190038855Y-100907989D01*
X190038855Y-100907989D02*
X190005522Y-100860369D01*
X190005522Y-100860369D02*
X189972188Y-100765131D01*
X189972188Y-100765131D02*
X189972188Y-100669893D01*
X189972188Y-100669893D02*
X190005522Y-100574655D01*
X190005522Y-100574655D02*
X190038855Y-100527036D01*
X190038855Y-100527036D02*
X190105522Y-100479417D01*
X190105522Y-100479417D02*
X190238855Y-100431798D01*
X190238855Y-100431798D02*
X190305522Y-100384179D01*
X190305522Y-100384179D02*
X190338855Y-100336560D01*
X190338855Y-100336560D02*
X190372188Y-100241322D01*
X190372188Y-100241322D02*
X190372188Y-100146084D01*
X190372188Y-100146084D02*
X190338855Y-100050846D01*
X190338855Y-100050846D02*
X190305522Y-100003227D01*
X190305522Y-100003227D02*
X190238855Y-99955608D01*
X190238855Y-99955608D02*
X190072188Y-99955608D01*
X190072188Y-99955608D02*
X189972188Y-100003227D01*
X189272188Y-100860369D02*
X189305521Y-100907989D01*
X189305521Y-100907989D02*
X189405521Y-100955608D01*
X189405521Y-100955608D02*
X189472188Y-100955608D01*
X189472188Y-100955608D02*
X189572188Y-100907989D01*
X189572188Y-100907989D02*
X189638855Y-100812750D01*
X189638855Y-100812750D02*
X189672188Y-100717512D01*
X189672188Y-100717512D02*
X189705521Y-100527036D01*
X189705521Y-100527036D02*
X189705521Y-100384179D01*
X189705521Y-100384179D02*
X189672188Y-100193703D01*
X189672188Y-100193703D02*
X189638855Y-100098465D01*
X189638855Y-100098465D02*
X189572188Y-100003227D01*
X189572188Y-100003227D02*
X189472188Y-99955608D01*
X189472188Y-99955608D02*
X189405521Y-99955608D01*
X189405521Y-99955608D02*
X189305521Y-100003227D01*
X189305521Y-100003227D02*
X189272188Y-100050846D01*
X188638855Y-100955608D02*
X188972188Y-100955608D01*
X188972188Y-100955608D02*
X188972188Y-99955608D01*
X184992187Y-100003226D02*
X185058854Y-99955607D01*
X185058854Y-99955607D02*
X185158854Y-99955607D01*
X185158854Y-99955607D02*
X185258854Y-100003226D01*
X185258854Y-100003226D02*
X185325521Y-100098464D01*
X185325521Y-100098464D02*
X185358854Y-100193702D01*
X185358854Y-100193702D02*
X185392187Y-100384178D01*
X185392187Y-100384178D02*
X185392187Y-100527035D01*
X185392187Y-100527035D02*
X185358854Y-100717511D01*
X185358854Y-100717511D02*
X185325521Y-100812749D01*
X185325521Y-100812749D02*
X185258854Y-100907988D01*
X185258854Y-100907988D02*
X185158854Y-100955607D01*
X185158854Y-100955607D02*
X185092187Y-100955607D01*
X185092187Y-100955607D02*
X184992187Y-100907988D01*
X184992187Y-100907988D02*
X184958854Y-100860368D01*
X184958854Y-100860368D02*
X184958854Y-100527035D01*
X184958854Y-100527035D02*
X185092187Y-100527035D01*
X184658854Y-100955607D02*
X184658854Y-99955607D01*
X184658854Y-99955607D02*
X184258854Y-100955607D01*
X184258854Y-100955607D02*
X184258854Y-99955607D01*
X183925521Y-100955607D02*
X183925521Y-99955607D01*
X183925521Y-99955607D02*
X183758854Y-99955607D01*
X183758854Y-99955607D02*
X183658854Y-100003226D01*
X183658854Y-100003226D02*
X183592188Y-100098464D01*
X183592188Y-100098464D02*
X183558854Y-100193702D01*
X183558854Y-100193702D02*
X183525521Y-100384178D01*
X183525521Y-100384178D02*
X183525521Y-100527035D01*
X183525521Y-100527035D02*
X183558854Y-100717511D01*
X183558854Y-100717511D02*
X183592188Y-100812749D01*
X183592188Y-100812749D02*
X183658854Y-100907988D01*
X183658854Y-100907988D02*
X183758854Y-100955607D01*
X183758854Y-100955607D02*
X183925521Y-100955607D01*
X187932188Y-99955608D02*
X187698855Y-100955608D01*
X187698855Y-100955608D02*
X187465521Y-99955608D01*
X186832188Y-100860369D02*
X186865521Y-100907989D01*
X186865521Y-100907989D02*
X186965521Y-100955608D01*
X186965521Y-100955608D02*
X187032188Y-100955608D01*
X187032188Y-100955608D02*
X187132188Y-100907989D01*
X187132188Y-100907989D02*
X187198855Y-100812750D01*
X187198855Y-100812750D02*
X187232188Y-100717512D01*
X187232188Y-100717512D02*
X187265521Y-100527036D01*
X187265521Y-100527036D02*
X187265521Y-100384179D01*
X187265521Y-100384179D02*
X187232188Y-100193703D01*
X187232188Y-100193703D02*
X187198855Y-100098465D01*
X187198855Y-100098465D02*
X187132188Y-100003227D01*
X187132188Y-100003227D02*
X187032188Y-99955608D01*
X187032188Y-99955608D02*
X186965521Y-99955608D01*
X186965521Y-99955608D02*
X186865521Y-100003227D01*
X186865521Y-100003227D02*
X186832188Y-100050846D01*
X186132188Y-100860369D02*
X186165521Y-100907989D01*
X186165521Y-100907989D02*
X186265521Y-100955608D01*
X186265521Y-100955608D02*
X186332188Y-100955608D01*
X186332188Y-100955608D02*
X186432188Y-100907989D01*
X186432188Y-100907989D02*
X186498855Y-100812750D01*
X186498855Y-100812750D02*
X186532188Y-100717512D01*
X186532188Y-100717512D02*
X186565521Y-100527036D01*
X186565521Y-100527036D02*
X186565521Y-100384179D01*
X186565521Y-100384179D02*
X186532188Y-100193703D01*
X186532188Y-100193703D02*
X186498855Y-100098465D01*
X186498855Y-100098465D02*
X186432188Y-100003227D01*
X186432188Y-100003227D02*
X186332188Y-99955608D01*
X186332188Y-99955608D02*
X186265521Y-99955608D01*
X186265521Y-99955608D02*
X186165521Y-100003227D01*
X186165521Y-100003227D02*
X186132188Y-100050846D01*
X192928858Y-100907989D02*
X192828858Y-100955608D01*
X192828858Y-100955608D02*
X192662192Y-100955608D01*
X192662192Y-100955608D02*
X192595525Y-100907989D01*
X192595525Y-100907989D02*
X192562192Y-100860369D01*
X192562192Y-100860369D02*
X192528858Y-100765131D01*
X192528858Y-100765131D02*
X192528858Y-100669893D01*
X192528858Y-100669893D02*
X192562192Y-100574655D01*
X192562192Y-100574655D02*
X192595525Y-100527036D01*
X192595525Y-100527036D02*
X192662192Y-100479417D01*
X192662192Y-100479417D02*
X192795525Y-100431798D01*
X192795525Y-100431798D02*
X192862192Y-100384179D01*
X192862192Y-100384179D02*
X192895525Y-100336560D01*
X192895525Y-100336560D02*
X192928858Y-100241322D01*
X192928858Y-100241322D02*
X192928858Y-100146084D01*
X192928858Y-100146084D02*
X192895525Y-100050846D01*
X192895525Y-100050846D02*
X192862192Y-100003227D01*
X192862192Y-100003227D02*
X192795525Y-99955608D01*
X192795525Y-99955608D02*
X192628858Y-99955608D01*
X192628858Y-99955608D02*
X192528858Y-100003227D01*
X192228858Y-100955608D02*
X192228858Y-99955608D01*
X192228858Y-99955608D02*
X192062191Y-99955608D01*
X192062191Y-99955608D02*
X191962191Y-100003227D01*
X191962191Y-100003227D02*
X191895525Y-100098465D01*
X191895525Y-100098465D02*
X191862191Y-100193703D01*
X191862191Y-100193703D02*
X191828858Y-100384179D01*
X191828858Y-100384179D02*
X191828858Y-100527036D01*
X191828858Y-100527036D02*
X191862191Y-100717512D01*
X191862191Y-100717512D02*
X191895525Y-100812750D01*
X191895525Y-100812750D02*
X191962191Y-100907989D01*
X191962191Y-100907989D02*
X192062191Y-100955608D01*
X192062191Y-100955608D02*
X192228858Y-100955608D01*
X191562191Y-100669893D02*
X191228858Y-100669893D01*
X191628858Y-100955608D02*
X191395525Y-99955608D01*
X191395525Y-99955608D02*
X191162191Y-100955608D01*
D12*
X186966959Y-73913020D02*
X186966959Y-72913020D01*
X186966959Y-72913020D02*
X186586007Y-72913020D01*
X186586007Y-72913020D02*
X186490769Y-72960639D01*
X186490769Y-72960639D02*
X186443150Y-73008258D01*
X186443150Y-73008258D02*
X186395531Y-73103496D01*
X186395531Y-73103496D02*
X186395531Y-73246353D01*
X186395531Y-73246353D02*
X186443150Y-73341591D01*
X186443150Y-73341591D02*
X186490769Y-73389210D01*
X186490769Y-73389210D02*
X186586007Y-73436829D01*
X186586007Y-73436829D02*
X186966959Y-73436829D01*
X186014578Y-73008258D02*
X185966959Y-72960639D01*
X185966959Y-72960639D02*
X185871721Y-72913020D01*
X185871721Y-72913020D02*
X185633626Y-72913020D01*
X185633626Y-72913020D02*
X185538388Y-72960639D01*
X185538388Y-72960639D02*
X185490769Y-73008258D01*
X185490769Y-73008258D02*
X185443150Y-73103496D01*
X185443150Y-73103496D02*
X185443150Y-73198734D01*
X185443150Y-73198734D02*
X185490769Y-73341591D01*
X185490769Y-73341591D02*
X186062197Y-73913020D01*
X186062197Y-73913020D02*
X185443150Y-73913020D01*
X190933152Y-78993021D02*
X190933152Y-77993021D01*
X190933152Y-77993021D02*
X190552200Y-77993021D01*
X190552200Y-77993021D02*
X190456962Y-78040640D01*
X190456962Y-78040640D02*
X190409343Y-78088259D01*
X190409343Y-78088259D02*
X190361724Y-78183497D01*
X190361724Y-78183497D02*
X190361724Y-78326354D01*
X190361724Y-78326354D02*
X190409343Y-78421592D01*
X190409343Y-78421592D02*
X190456962Y-78469211D01*
X190456962Y-78469211D02*
X190552200Y-78516830D01*
X190552200Y-78516830D02*
X190933152Y-78516830D01*
X189409343Y-78993021D02*
X189980771Y-78993021D01*
X189695057Y-78993021D02*
X189695057Y-77993021D01*
X189695057Y-77993021D02*
X189790295Y-78135878D01*
X189790295Y-78135878D02*
X189885533Y-78231116D01*
X189885533Y-78231116D02*
X189980771Y-78278735D01*
X188933152Y-78993021D02*
X188742676Y-78993021D01*
X188742676Y-78993021D02*
X188647438Y-78945402D01*
X188647438Y-78945402D02*
X188599819Y-78897782D01*
X188599819Y-78897782D02*
X188504581Y-78754925D01*
X188504581Y-78754925D02*
X188456962Y-78564449D01*
X188456962Y-78564449D02*
X188456962Y-78183497D01*
X188456962Y-78183497D02*
X188504581Y-78088259D01*
X188504581Y-78088259D02*
X188552200Y-78040640D01*
X188552200Y-78040640D02*
X188647438Y-77993021D01*
X188647438Y-77993021D02*
X188837914Y-77993021D01*
X188837914Y-77993021D02*
X188933152Y-78040640D01*
X188933152Y-78040640D02*
X188980771Y-78088259D01*
X188980771Y-78088259D02*
X189028390Y-78183497D01*
X189028390Y-78183497D02*
X189028390Y-78421592D01*
X189028390Y-78421592D02*
X188980771Y-78516830D01*
X188980771Y-78516830D02*
X188933152Y-78564449D01*
X188933152Y-78564449D02*
X188837914Y-78612068D01*
X188837914Y-78612068D02*
X188647438Y-78612068D01*
X188647438Y-78612068D02*
X188552200Y-78564449D01*
X188552200Y-78564449D02*
X188504581Y-78516830D01*
X188504581Y-78516830D02*
X188456962Y-78421592D01*
X186966957Y-81533020D02*
X186966957Y-80533020D01*
X186966957Y-80533020D02*
X186586005Y-80533020D01*
X186586005Y-80533020D02*
X186490767Y-80580639D01*
X186490767Y-80580639D02*
X186443148Y-80628258D01*
X186443148Y-80628258D02*
X186395529Y-80723496D01*
X186395529Y-80723496D02*
X186395529Y-80866353D01*
X186395529Y-80866353D02*
X186443148Y-80961591D01*
X186443148Y-80961591D02*
X186490767Y-81009210D01*
X186490767Y-81009210D02*
X186586005Y-81056829D01*
X186586005Y-81056829D02*
X186966957Y-81056829D01*
X185490767Y-80533020D02*
X185966957Y-80533020D01*
X185966957Y-80533020D02*
X186014576Y-81009210D01*
X186014576Y-81009210D02*
X185966957Y-80961591D01*
X185966957Y-80961591D02*
X185871719Y-80913972D01*
X185871719Y-80913972D02*
X185633624Y-80913972D01*
X185633624Y-80913972D02*
X185538386Y-80961591D01*
X185538386Y-80961591D02*
X185490767Y-81009210D01*
X185490767Y-81009210D02*
X185443148Y-81104448D01*
X185443148Y-81104448D02*
X185443148Y-81342543D01*
X185443148Y-81342543D02*
X185490767Y-81437781D01*
X185490767Y-81437781D02*
X185538386Y-81485401D01*
X185538386Y-81485401D02*
X185633624Y-81533020D01*
X185633624Y-81533020D02*
X185871719Y-81533020D01*
X185871719Y-81533020D02*
X185966957Y-81485401D01*
X185966957Y-81485401D02*
X186014576Y-81437781D01*
X190409345Y-63753018D02*
X190742678Y-63276827D01*
X190980773Y-63753018D02*
X190980773Y-62753018D01*
X190980773Y-62753018D02*
X190599821Y-62753018D01*
X190599821Y-62753018D02*
X190504583Y-62800637D01*
X190504583Y-62800637D02*
X190456964Y-62848256D01*
X190456964Y-62848256D02*
X190409345Y-62943494D01*
X190409345Y-62943494D02*
X190409345Y-63086351D01*
X190409345Y-63086351D02*
X190456964Y-63181589D01*
X190456964Y-63181589D02*
X190504583Y-63229208D01*
X190504583Y-63229208D02*
X190599821Y-63276827D01*
X190599821Y-63276827D02*
X190980773Y-63276827D01*
X190028392Y-63467303D02*
X189552202Y-63467303D01*
X190123630Y-63753018D02*
X189790297Y-62753018D01*
X189790297Y-62753018D02*
X189456964Y-63753018D01*
X189218868Y-62753018D02*
X188980773Y-63753018D01*
X188980773Y-63753018D02*
X188790297Y-63038732D01*
X188790297Y-63038732D02*
X188599821Y-63753018D01*
X188599821Y-63753018D02*
X188361726Y-62753018D01*
X190933150Y-86613020D02*
X190933150Y-85613020D01*
X190933150Y-85613020D02*
X190552198Y-85613020D01*
X190552198Y-85613020D02*
X190456960Y-85660639D01*
X190456960Y-85660639D02*
X190409341Y-85708258D01*
X190409341Y-85708258D02*
X190361722Y-85803496D01*
X190361722Y-85803496D02*
X190361722Y-85946353D01*
X190361722Y-85946353D02*
X190409341Y-86041591D01*
X190409341Y-86041591D02*
X190456960Y-86089210D01*
X190456960Y-86089210D02*
X190552198Y-86136829D01*
X190552198Y-86136829D02*
X190933150Y-86136829D01*
X189409341Y-86613020D02*
X189980769Y-86613020D01*
X189695055Y-86613020D02*
X189695055Y-85613020D01*
X189695055Y-85613020D02*
X189790293Y-85755877D01*
X189790293Y-85755877D02*
X189885531Y-85851115D01*
X189885531Y-85851115D02*
X189980769Y-85898734D01*
X188552198Y-85946353D02*
X188552198Y-86613020D01*
X188790293Y-85565401D02*
X189028388Y-86279686D01*
X189028388Y-86279686D02*
X188409341Y-86279686D01*
X186966962Y-91693020D02*
X186966962Y-90693020D01*
X186966962Y-90693020D02*
X186586010Y-90693020D01*
X186586010Y-90693020D02*
X186490772Y-90740639D01*
X186490772Y-90740639D02*
X186443153Y-90788258D01*
X186443153Y-90788258D02*
X186395534Y-90883496D01*
X186395534Y-90883496D02*
X186395534Y-91026353D01*
X186395534Y-91026353D02*
X186443153Y-91121591D01*
X186443153Y-91121591D02*
X186490772Y-91169210D01*
X186490772Y-91169210D02*
X186586010Y-91216829D01*
X186586010Y-91216829D02*
X186966962Y-91216829D01*
X185919343Y-91693020D02*
X185728867Y-91693020D01*
X185728867Y-91693020D02*
X185633629Y-91645401D01*
X185633629Y-91645401D02*
X185586010Y-91597781D01*
X185586010Y-91597781D02*
X185490772Y-91454924D01*
X185490772Y-91454924D02*
X185443153Y-91264448D01*
X185443153Y-91264448D02*
X185443153Y-90883496D01*
X185443153Y-90883496D02*
X185490772Y-90788258D01*
X185490772Y-90788258D02*
X185538391Y-90740639D01*
X185538391Y-90740639D02*
X185633629Y-90693020D01*
X185633629Y-90693020D02*
X185824105Y-90693020D01*
X185824105Y-90693020D02*
X185919343Y-90740639D01*
X185919343Y-90740639D02*
X185966962Y-90788258D01*
X185966962Y-90788258D02*
X186014581Y-90883496D01*
X186014581Y-90883496D02*
X186014581Y-91121591D01*
X186014581Y-91121591D02*
X185966962Y-91216829D01*
X185966962Y-91216829D02*
X185919343Y-91264448D01*
X185919343Y-91264448D02*
X185824105Y-91312067D01*
X185824105Y-91312067D02*
X185633629Y-91312067D01*
X185633629Y-91312067D02*
X185538391Y-91264448D01*
X185538391Y-91264448D02*
X185490772Y-91216829D01*
X185490772Y-91216829D02*
X185443153Y-91121591D01*
X190933151Y-91693019D02*
X190933151Y-90693019D01*
X190933151Y-90693019D02*
X190552199Y-90693019D01*
X190552199Y-90693019D02*
X190456961Y-90740638D01*
X190456961Y-90740638D02*
X190409342Y-90788257D01*
X190409342Y-90788257D02*
X190361723Y-90883495D01*
X190361723Y-90883495D02*
X190361723Y-91026352D01*
X190361723Y-91026352D02*
X190409342Y-91121590D01*
X190409342Y-91121590D02*
X190456961Y-91169209D01*
X190456961Y-91169209D02*
X190552199Y-91216828D01*
X190552199Y-91216828D02*
X190933151Y-91216828D01*
X189409342Y-91693019D02*
X189980770Y-91693019D01*
X189695056Y-91693019D02*
X189695056Y-90693019D01*
X189695056Y-90693019D02*
X189790294Y-90835876D01*
X189790294Y-90835876D02*
X189885532Y-90931114D01*
X189885532Y-90931114D02*
X189980770Y-90978733D01*
X188790294Y-90693019D02*
X188695056Y-90693019D01*
X188695056Y-90693019D02*
X188599818Y-90740638D01*
X188599818Y-90740638D02*
X188552199Y-90788257D01*
X188552199Y-90788257D02*
X188504580Y-90883495D01*
X188504580Y-90883495D02*
X188456961Y-91073971D01*
X188456961Y-91073971D02*
X188456961Y-91312066D01*
X188456961Y-91312066D02*
X188504580Y-91502542D01*
X188504580Y-91502542D02*
X188552199Y-91597780D01*
X188552199Y-91597780D02*
X188599818Y-91645400D01*
X188599818Y-91645400D02*
X188695056Y-91693019D01*
X188695056Y-91693019D02*
X188790294Y-91693019D01*
X188790294Y-91693019D02*
X188885532Y-91645400D01*
X188885532Y-91645400D02*
X188933151Y-91597780D01*
X188933151Y-91597780D02*
X188980770Y-91502542D01*
X188980770Y-91502542D02*
X189028389Y-91312066D01*
X189028389Y-91312066D02*
X189028389Y-91073971D01*
X189028389Y-91073971D02*
X188980770Y-90883495D01*
X188980770Y-90883495D02*
X188933151Y-90788257D01*
X188933151Y-90788257D02*
X188885532Y-90740638D01*
X188885532Y-90740638D02*
X188790294Y-90693019D01*
X190933154Y-81533017D02*
X190933154Y-80533017D01*
X190933154Y-80533017D02*
X190552202Y-80533017D01*
X190552202Y-80533017D02*
X190456964Y-80580636D01*
X190456964Y-80580636D02*
X190409345Y-80628255D01*
X190409345Y-80628255D02*
X190361726Y-80723493D01*
X190361726Y-80723493D02*
X190361726Y-80866350D01*
X190361726Y-80866350D02*
X190409345Y-80961588D01*
X190409345Y-80961588D02*
X190456964Y-81009207D01*
X190456964Y-81009207D02*
X190552202Y-81056826D01*
X190552202Y-81056826D02*
X190933154Y-81056826D01*
X189409345Y-81533017D02*
X189980773Y-81533017D01*
X189695059Y-81533017D02*
X189695059Y-80533017D01*
X189695059Y-80533017D02*
X189790297Y-80675874D01*
X189790297Y-80675874D02*
X189885535Y-80771112D01*
X189885535Y-80771112D02*
X189980773Y-80818731D01*
X188837916Y-80961588D02*
X188933154Y-80913969D01*
X188933154Y-80913969D02*
X188980773Y-80866350D01*
X188980773Y-80866350D02*
X189028392Y-80771112D01*
X189028392Y-80771112D02*
X189028392Y-80723493D01*
X189028392Y-80723493D02*
X188980773Y-80628255D01*
X188980773Y-80628255D02*
X188933154Y-80580636D01*
X188933154Y-80580636D02*
X188837916Y-80533017D01*
X188837916Y-80533017D02*
X188647440Y-80533017D01*
X188647440Y-80533017D02*
X188552202Y-80580636D01*
X188552202Y-80580636D02*
X188504583Y-80628255D01*
X188504583Y-80628255D02*
X188456964Y-80723493D01*
X188456964Y-80723493D02*
X188456964Y-80771112D01*
X188456964Y-80771112D02*
X188504583Y-80866350D01*
X188504583Y-80866350D02*
X188552202Y-80913969D01*
X188552202Y-80913969D02*
X188647440Y-80961588D01*
X188647440Y-80961588D02*
X188837916Y-80961588D01*
X188837916Y-80961588D02*
X188933154Y-81009207D01*
X188933154Y-81009207D02*
X188980773Y-81056826D01*
X188980773Y-81056826D02*
X189028392Y-81152064D01*
X189028392Y-81152064D02*
X189028392Y-81342540D01*
X189028392Y-81342540D02*
X188980773Y-81437778D01*
X188980773Y-81437778D02*
X188933154Y-81485398D01*
X188933154Y-81485398D02*
X188837916Y-81533017D01*
X188837916Y-81533017D02*
X188647440Y-81533017D01*
X188647440Y-81533017D02*
X188552202Y-81485398D01*
X188552202Y-81485398D02*
X188504583Y-81437778D01*
X188504583Y-81437778D02*
X188456964Y-81342540D01*
X188456964Y-81342540D02*
X188456964Y-81152064D01*
X188456964Y-81152064D02*
X188504583Y-81056826D01*
X188504583Y-81056826D02*
X188552202Y-81009207D01*
X188552202Y-81009207D02*
X188647440Y-80961588D01*
X186966963Y-66293021D02*
X186966963Y-65293021D01*
X186966963Y-65293021D02*
X186586011Y-65293021D01*
X186586011Y-65293021D02*
X186490773Y-65340640D01*
X186490773Y-65340640D02*
X186443154Y-65388259D01*
X186443154Y-65388259D02*
X186395535Y-65483497D01*
X186395535Y-65483497D02*
X186395535Y-65626354D01*
X186395535Y-65626354D02*
X186443154Y-65721592D01*
X186443154Y-65721592D02*
X186490773Y-65769211D01*
X186490773Y-65769211D02*
X186586011Y-65816830D01*
X186586011Y-65816830D02*
X186966963Y-65816830D01*
X185776487Y-65293021D02*
X185681249Y-65293021D01*
X185681249Y-65293021D02*
X185586011Y-65340640D01*
X185586011Y-65340640D02*
X185538392Y-65388259D01*
X185538392Y-65388259D02*
X185490773Y-65483497D01*
X185490773Y-65483497D02*
X185443154Y-65673973D01*
X185443154Y-65673973D02*
X185443154Y-65912068D01*
X185443154Y-65912068D02*
X185490773Y-66102544D01*
X185490773Y-66102544D02*
X185538392Y-66197782D01*
X185538392Y-66197782D02*
X185586011Y-66245402D01*
X185586011Y-66245402D02*
X185681249Y-66293021D01*
X185681249Y-66293021D02*
X185776487Y-66293021D01*
X185776487Y-66293021D02*
X185871725Y-66245402D01*
X185871725Y-66245402D02*
X185919344Y-66197782D01*
X185919344Y-66197782D02*
X185966963Y-66102544D01*
X185966963Y-66102544D02*
X186014582Y-65912068D01*
X186014582Y-65912068D02*
X186014582Y-65673973D01*
X186014582Y-65673973D02*
X185966963Y-65483497D01*
X185966963Y-65483497D02*
X185919344Y-65388259D01*
X185919344Y-65388259D02*
X185871725Y-65340640D01*
X185871725Y-65340640D02*
X185776487Y-65293021D01*
X186966958Y-76453023D02*
X186966958Y-75453023D01*
X186966958Y-75453023D02*
X186586006Y-75453023D01*
X186586006Y-75453023D02*
X186490768Y-75500642D01*
X186490768Y-75500642D02*
X186443149Y-75548261D01*
X186443149Y-75548261D02*
X186395530Y-75643499D01*
X186395530Y-75643499D02*
X186395530Y-75786356D01*
X186395530Y-75786356D02*
X186443149Y-75881594D01*
X186443149Y-75881594D02*
X186490768Y-75929213D01*
X186490768Y-75929213D02*
X186586006Y-75976832D01*
X186586006Y-75976832D02*
X186966958Y-75976832D01*
X186062196Y-75453023D02*
X185443149Y-75453023D01*
X185443149Y-75453023D02*
X185776482Y-75833975D01*
X185776482Y-75833975D02*
X185633625Y-75833975D01*
X185633625Y-75833975D02*
X185538387Y-75881594D01*
X185538387Y-75881594D02*
X185490768Y-75929213D01*
X185490768Y-75929213D02*
X185443149Y-76024451D01*
X185443149Y-76024451D02*
X185443149Y-76262546D01*
X185443149Y-76262546D02*
X185490768Y-76357784D01*
X185490768Y-76357784D02*
X185538387Y-76405404D01*
X185538387Y-76405404D02*
X185633625Y-76453023D01*
X185633625Y-76453023D02*
X185919339Y-76453023D01*
X185919339Y-76453023D02*
X186014577Y-76405404D01*
X186014577Y-76405404D02*
X186062196Y-76357784D01*
X187580771Y-67880637D02*
X187676009Y-67833018D01*
X187676009Y-67833018D02*
X187818866Y-67833018D01*
X187818866Y-67833018D02*
X187961723Y-67880637D01*
X187961723Y-67880637D02*
X188056961Y-67975875D01*
X188056961Y-67975875D02*
X188104580Y-68071113D01*
X188104580Y-68071113D02*
X188152199Y-68261589D01*
X188152199Y-68261589D02*
X188152199Y-68404446D01*
X188152199Y-68404446D02*
X188104580Y-68594922D01*
X188104580Y-68594922D02*
X188056961Y-68690160D01*
X188056961Y-68690160D02*
X187961723Y-68785399D01*
X187961723Y-68785399D02*
X187818866Y-68833018D01*
X187818866Y-68833018D02*
X187723628Y-68833018D01*
X187723628Y-68833018D02*
X187580771Y-68785399D01*
X187580771Y-68785399D02*
X187533152Y-68737779D01*
X187533152Y-68737779D02*
X187533152Y-68404446D01*
X187533152Y-68404446D02*
X187723628Y-68404446D01*
X187104580Y-68833018D02*
X187104580Y-67833018D01*
X187104580Y-67833018D02*
X186533152Y-68833018D01*
X186533152Y-68833018D02*
X186533152Y-67833018D01*
X186056961Y-68833018D02*
X186056961Y-67833018D01*
X186056961Y-67833018D02*
X185818866Y-67833018D01*
X185818866Y-67833018D02*
X185676009Y-67880637D01*
X185676009Y-67880637D02*
X185580771Y-67975875D01*
X185580771Y-67975875D02*
X185533152Y-68071113D01*
X185533152Y-68071113D02*
X185485533Y-68261589D01*
X185485533Y-68261589D02*
X185485533Y-68404446D01*
X185485533Y-68404446D02*
X185533152Y-68594922D01*
X185533152Y-68594922D02*
X185580771Y-68690160D01*
X185580771Y-68690160D02*
X185676009Y-68785399D01*
X185676009Y-68785399D02*
X185818866Y-68833018D01*
X185818866Y-68833018D02*
X186056961Y-68833018D01*
X190480769Y-65340640D02*
X190576007Y-65293021D01*
X190576007Y-65293021D02*
X190718864Y-65293021D01*
X190718864Y-65293021D02*
X190861721Y-65340640D01*
X190861721Y-65340640D02*
X190956959Y-65435878D01*
X190956959Y-65435878D02*
X191004578Y-65531116D01*
X191004578Y-65531116D02*
X191052197Y-65721592D01*
X191052197Y-65721592D02*
X191052197Y-65864449D01*
X191052197Y-65864449D02*
X191004578Y-66054925D01*
X191004578Y-66054925D02*
X190956959Y-66150163D01*
X190956959Y-66150163D02*
X190861721Y-66245402D01*
X190861721Y-66245402D02*
X190718864Y-66293021D01*
X190718864Y-66293021D02*
X190623626Y-66293021D01*
X190623626Y-66293021D02*
X190480769Y-66245402D01*
X190480769Y-66245402D02*
X190433150Y-66197782D01*
X190433150Y-66197782D02*
X190433150Y-65864449D01*
X190433150Y-65864449D02*
X190623626Y-65864449D01*
X190004578Y-66293021D02*
X190004578Y-65293021D01*
X190004578Y-65293021D02*
X189433150Y-66293021D01*
X189433150Y-66293021D02*
X189433150Y-65293021D01*
X188956959Y-66293021D02*
X188956959Y-65293021D01*
X188956959Y-65293021D02*
X188718864Y-65293021D01*
X188718864Y-65293021D02*
X188576007Y-65340640D01*
X188576007Y-65340640D02*
X188480769Y-65435878D01*
X188480769Y-65435878D02*
X188433150Y-65531116D01*
X188433150Y-65531116D02*
X188385531Y-65721592D01*
X188385531Y-65721592D02*
X188385531Y-65864449D01*
X188385531Y-65864449D02*
X188433150Y-66054925D01*
X188433150Y-66054925D02*
X188480769Y-66150163D01*
X188480769Y-66150163D02*
X188576007Y-66245402D01*
X188576007Y-66245402D02*
X188718864Y-66293021D01*
X188718864Y-66293021D02*
X188956959Y-66293021D01*
X186966962Y-63753023D02*
X186966962Y-62753023D01*
X186966962Y-62753023D02*
X186586010Y-62753023D01*
X186586010Y-62753023D02*
X186490772Y-62800642D01*
X186490772Y-62800642D02*
X186443153Y-62848261D01*
X186443153Y-62848261D02*
X186395534Y-62943499D01*
X186395534Y-62943499D02*
X186395534Y-63086356D01*
X186395534Y-63086356D02*
X186443153Y-63181594D01*
X186443153Y-63181594D02*
X186490772Y-63229213D01*
X186490772Y-63229213D02*
X186586010Y-63276832D01*
X186586010Y-63276832D02*
X186966962Y-63276832D01*
X185443153Y-63753023D02*
X186014581Y-63753023D01*
X185728867Y-63753023D02*
X185728867Y-62753023D01*
X185728867Y-62753023D02*
X185824105Y-62895880D01*
X185824105Y-62895880D02*
X185919343Y-62991118D01*
X185919343Y-62991118D02*
X186014581Y-63038737D01*
X186966959Y-84073022D02*
X186966959Y-83073022D01*
X186966959Y-83073022D02*
X186586007Y-83073022D01*
X186586007Y-83073022D02*
X186490769Y-83120641D01*
X186490769Y-83120641D02*
X186443150Y-83168260D01*
X186443150Y-83168260D02*
X186395531Y-83263498D01*
X186395531Y-83263498D02*
X186395531Y-83406355D01*
X186395531Y-83406355D02*
X186443150Y-83501593D01*
X186443150Y-83501593D02*
X186490769Y-83549212D01*
X186490769Y-83549212D02*
X186586007Y-83596831D01*
X186586007Y-83596831D02*
X186966959Y-83596831D01*
X185538388Y-83073022D02*
X185728864Y-83073022D01*
X185728864Y-83073022D02*
X185824102Y-83120641D01*
X185824102Y-83120641D02*
X185871721Y-83168260D01*
X185871721Y-83168260D02*
X185966959Y-83311117D01*
X185966959Y-83311117D02*
X186014578Y-83501593D01*
X186014578Y-83501593D02*
X186014578Y-83882545D01*
X186014578Y-83882545D02*
X185966959Y-83977783D01*
X185966959Y-83977783D02*
X185919340Y-84025403D01*
X185919340Y-84025403D02*
X185824102Y-84073022D01*
X185824102Y-84073022D02*
X185633626Y-84073022D01*
X185633626Y-84073022D02*
X185538388Y-84025403D01*
X185538388Y-84025403D02*
X185490769Y-83977783D01*
X185490769Y-83977783D02*
X185443150Y-83882545D01*
X185443150Y-83882545D02*
X185443150Y-83644450D01*
X185443150Y-83644450D02*
X185490769Y-83549212D01*
X185490769Y-83549212D02*
X185538388Y-83501593D01*
X185538388Y-83501593D02*
X185633626Y-83453974D01*
X185633626Y-83453974D02*
X185824102Y-83453974D01*
X185824102Y-83453974D02*
X185919340Y-83501593D01*
X185919340Y-83501593D02*
X185966959Y-83549212D01*
X185966959Y-83549212D02*
X186014578Y-83644450D01*
X186966961Y-86613021D02*
X186966961Y-85613021D01*
X186966961Y-85613021D02*
X186586009Y-85613021D01*
X186586009Y-85613021D02*
X186490771Y-85660640D01*
X186490771Y-85660640D02*
X186443152Y-85708259D01*
X186443152Y-85708259D02*
X186395533Y-85803497D01*
X186395533Y-85803497D02*
X186395533Y-85946354D01*
X186395533Y-85946354D02*
X186443152Y-86041592D01*
X186443152Y-86041592D02*
X186490771Y-86089211D01*
X186490771Y-86089211D02*
X186586009Y-86136830D01*
X186586009Y-86136830D02*
X186966961Y-86136830D01*
X186062199Y-85613021D02*
X185395533Y-85613021D01*
X185395533Y-85613021D02*
X185824104Y-86613021D01*
X186966961Y-89153020D02*
X186966961Y-88153020D01*
X186966961Y-88153020D02*
X186586009Y-88153020D01*
X186586009Y-88153020D02*
X186490771Y-88200639D01*
X186490771Y-88200639D02*
X186443152Y-88248258D01*
X186443152Y-88248258D02*
X186395533Y-88343496D01*
X186395533Y-88343496D02*
X186395533Y-88486353D01*
X186395533Y-88486353D02*
X186443152Y-88581591D01*
X186443152Y-88581591D02*
X186490771Y-88629210D01*
X186490771Y-88629210D02*
X186586009Y-88676829D01*
X186586009Y-88676829D02*
X186966961Y-88676829D01*
X185824104Y-88581591D02*
X185919342Y-88533972D01*
X185919342Y-88533972D02*
X185966961Y-88486353D01*
X185966961Y-88486353D02*
X186014580Y-88391115D01*
X186014580Y-88391115D02*
X186014580Y-88343496D01*
X186014580Y-88343496D02*
X185966961Y-88248258D01*
X185966961Y-88248258D02*
X185919342Y-88200639D01*
X185919342Y-88200639D02*
X185824104Y-88153020D01*
X185824104Y-88153020D02*
X185633628Y-88153020D01*
X185633628Y-88153020D02*
X185538390Y-88200639D01*
X185538390Y-88200639D02*
X185490771Y-88248258D01*
X185490771Y-88248258D02*
X185443152Y-88343496D01*
X185443152Y-88343496D02*
X185443152Y-88391115D01*
X185443152Y-88391115D02*
X185490771Y-88486353D01*
X185490771Y-88486353D02*
X185538390Y-88533972D01*
X185538390Y-88533972D02*
X185633628Y-88581591D01*
X185633628Y-88581591D02*
X185824104Y-88581591D01*
X185824104Y-88581591D02*
X185919342Y-88629210D01*
X185919342Y-88629210D02*
X185966961Y-88676829D01*
X185966961Y-88676829D02*
X186014580Y-88772067D01*
X186014580Y-88772067D02*
X186014580Y-88962543D01*
X186014580Y-88962543D02*
X185966961Y-89057781D01*
X185966961Y-89057781D02*
X185919342Y-89105401D01*
X185919342Y-89105401D02*
X185824104Y-89153020D01*
X185824104Y-89153020D02*
X185633628Y-89153020D01*
X185633628Y-89153020D02*
X185538390Y-89105401D01*
X185538390Y-89105401D02*
X185490771Y-89057781D01*
X185490771Y-89057781D02*
X185443152Y-88962543D01*
X185443152Y-88962543D02*
X185443152Y-88772067D01*
X185443152Y-88772067D02*
X185490771Y-88676829D01*
X185490771Y-88676829D02*
X185538390Y-88629210D01*
X185538390Y-88629210D02*
X185633628Y-88581591D01*
X190933153Y-73913020D02*
X190933153Y-72913020D01*
X190933153Y-72913020D02*
X190552201Y-72913020D01*
X190552201Y-72913020D02*
X190456963Y-72960639D01*
X190456963Y-72960639D02*
X190409344Y-73008258D01*
X190409344Y-73008258D02*
X190361725Y-73103496D01*
X190361725Y-73103496D02*
X190361725Y-73246353D01*
X190361725Y-73246353D02*
X190409344Y-73341591D01*
X190409344Y-73341591D02*
X190456963Y-73389210D01*
X190456963Y-73389210D02*
X190552201Y-73436829D01*
X190552201Y-73436829D02*
X190933153Y-73436829D01*
X189980772Y-73008258D02*
X189933153Y-72960639D01*
X189933153Y-72960639D02*
X189837915Y-72913020D01*
X189837915Y-72913020D02*
X189599820Y-72913020D01*
X189599820Y-72913020D02*
X189504582Y-72960639D01*
X189504582Y-72960639D02*
X189456963Y-73008258D01*
X189456963Y-73008258D02*
X189409344Y-73103496D01*
X189409344Y-73103496D02*
X189409344Y-73198734D01*
X189409344Y-73198734D02*
X189456963Y-73341591D01*
X189456963Y-73341591D02*
X190028391Y-73913020D01*
X190028391Y-73913020D02*
X189409344Y-73913020D01*
X188456963Y-73913020D02*
X189028391Y-73913020D01*
X188742677Y-73913020D02*
X188742677Y-72913020D01*
X188742677Y-72913020D02*
X188837915Y-73055877D01*
X188837915Y-73055877D02*
X188933153Y-73151115D01*
X188933153Y-73151115D02*
X189028391Y-73198734D01*
X186966959Y-78993022D02*
X186966959Y-77993022D01*
X186966959Y-77993022D02*
X186586007Y-77993022D01*
X186586007Y-77993022D02*
X186490769Y-78040641D01*
X186490769Y-78040641D02*
X186443150Y-78088260D01*
X186443150Y-78088260D02*
X186395531Y-78183498D01*
X186395531Y-78183498D02*
X186395531Y-78326355D01*
X186395531Y-78326355D02*
X186443150Y-78421593D01*
X186443150Y-78421593D02*
X186490769Y-78469212D01*
X186490769Y-78469212D02*
X186586007Y-78516831D01*
X186586007Y-78516831D02*
X186966959Y-78516831D01*
X185538388Y-78326355D02*
X185538388Y-78993022D01*
X185776483Y-77945403D02*
X186014578Y-78659688D01*
X186014578Y-78659688D02*
X185395531Y-78659688D01*
X190266486Y-68833022D02*
X190599819Y-68356831D01*
X190837914Y-68833022D02*
X190837914Y-67833022D01*
X190837914Y-67833022D02*
X190456962Y-67833022D01*
X190456962Y-67833022D02*
X190361724Y-67880641D01*
X190361724Y-67880641D02*
X190314105Y-67928260D01*
X190314105Y-67928260D02*
X190266486Y-68023498D01*
X190266486Y-68023498D02*
X190266486Y-68166355D01*
X190266486Y-68166355D02*
X190314105Y-68261593D01*
X190314105Y-68261593D02*
X190361724Y-68309212D01*
X190361724Y-68309212D02*
X190456962Y-68356831D01*
X190456962Y-68356831D02*
X190837914Y-68356831D01*
X189885533Y-68785403D02*
X189742676Y-68833022D01*
X189742676Y-68833022D02*
X189504581Y-68833022D01*
X189504581Y-68833022D02*
X189409343Y-68785403D01*
X189409343Y-68785403D02*
X189361724Y-68737783D01*
X189361724Y-68737783D02*
X189314105Y-68642545D01*
X189314105Y-68642545D02*
X189314105Y-68547307D01*
X189314105Y-68547307D02*
X189361724Y-68452069D01*
X189361724Y-68452069D02*
X189409343Y-68404450D01*
X189409343Y-68404450D02*
X189504581Y-68356831D01*
X189504581Y-68356831D02*
X189695057Y-68309212D01*
X189695057Y-68309212D02*
X189790295Y-68261593D01*
X189790295Y-68261593D02*
X189837914Y-68213974D01*
X189837914Y-68213974D02*
X189885533Y-68118736D01*
X189885533Y-68118736D02*
X189885533Y-68023498D01*
X189885533Y-68023498D02*
X189837914Y-67928260D01*
X189837914Y-67928260D02*
X189790295Y-67880641D01*
X189790295Y-67880641D02*
X189695057Y-67833022D01*
X189695057Y-67833022D02*
X189456962Y-67833022D01*
X189456962Y-67833022D02*
X189314105Y-67880641D01*
X189028390Y-67833022D02*
X188456962Y-67833022D01*
X188742676Y-68833022D02*
X188742676Y-67833022D01*
X190933152Y-89153023D02*
X190933152Y-88153023D01*
X190933152Y-88153023D02*
X190552200Y-88153023D01*
X190552200Y-88153023D02*
X190456962Y-88200642D01*
X190456962Y-88200642D02*
X190409343Y-88248261D01*
X190409343Y-88248261D02*
X190361724Y-88343499D01*
X190361724Y-88343499D02*
X190361724Y-88486356D01*
X190361724Y-88486356D02*
X190409343Y-88581594D01*
X190409343Y-88581594D02*
X190456962Y-88629213D01*
X190456962Y-88629213D02*
X190552200Y-88676832D01*
X190552200Y-88676832D02*
X190933152Y-88676832D01*
X189409343Y-89153023D02*
X189980771Y-89153023D01*
X189695057Y-89153023D02*
X189695057Y-88153023D01*
X189695057Y-88153023D02*
X189790295Y-88295880D01*
X189790295Y-88295880D02*
X189885533Y-88391118D01*
X189885533Y-88391118D02*
X189980771Y-88438737D01*
X188552200Y-88153023D02*
X188742676Y-88153023D01*
X188742676Y-88153023D02*
X188837914Y-88200642D01*
X188837914Y-88200642D02*
X188885533Y-88248261D01*
X188885533Y-88248261D02*
X188980771Y-88391118D01*
X188980771Y-88391118D02*
X189028390Y-88581594D01*
X189028390Y-88581594D02*
X189028390Y-88962546D01*
X189028390Y-88962546D02*
X188980771Y-89057784D01*
X188980771Y-89057784D02*
X188933152Y-89105404D01*
X188933152Y-89105404D02*
X188837914Y-89153023D01*
X188837914Y-89153023D02*
X188647438Y-89153023D01*
X188647438Y-89153023D02*
X188552200Y-89105404D01*
X188552200Y-89105404D02*
X188504581Y-89057784D01*
X188504581Y-89057784D02*
X188456962Y-88962546D01*
X188456962Y-88962546D02*
X188456962Y-88724451D01*
X188456962Y-88724451D02*
X188504581Y-88629213D01*
X188504581Y-88629213D02*
X188552200Y-88581594D01*
X188552200Y-88581594D02*
X188647438Y-88533975D01*
X188647438Y-88533975D02*
X188837914Y-88533975D01*
X188837914Y-88533975D02*
X188933152Y-88581594D01*
X188933152Y-88581594D02*
X188980771Y-88629213D01*
X188980771Y-88629213D02*
X189028390Y-88724451D01*
X190933152Y-84073024D02*
X190933152Y-83073024D01*
X190933152Y-83073024D02*
X190552200Y-83073024D01*
X190552200Y-83073024D02*
X190456962Y-83120643D01*
X190456962Y-83120643D02*
X190409343Y-83168262D01*
X190409343Y-83168262D02*
X190361724Y-83263500D01*
X190361724Y-83263500D02*
X190361724Y-83406357D01*
X190361724Y-83406357D02*
X190409343Y-83501595D01*
X190409343Y-83501595D02*
X190456962Y-83549214D01*
X190456962Y-83549214D02*
X190552200Y-83596833D01*
X190552200Y-83596833D02*
X190933152Y-83596833D01*
X189409343Y-84073024D02*
X189980771Y-84073024D01*
X189695057Y-84073024D02*
X189695057Y-83073024D01*
X189695057Y-83073024D02*
X189790295Y-83215881D01*
X189790295Y-83215881D02*
X189885533Y-83311119D01*
X189885533Y-83311119D02*
X189980771Y-83358738D01*
X188504581Y-83073024D02*
X188980771Y-83073024D01*
X188980771Y-83073024D02*
X189028390Y-83549214D01*
X189028390Y-83549214D02*
X188980771Y-83501595D01*
X188980771Y-83501595D02*
X188885533Y-83453976D01*
X188885533Y-83453976D02*
X188647438Y-83453976D01*
X188647438Y-83453976D02*
X188552200Y-83501595D01*
X188552200Y-83501595D02*
X188504581Y-83549214D01*
X188504581Y-83549214D02*
X188456962Y-83644452D01*
X188456962Y-83644452D02*
X188456962Y-83882547D01*
X188456962Y-83882547D02*
X188504581Y-83977785D01*
X188504581Y-83977785D02*
X188552200Y-84025405D01*
X188552200Y-84025405D02*
X188647438Y-84073024D01*
X188647438Y-84073024D02*
X188885533Y-84073024D01*
X188885533Y-84073024D02*
X188980771Y-84025405D01*
X188980771Y-84025405D02*
X189028390Y-83977785D01*
X191052199Y-70373031D02*
X190718866Y-71373031D01*
X190718866Y-71373031D02*
X190385533Y-70373031D01*
X189480771Y-71277792D02*
X189528390Y-71325412D01*
X189528390Y-71325412D02*
X189671247Y-71373031D01*
X189671247Y-71373031D02*
X189766485Y-71373031D01*
X189766485Y-71373031D02*
X189909342Y-71325412D01*
X189909342Y-71325412D02*
X190004580Y-71230173D01*
X190004580Y-71230173D02*
X190052199Y-71134935D01*
X190052199Y-71134935D02*
X190099818Y-70944459D01*
X190099818Y-70944459D02*
X190099818Y-70801602D01*
X190099818Y-70801602D02*
X190052199Y-70611126D01*
X190052199Y-70611126D02*
X190004580Y-70515888D01*
X190004580Y-70515888D02*
X189909342Y-70420650D01*
X189909342Y-70420650D02*
X189766485Y-70373031D01*
X189766485Y-70373031D02*
X189671247Y-70373031D01*
X189671247Y-70373031D02*
X189528390Y-70420650D01*
X189528390Y-70420650D02*
X189480771Y-70468269D01*
X188480771Y-71277792D02*
X188528390Y-71325412D01*
X188528390Y-71325412D02*
X188671247Y-71373031D01*
X188671247Y-71373031D02*
X188766485Y-71373031D01*
X188766485Y-71373031D02*
X188909342Y-71325412D01*
X188909342Y-71325412D02*
X189004580Y-71230173D01*
X189004580Y-71230173D02*
X189052199Y-71134935D01*
X189052199Y-71134935D02*
X189099818Y-70944459D01*
X189099818Y-70944459D02*
X189099818Y-70801602D01*
X189099818Y-70801602D02*
X189052199Y-70611126D01*
X189052199Y-70611126D02*
X189004580Y-70515888D01*
X189004580Y-70515888D02*
X188909342Y-70420650D01*
X188909342Y-70420650D02*
X188766485Y-70373031D01*
X188766485Y-70373031D02*
X188671247Y-70373031D01*
X188671247Y-70373031D02*
X188528390Y-70420650D01*
X188528390Y-70420650D02*
X188480771Y-70468269D01*
X187580769Y-70420644D02*
X187676007Y-70373025D01*
X187676007Y-70373025D02*
X187818864Y-70373025D01*
X187818864Y-70373025D02*
X187961721Y-70420644D01*
X187961721Y-70420644D02*
X188056959Y-70515882D01*
X188056959Y-70515882D02*
X188104578Y-70611120D01*
X188104578Y-70611120D02*
X188152197Y-70801596D01*
X188152197Y-70801596D02*
X188152197Y-70944453D01*
X188152197Y-70944453D02*
X188104578Y-71134929D01*
X188104578Y-71134929D02*
X188056959Y-71230167D01*
X188056959Y-71230167D02*
X187961721Y-71325406D01*
X187961721Y-71325406D02*
X187818864Y-71373025D01*
X187818864Y-71373025D02*
X187723626Y-71373025D01*
X187723626Y-71373025D02*
X187580769Y-71325406D01*
X187580769Y-71325406D02*
X187533150Y-71277786D01*
X187533150Y-71277786D02*
X187533150Y-70944453D01*
X187533150Y-70944453D02*
X187723626Y-70944453D01*
X187104578Y-71373025D02*
X187104578Y-70373025D01*
X187104578Y-70373025D02*
X186533150Y-71373025D01*
X186533150Y-71373025D02*
X186533150Y-70373025D01*
X186056959Y-71373025D02*
X186056959Y-70373025D01*
X186056959Y-70373025D02*
X185818864Y-70373025D01*
X185818864Y-70373025D02*
X185676007Y-70420644D01*
X185676007Y-70420644D02*
X185580769Y-70515882D01*
X185580769Y-70515882D02*
X185533150Y-70611120D01*
X185533150Y-70611120D02*
X185485531Y-70801596D01*
X185485531Y-70801596D02*
X185485531Y-70944453D01*
X185485531Y-70944453D02*
X185533150Y-71134929D01*
X185533150Y-71134929D02*
X185580769Y-71230167D01*
X185580769Y-71230167D02*
X185676007Y-71325406D01*
X185676007Y-71325406D02*
X185818864Y-71373025D01*
X185818864Y-71373025D02*
X186056959Y-71373025D01*
X190933148Y-76453026D02*
X190933148Y-75453026D01*
X190933148Y-75453026D02*
X190552196Y-75453026D01*
X190552196Y-75453026D02*
X190456958Y-75500645D01*
X190456958Y-75500645D02*
X190409339Y-75548264D01*
X190409339Y-75548264D02*
X190361720Y-75643502D01*
X190361720Y-75643502D02*
X190361720Y-75786359D01*
X190361720Y-75786359D02*
X190409339Y-75881597D01*
X190409339Y-75881597D02*
X190456958Y-75929216D01*
X190456958Y-75929216D02*
X190552196Y-75976835D01*
X190552196Y-75976835D02*
X190933148Y-75976835D01*
X189980767Y-75548264D02*
X189933148Y-75500645D01*
X189933148Y-75500645D02*
X189837910Y-75453026D01*
X189837910Y-75453026D02*
X189599815Y-75453026D01*
X189599815Y-75453026D02*
X189504577Y-75500645D01*
X189504577Y-75500645D02*
X189456958Y-75548264D01*
X189456958Y-75548264D02*
X189409339Y-75643502D01*
X189409339Y-75643502D02*
X189409339Y-75738740D01*
X189409339Y-75738740D02*
X189456958Y-75881597D01*
X189456958Y-75881597D02*
X190028386Y-76453026D01*
X190028386Y-76453026D02*
X189409339Y-76453026D01*
X188790291Y-75453026D02*
X188695053Y-75453026D01*
X188695053Y-75453026D02*
X188599815Y-75500645D01*
X188599815Y-75500645D02*
X188552196Y-75548264D01*
X188552196Y-75548264D02*
X188504577Y-75643502D01*
X188504577Y-75643502D02*
X188456958Y-75833978D01*
X188456958Y-75833978D02*
X188456958Y-76072073D01*
X188456958Y-76072073D02*
X188504577Y-76262549D01*
X188504577Y-76262549D02*
X188552196Y-76357787D01*
X188552196Y-76357787D02*
X188599815Y-76405407D01*
X188599815Y-76405407D02*
X188695053Y-76453026D01*
X188695053Y-76453026D02*
X188790291Y-76453026D01*
X188790291Y-76453026D02*
X188885529Y-76405407D01*
X188885529Y-76405407D02*
X188933148Y-76357787D01*
X188933148Y-76357787D02*
X188980767Y-76262549D01*
X188980767Y-76262549D02*
X189028386Y-76072073D01*
X189028386Y-76072073D02*
X189028386Y-75833978D01*
X189028386Y-75833978D02*
X188980767Y-75643502D01*
X188980767Y-75643502D02*
X188933148Y-75548264D01*
X188933148Y-75548264D02*
X188885529Y-75500645D01*
X188885529Y-75500645D02*
X188790291Y-75453026D01*
D11*
%TO.C,D10*%
X106511376Y-120003198D02*
X106911381Y-120003196D01*
X106911381Y-120003196D02*
X106911376Y-119453192D01*
X106911381Y-120003196D02*
X106911380Y-120553197D01*
X106911381Y-120003196D02*
X107511371Y-119603197D01*
X107511371Y-119603197D02*
X107511373Y-120403190D01*
X107511373Y-120403190D02*
X106911381Y-120003196D01*
X107511375Y-120003201D02*
X108011376Y-120003198D01*
%TO.C,D26*%
X166534778Y-161080845D02*
X166928701Y-161150306D01*
X166928701Y-161150306D02*
X166833197Y-161691950D01*
X166928701Y-161150306D02*
X167024207Y-160608656D01*
X166928701Y-161150306D02*
X167589042Y-160860574D01*
X167450122Y-161648412D02*
X166928701Y-161150306D01*
X167519585Y-161254494D02*
X168011986Y-161341319D01*
X167589042Y-160860574D02*
X167450122Y-161648412D01*
D13*
%TO.C,S30*%
X182218863Y-105898198D02*
X182218864Y-112098200D01*
X182218864Y-112098200D02*
X183168867Y-112098200D01*
X183168869Y-105898195D02*
X182218863Y-105898198D01*
X185368865Y-105898196D02*
X186318868Y-105898196D01*
X186318868Y-105898196D02*
X186318869Y-112098198D01*
X186318869Y-112098198D02*
X185368863Y-112098201D01*
X183168862Y-111598195D02*
G75*
G02*
X182968868Y-111598195I-99997J0D01*
G01*
X182968868Y-111598195D02*
G75*
G02*
X183168862Y-111598195I99997J0D01*
G01*
D11*
%TO.C,D25*%
X146083434Y-159376299D02*
X146481918Y-159411156D01*
X146481918Y-159411156D02*
X146433980Y-159959067D01*
X146481918Y-159411156D02*
X146529846Y-158863250D01*
X146481918Y-159411156D02*
X147114490Y-159064978D01*
X147044763Y-159861931D02*
X146481918Y-159411156D01*
X147079626Y-159463454D02*
X147577724Y-159507031D01*
X147114490Y-159064978D02*
X147044763Y-159861931D01*
%TO.C,D28*%
X181582713Y-183882289D02*
X181969081Y-183985817D01*
X181969081Y-183985817D02*
X181826734Y-184517075D01*
X181969081Y-183985817D02*
X182111437Y-183454557D01*
X181969081Y-183985817D02*
X182652159Y-183754737D01*
X182445108Y-184527472D02*
X181969081Y-183985817D01*
X182548636Y-184141106D02*
X183031599Y-184270515D01*
X182652159Y-183754737D02*
X182445108Y-184527472D01*
%TO.C,D23*%
X166518864Y-100000685D02*
X166918869Y-100000683D01*
X166918869Y-100000683D02*
X166918864Y-99450679D01*
X166918869Y-100000683D02*
X166918868Y-100550684D01*
X166918869Y-100000683D02*
X167518859Y-99600684D01*
X167518859Y-99600684D02*
X167518861Y-100400677D01*
X167518861Y-100400677D02*
X166918869Y-100000683D01*
X167518863Y-100000688D02*
X168018864Y-100000685D01*
%TO.C,D7*%
X86508864Y-105000689D02*
X86908869Y-105000687D01*
X86908869Y-105000687D02*
X86908864Y-104450683D01*
X86908869Y-105000687D02*
X86908868Y-105550688D01*
X86908869Y-105000687D02*
X87508859Y-104600688D01*
X87508859Y-104600688D02*
X87508861Y-105400681D01*
X87508861Y-105400681D02*
X86908869Y-105000687D01*
X87508863Y-105000692D02*
X88008864Y-105000689D01*
%TO.C,D16*%
X126513878Y-74998188D02*
X126913883Y-74998186D01*
X126913883Y-74998186D02*
X126913878Y-74448182D01*
X126913883Y-74998186D02*
X126913882Y-75548187D01*
X126913883Y-74998186D02*
X127513873Y-74598187D01*
X127513873Y-74598187D02*
X127513875Y-75398180D01*
X127513875Y-75398180D02*
X126913883Y-74998186D01*
X127513877Y-74998191D02*
X128013878Y-74998188D01*
%TO.C,D11*%
X106511371Y-100000685D02*
X106911376Y-100000683D01*
X106911376Y-100000683D02*
X106911371Y-99450679D01*
X106911376Y-100000683D02*
X106911375Y-100550684D01*
X106911376Y-100000683D02*
X107511366Y-99600684D01*
X107511366Y-99600684D02*
X107511368Y-100400677D01*
X107511368Y-100400677D02*
X106911376Y-100000683D01*
X107511370Y-100000688D02*
X108011371Y-100000685D01*
%TO.C,D8*%
X86508861Y-84998198D02*
X86908866Y-84998196D01*
X86908866Y-84998196D02*
X86908861Y-84448192D01*
X86908866Y-84998196D02*
X86908865Y-85548197D01*
X86908866Y-84998196D02*
X87508856Y-84598197D01*
X87508856Y-84598197D02*
X87508858Y-85398190D01*
X87508858Y-85398190D02*
X86908866Y-84998196D01*
X87508860Y-84998201D02*
X88008861Y-84998198D01*
%TO.C,D17*%
X146516361Y-137505686D02*
X146916366Y-137505684D01*
X146916366Y-137505684D02*
X146916361Y-136955680D01*
X146916366Y-137505684D02*
X146916365Y-138055685D01*
X146916366Y-137505684D02*
X147516356Y-137105685D01*
X147516356Y-137105685D02*
X147516358Y-137905678D01*
X147516358Y-137905678D02*
X146916366Y-137505684D01*
X147516360Y-137505689D02*
X148016361Y-137505686D01*
%TO.C,D12*%
X106511358Y-79998195D02*
X106911363Y-79998193D01*
X106911363Y-79998193D02*
X106911358Y-79448189D01*
X106911363Y-79998193D02*
X106911362Y-80548194D01*
X106911363Y-79998193D02*
X107511353Y-79598194D01*
X107511353Y-79598194D02*
X107511355Y-80398187D01*
X107511355Y-80398187D02*
X106911363Y-79998193D01*
X107511357Y-79998198D02*
X108011358Y-79998195D01*
%TO.C,D22*%
X166518861Y-120003179D02*
X166918866Y-120003177D01*
X166918866Y-120003177D02*
X166918861Y-119453173D01*
X166918866Y-120003177D02*
X166918865Y-120553178D01*
X166918866Y-120003177D02*
X167518856Y-119603178D01*
X167518856Y-119603178D02*
X167518858Y-120403171D01*
X167518858Y-120403171D02*
X166918866Y-120003177D01*
X167518860Y-120003182D02*
X168018861Y-120003179D01*
%TO.C,D5*%
X86508867Y-145005688D02*
X86908872Y-145005686D01*
X86908872Y-145005686D02*
X86908867Y-144455682D01*
X86908872Y-145005686D02*
X86908871Y-145555687D01*
X86908872Y-145005686D02*
X87508862Y-144605687D01*
X87508862Y-144605687D02*
X87508864Y-145405680D01*
X87508864Y-145405680D02*
X86908872Y-145005686D01*
X87508866Y-145005691D02*
X88008867Y-145005688D01*
%TO.C,D3*%
X66506366Y-105000694D02*
X66906371Y-105000692D01*
X66906371Y-105000692D02*
X66906366Y-104450688D01*
X66906371Y-105000692D02*
X66906370Y-105550693D01*
X66906371Y-105000692D02*
X67506361Y-104600693D01*
X67506361Y-104600693D02*
X67506363Y-105400686D01*
X67506363Y-105400686D02*
X66906371Y-105000692D01*
X67506365Y-105000697D02*
X68006366Y-105000694D01*
%TO.C,D24*%
X166518860Y-79998171D02*
X166918865Y-79998169D01*
X166918865Y-79998169D02*
X166918860Y-79448165D01*
X166918865Y-79998169D02*
X166918864Y-80548170D01*
X166918865Y-79998169D02*
X167518855Y-79598170D01*
X167518855Y-79598170D02*
X167518857Y-80398163D01*
X167518857Y-80398163D02*
X166918865Y-79998169D01*
X167518859Y-79998174D02*
X168018860Y-79998171D01*
D14*
%TO.C,MCU1*%
X179318863Y-61968204D02*
X179318874Y-92568202D01*
X179318868Y-64568201D02*
X181978867Y-64568202D01*
X181978867Y-61968204D02*
X179318863Y-61968204D01*
X181978867Y-61968204D02*
X181978867Y-92568207D01*
X181978867Y-92568207D02*
X179318874Y-92568202D01*
X194558867Y-61968201D02*
X194558866Y-92568202D01*
X197218867Y-92568203D02*
X194558866Y-92568202D01*
X197218871Y-61968206D02*
X194558867Y-61968201D01*
X197218871Y-61968206D02*
X197218867Y-92568203D01*
D11*
%TO.C,D2*%
X66506373Y-125003193D02*
X66906378Y-125003191D01*
X66906378Y-125003191D02*
X66906373Y-124453187D01*
X66906378Y-125003191D02*
X66906377Y-125553192D01*
X66906378Y-125003191D02*
X67506368Y-124603192D01*
X67506368Y-124603192D02*
X67506370Y-125403185D01*
X67506370Y-125403185D02*
X66906378Y-125003191D01*
X67506372Y-125003196D02*
X68006373Y-125003193D01*
D14*
%TO.C,_30*%
X191808855Y-105938194D02*
X191808861Y-106858199D01*
X191808861Y-106858199D02*
X193408858Y-106858193D01*
X191808862Y-111138193D02*
X191808863Y-112058197D01*
X191808863Y-112058197D02*
X199628860Y-112058195D01*
X193408858Y-106858193D02*
X193408858Y-107138198D01*
X193408858Y-110858196D02*
X192193857Y-110858198D01*
X193408858Y-110858196D02*
X193408859Y-111138199D01*
X193408859Y-111138199D02*
X191808862Y-111138193D01*
X193408860Y-112058197D02*
X193408859Y-111138199D01*
X193408861Y-105938196D02*
X193408858Y-106858193D01*
X195268858Y-109498193D02*
X195268859Y-108498191D01*
X195268859Y-108498191D02*
X199628856Y-108498194D01*
X195768855Y-111298194D02*
X197368859Y-111298195D01*
X195768859Y-106698197D02*
X197368856Y-106698199D01*
X195768859Y-107698198D02*
X195768859Y-106698197D01*
X195768859Y-110298195D02*
X195768855Y-111298194D01*
X197368856Y-106698199D02*
X197368857Y-107698192D01*
X197368857Y-107698192D02*
X195768859Y-107698198D01*
X197368859Y-110298198D02*
X195768859Y-110298195D01*
X197368859Y-110298198D02*
X199628859Y-110298198D01*
X197368859Y-110798196D02*
X199628859Y-110798199D01*
X197368859Y-111298195D02*
X197368859Y-110298198D01*
X199628856Y-105938195D02*
X191808855Y-105938194D01*
X199628860Y-109498197D02*
X195268858Y-109498193D01*
X199628860Y-112058195D02*
X199628856Y-105938195D01*
D11*
%TO.C,D18*%
X146516370Y-117503191D02*
X146916375Y-117503189D01*
X146916375Y-117503189D02*
X146916370Y-116953185D01*
X146916375Y-117503189D02*
X146916374Y-118053190D01*
X146916375Y-117503189D02*
X147516365Y-117103190D01*
X147516365Y-117103190D02*
X147516367Y-117903183D01*
X147516367Y-117903183D02*
X146916375Y-117503189D01*
X147516369Y-117503194D02*
X148016370Y-117503191D01*
%TO.C,D19*%
X146516357Y-97500687D02*
X146916362Y-97500685D01*
X146916362Y-97500685D02*
X146916357Y-96950681D01*
X146916362Y-97500685D02*
X146916361Y-98050686D01*
X146916362Y-97500685D02*
X147516352Y-97100686D01*
X147516352Y-97100686D02*
X147516354Y-97900679D01*
X147516354Y-97900679D02*
X146916362Y-97500685D01*
X147516356Y-97500690D02*
X148016357Y-97500687D01*
%TO.C,D14*%
X126513865Y-115003186D02*
X126913870Y-115003184D01*
X126913870Y-115003184D02*
X126913865Y-114453180D01*
X126913870Y-115003184D02*
X126913869Y-115553185D01*
X126913870Y-115003184D02*
X127513860Y-114603185D01*
X127513860Y-114603185D02*
X127513862Y-115403178D01*
X127513862Y-115403178D02*
X126913870Y-115003184D01*
X127513864Y-115003189D02*
X128013865Y-115003186D01*
%TO.C,D27*%
X186759731Y-164561356D02*
X187146099Y-164664884D01*
X187146099Y-164664884D02*
X187003752Y-165196142D01*
X187146099Y-164664884D02*
X187288455Y-164133624D01*
X187146099Y-164664884D02*
X187829177Y-164433804D01*
X187622126Y-165206539D02*
X187146099Y-164664884D01*
X187725654Y-164820173D02*
X188208617Y-164949582D01*
X187829177Y-164433804D02*
X187622126Y-165206539D01*
%TO.C,D4*%
X66506353Y-84998197D02*
X66906358Y-84998195D01*
X66906358Y-84998195D02*
X66906353Y-84448191D01*
X66906358Y-84998195D02*
X66906357Y-85548196D01*
X66906358Y-84998195D02*
X67506348Y-84598196D01*
X67506348Y-84598196D02*
X67506350Y-85398189D01*
X67506350Y-85398189D02*
X66906358Y-84998195D01*
X67506352Y-84998200D02*
X68006353Y-84998197D01*
%TO.C,D9*%
X106511361Y-140005701D02*
X106911366Y-140005699D01*
X106911366Y-140005699D02*
X106911361Y-139455695D01*
X106911366Y-140005699D02*
X106911365Y-140555700D01*
X106911366Y-140005699D02*
X107511356Y-139605700D01*
X107511356Y-139605700D02*
X107511358Y-140405693D01*
X107511358Y-140405693D02*
X106911366Y-140005699D01*
X107511360Y-140005704D02*
X108011361Y-140005701D01*
%TO.C,D30*%
X189518854Y-127998186D02*
X189918859Y-127998184D01*
X189918859Y-127998184D02*
X189918854Y-127448180D01*
X189918859Y-127998184D02*
X189918858Y-128548185D01*
X189918859Y-127998184D02*
X190518849Y-127598185D01*
X190518849Y-127598185D02*
X190518851Y-128398178D01*
X190518851Y-128398178D02*
X189918859Y-127998184D01*
X190518853Y-127998189D02*
X191018854Y-127998186D01*
%TO.C,D21*%
X166518858Y-140005692D02*
X166918863Y-140005690D01*
X166918863Y-140005690D02*
X166918858Y-139455686D01*
X166918863Y-140005690D02*
X166918862Y-140555691D01*
X166918863Y-140005690D02*
X167518853Y-139605691D01*
X167518853Y-139605691D02*
X167518855Y-140405684D01*
X167518855Y-140405684D02*
X166918863Y-140005690D01*
X167518857Y-140005695D02*
X168018858Y-140005692D01*
%TO.C,D15*%
X126513860Y-95000691D02*
X126913865Y-95000689D01*
X126913865Y-95000689D02*
X126913860Y-94450685D01*
X126913865Y-95000689D02*
X126913864Y-95550690D01*
X126913865Y-95000689D02*
X127513855Y-94600690D01*
X127513855Y-94600690D02*
X127513857Y-95400683D01*
X127513857Y-95400683D02*
X126913865Y-95000689D01*
X127513859Y-95000694D02*
X128013860Y-95000691D01*
%TO.C,D29*%
X211735487Y-176665495D02*
X212508222Y-176872546D01*
X211863039Y-177734941D02*
X211966567Y-177348573D01*
X211966567Y-177348573D02*
X211435307Y-177206217D01*
X211966567Y-177348573D02*
X211735487Y-176665495D01*
X211966567Y-177348573D02*
X212497825Y-177490920D01*
X212121856Y-176769018D02*
X212251265Y-176286055D01*
X212508222Y-176872546D02*
X211966567Y-177348573D01*
%TO.C,D13*%
X126513852Y-135005680D02*
X126913857Y-135005678D01*
X126913857Y-135005678D02*
X126913852Y-134455674D01*
X126913857Y-135005678D02*
X126913856Y-135555679D01*
X126913857Y-135005678D02*
X127513847Y-134605679D01*
X127513847Y-134605679D02*
X127513849Y-135405672D01*
X127513849Y-135405672D02*
X126913857Y-135005678D01*
X127513851Y-135005683D02*
X128013852Y-135005680D01*
%TO.C,D20*%
X146516355Y-77498173D02*
X146916360Y-77498171D01*
X146916360Y-77498171D02*
X146916355Y-76948167D01*
X146916360Y-77498171D02*
X146916359Y-78048172D01*
X146916360Y-77498171D02*
X147516350Y-77098172D01*
X147516350Y-77098172D02*
X147516352Y-77898165D01*
X147516352Y-77898165D02*
X146916360Y-77498171D01*
X147516354Y-77498176D02*
X148016355Y-77498173D01*
%TO.C,D6*%
X86508865Y-125003182D02*
X86908870Y-125003180D01*
X86908870Y-125003180D02*
X86908865Y-124453176D01*
X86908870Y-125003180D02*
X86908869Y-125553181D01*
X86908870Y-125003180D02*
X87508860Y-124603181D01*
X87508860Y-124603181D02*
X87508862Y-125403174D01*
X87508862Y-125403174D02*
X86908870Y-125003180D01*
X87508864Y-125003185D02*
X88008865Y-125003182D01*
%TO.C,D1*%
X66506373Y-145005693D02*
X66906378Y-145005691D01*
X66906378Y-145005691D02*
X66906373Y-144455687D01*
X66906378Y-145005691D02*
X66906377Y-145555692D01*
X66906378Y-145005691D02*
X67506368Y-144605692D01*
X67506368Y-144605692D02*
X67506370Y-145405685D01*
X67506370Y-145405685D02*
X66906378Y-145005691D01*
X67506372Y-145005696D02*
X68006373Y-145005693D01*
%TO.C,S16*%
X127263857Y-67478186D02*
X125383861Y-67478190D01*
X128483857Y-66228184D02*
X127263857Y-67478186D01*
%TO.C,S1*%
X67256357Y-137485696D02*
X65376361Y-137485700D01*
X68476357Y-136235694D02*
X67256357Y-137485696D01*
%TO.C,S14*%
X127263860Y-107483192D02*
X125383864Y-107483196D01*
X128483860Y-106233190D02*
X127263860Y-107483192D01*
%TO.C,S7*%
X87258858Y-97480679D02*
X85378862Y-97480683D01*
X88478858Y-96230677D02*
X87258858Y-97480679D01*
%TO.C,S20*%
X147266363Y-69978200D02*
X145386367Y-69978204D01*
X148486363Y-68728198D02*
X147266363Y-69978200D01*
%TO.C,S27*%
X189430498Y-157491697D02*
X187614555Y-157005122D01*
X190932450Y-156600049D02*
X189430498Y-157491697D01*
%TO.C,S17*%
X147266372Y-129985699D02*
X145386376Y-129985703D01*
X148486372Y-128735697D02*
X147266372Y-129985699D01*
%TO.C,S19*%
X147266353Y-89980681D02*
X145386357Y-89980685D01*
X148486353Y-88730679D02*
X147266353Y-89980681D01*
%TO.C,S12*%
X107261370Y-72478182D02*
X105381374Y-72478186D01*
X108481370Y-71228180D02*
X107261370Y-72478182D01*
%TO.C,S25*%
X147485990Y-151950274D02*
X145613139Y-151786422D01*
X148810292Y-150811360D02*
X147485990Y-151950274D01*
%TO.C,S21*%
X167268866Y-132485687D02*
X165388870Y-132485691D01*
X168488866Y-131235685D02*
X167268866Y-132485687D01*
%TO.C,S11*%
X107261362Y-92480684D02*
X105381366Y-92480688D01*
X108481362Y-91230682D02*
X107261362Y-92480684D01*
%TO.C,S4*%
X67256357Y-77478184D02*
X65376361Y-77478188D01*
X68476357Y-76228182D02*
X67256357Y-77478184D01*
%TO.C,S5*%
X87258864Y-137485674D02*
X85378868Y-137485678D01*
X88478864Y-136235672D02*
X87258864Y-137485674D01*
%TO.C,S3*%
X67256373Y-97480692D02*
X65376377Y-97480696D01*
X68476373Y-96230690D02*
X67256373Y-97480692D01*
%TO.C,S13*%
X127263858Y-127485688D02*
X125383862Y-127485692D01*
X128483858Y-126235686D02*
X127263858Y-127485688D01*
%TO.C,S9*%
X107261370Y-132485688D02*
X105381374Y-132485692D01*
X108481370Y-131235686D02*
X107261370Y-132485688D01*
%TO.C,S28*%
X184253471Y-176812630D02*
X182437528Y-176326055D01*
X185755423Y-175920982D02*
X184253471Y-176812630D01*
%TO.C,S18*%
X147266372Y-109983197D02*
X145386376Y-109983201D01*
X148486372Y-108733195D02*
X147266372Y-109983197D01*
%TO.C,S23*%
X167268869Y-92480699D02*
X165388873Y-92480703D01*
X168488869Y-91230697D02*
X167268869Y-92480699D01*
%TO.C,S8*%
X87258857Y-77478189D02*
X85378861Y-77478193D01*
X88478857Y-76228187D02*
X87258857Y-77478189D01*
%TO.C,S24*%
X167268867Y-72478192D02*
X165388871Y-72478196D01*
X168488867Y-71228190D02*
X167268867Y-72478192D01*
%TO.C,S29*%
X203901729Y-173562227D02*
X204793377Y-175064179D01*
X204793377Y-175064179D02*
X204306802Y-176880122D01*
%TO.C,S6*%
X87258856Y-117483189D02*
X85378860Y-117483193D01*
X88478856Y-116233187D02*
X87258856Y-117483189D01*
%TO.C,S22*%
X167268858Y-112483191D02*
X165388862Y-112483195D01*
X168488858Y-111233189D02*
X167268858Y-112483191D01*
%TO.C,S15*%
X127263870Y-87480694D02*
X125383874Y-87480698D01*
X128483870Y-86230692D02*
X127263870Y-87480694D01*
%TO.C,S10*%
X107261352Y-112483197D02*
X105381356Y-112483201D01*
X108481352Y-111233195D02*
X107261352Y-112483197D01*
%TO.C,S2*%
X67256363Y-117483192D02*
X65376367Y-117483196D01*
X68476363Y-116233190D02*
X67256363Y-117483192D01*
%TO.C,S26*%
X168579212Y-153805317D02*
X166727770Y-153478861D01*
X169997739Y-152786158D02*
X168579212Y-153805317D01*
%TD*%
M02*
