M48
; DRILL file {KiCad 9.0.4} date 2025-11-27T19:32:48+0100
; FORMAT={-:-/ absolute / metric / decimal}
; #@! TF.CreationDate,2025-11-27T19:32:48+01:00
; #@! TF.GenerationSoftware,Kicad,Pcbnew,9.0.4
; #@! TF.FileFunction,Plated,1,2,PTH
FMAT,2
METRIC
; #@! TA.AperFunction,Plated,PTH,ViaDrill
T1C0.300
; #@! TA.AperFunction,Plated,PTH,ComponentDrill
T2C0.400
; #@! TA.AperFunction,Plated,PTH,ComponentDrill
T3C0.500
; #@! TA.AperFunction,Plated,PTH,ComponentDrill
T4C0.750
; #@! TA.AperFunction,Plated,PTH,ComponentDrill
T5C0.900
; #@! TA.AperFunction,Plated,PTH,ComponentDrill
T6C1.000
; #@! TA.AperFunction,Plated,PTH,ComponentDrill
T7C1.500
; #@! TA.AperFunction,Plated,PTH,ComponentDrill
T8C2.000
; #@! TA.AperFunction,Plated,PTH,ComponentDrill
T9C2.200
%
G90
G05
T1
X59.506Y-134.926
X59.506Y-74.918
X59.506Y-114.923
X59.506Y-94.921
X64.406Y-84.998
X64.406Y-145.006
X64.406Y-105.001
X64.406Y-125.003
X70.106Y-84.998
X70.106Y-125.003
X70.106Y-105.001
X70.106Y-145.006
X75.006Y-74.918
X75.006Y-94.921
X75.006Y-114.923
X75.006Y-134.926
X79.509Y-134.926
X79.509Y-114.923
X79.509Y-74.918
X79.509Y-94.921
X84.409Y-84.998
X84.409Y-105.001
X84.409Y-145.006
X84.409Y-125.003
X90.109Y-125.003
X90.109Y-145.006
X90.109Y-105.001
X90.109Y-84.998
X95.009Y-114.923
X95.009Y-74.918
X95.009Y-94.921
X95.009Y-134.926
X99.511Y-109.923
X99.511Y-129.926
X99.511Y-89.921
X99.511Y-69.918
X104.411Y-140.006
X104.411Y-100.001
X104.411Y-79.998
X104.411Y-120.003
X110.111Y-140.006
X110.111Y-79.998
X110.111Y-100.001
X110.111Y-120.003
X115.011Y-89.921
X115.011Y-129.926
X115.011Y-69.918
X115.011Y-109.923
X119.514Y-104.923
X119.514Y-124.926
X119.514Y-64.918
X119.514Y-84.921
X124.414Y-74.998
X124.414Y-135.006
X124.414Y-115.003
X124.414Y-95.001
X130.114Y-115.003
X130.114Y-135.006
X130.114Y-74.998
X130.114Y-95.001
X135.014Y-84.921
X135.014Y-104.923
X135.014Y-64.918
X135.014Y-124.926
X139.516Y-67.418
X139.516Y-127.426
X139.516Y-87.421
X139.516Y-107.423
X139.989Y-148.725
X143.991Y-159.193
X144.416Y-137.506
X144.416Y-117.503
X144.416Y-77.498
X144.416Y-97.501
X149.67Y-159.69
X150.116Y-97.501
X150.116Y-137.506
X150.116Y-117.503
X150.116Y-77.498
X155.016Y-107.423
X155.016Y-87.421
X155.016Y-67.418
X155.016Y-127.426
X155.43Y-150.075
X159.519Y-89.921
X159.519Y-109.923
X159.519Y-129.926
X159.519Y-69.918
X161.391Y-149.938
X164.419Y-100.001
X164.419Y-120.003
X164.419Y-79.998
X164.419Y-140.006
X164.467Y-160.716
X167.332Y-64.616
X169.638Y-59.822
X170.08Y-161.706
X170.119Y-140.006
X170.119Y-79.998
X170.119Y-100.001
X170.119Y-120.003
X175.019Y-69.918
X175.019Y-109.923
X175.019Y-89.921
X175.019Y-129.926
X175.931Y-102.715
X175.931Y-103.715
X175.931Y-105.715
X175.931Y-101.715
X175.931Y-104.715
X176.656Y-152.63
X177.43Y-172.334
X179.431Y-143.715
X179.554Y-183.339
X182.607Y-153.013
X184.731Y-164.018
X185.06Y-184.814
X185.61Y-98.697
X187.419Y-127.998
X188.15Y-99.715
X188.15Y-98.697
X190.237Y-165.493
X190.931Y-100.215
X192.402Y-176.346
X193.119Y-127.998
X193.47Y-120.176
X197.579Y-157.025
X200.315Y-181.888
X204.326Y-166.916
X211.32Y-179.763
X212.795Y-174.258
T2
X184.869Y-70.918
X184.869Y-78.538
X184.869Y-83.618
X184.869Y-65.838
X184.869Y-75.998
X184.869Y-88.698
X184.869Y-91.238
X184.869Y-68.378
X184.869Y-81.078
X184.869Y-86.158
X184.869Y-73.458
X184.869Y-63.298
X191.669Y-88.698
X191.669Y-78.538
X191.669Y-65.838
X191.669Y-70.918
X191.669Y-83.618
X191.669Y-63.298
X191.669Y-75.998
X191.669Y-86.158
X191.669Y-91.238
X191.669Y-68.378
X191.669Y-73.458
X191.669Y-81.078
T4
X193.269Y-107.998
X193.269Y-109.998
T6
X180.649Y-68.378
X180.649Y-86.158
X180.649Y-83.618
X180.649Y-65.838
X180.649Y-75.998
X180.649Y-88.698
X180.649Y-63.298
X180.649Y-73.458
X180.649Y-78.538
X180.649Y-81.078
X180.649Y-91.238
X180.649Y-70.918
X184.269Y-105.748
X184.269Y-112.248
X184.459Y-96.298
X186.999Y-96.298
X189.539Y-96.298
X192.079Y-96.298
X195.889Y-81.078
X195.889Y-70.918
X195.889Y-91.238
X195.889Y-73.458
X195.889Y-78.538
X195.889Y-88.698
X195.889Y-63.298
X195.889Y-75.998
X195.889Y-86.158
X195.889Y-68.378
X195.889Y-65.838
X195.889Y-83.618
X196.393Y-186.013
X198.325Y-186.531
X200.257Y-187.048
X202.189Y-187.566
X202.993Y-161.382
X204.121Y-188.084
X204.925Y-161.9
X206.053Y-188.601
X206.857Y-162.417
X208.789Y-162.935
X210.721Y-163.453
X212.652Y-163.97
T8
X212.626Y-186.48
X217.284Y-169.094
T9
X77.258Y-89.999
X77.258Y-130.004
X137.265Y-121.254
X157.268Y-83.749
X175.871Y-167.767
T3
X187.519Y-145.498G85X188.019Y-145.498
G05
X187.519Y-130.998G85X188.019Y-130.998
G05
X190.019Y-145.498G85X190.519Y-145.498
G05
X192.519Y-130.998G85X193.019Y-130.998
G05
X192.519Y-145.498G85X193.019Y-145.498
G05
T5
X188.369Y-117.698G85X186.669Y-117.698
G05
X188.369Y-122.298G85X186.669Y-122.298
G05
X192.369Y-122.298G85X191.769Y-122.298
G05
X192.369Y-117.698G85X191.769Y-117.698
G05
X195.369Y-117.698G85X194.769Y-117.698
G05
X195.369Y-122.298G85X194.769Y-122.298
G05
T7
X184.669Y-137.598G85X184.669Y-138.398
G05
X195.869Y-137.598G85X195.869Y-138.398
G05
M30
