M48
; DRILL file {KiCad 9.0.4} date 2025-11-27T19:32:48+0100
; FORMAT={-:-/ absolute / metric / decimal}
; #@! TF.CreationDate,2025-11-27T19:32:48+01:00
; #@! TF.GenerationSoftware,Kicad,Pcbnew,9.0.4
; #@! TF.FileFunction,NonPlated,1,2,NPTH
FMAT,2
METRIC
; #@! TA.AperFunction,NonPlated,NPTH,ComponentDrill
T1C0.900
; #@! TA.AperFunction,NonPlated,NPTH,ComponentDrill
T2C1.500
; #@! TA.AperFunction,NonPlated,NPTH,ComponentDrill
T3C1.900
; #@! TA.AperFunction,NonPlated,NPTH,ComponentDrill
T4C3.000
; #@! TA.AperFunction,NonPlated,NPTH,ComponentDrill
T5C4.100
%
G90
G05
T1
X165.769Y-61.143
X165.769Y-61.143
X168.769Y-61.143
X168.769Y-61.143
T2
X189.669Y-119.998
X196.669Y-119.998
T3
X62.176Y-79.998
X62.176Y-140.006
X62.176Y-120.003
X62.176Y-100.001
X72.336Y-79.998
X72.336Y-140.006
X72.336Y-120.003
X72.336Y-100.001
X82.179Y-120.003
X82.179Y-79.998
X82.179Y-100.001
X82.179Y-140.006
X92.339Y-120.003
X92.339Y-79.998
X92.339Y-100.001
X92.339Y-140.006
X102.181Y-115.003
X102.181Y-95.001
X102.181Y-74.998
X102.181Y-135.006
X112.341Y-115.003
X112.341Y-95.001
X112.341Y-74.998
X112.341Y-135.006
X122.184Y-69.998
X122.184Y-130.006
X122.184Y-110.003
X122.184Y-90.001
X132.344Y-69.998
X132.344Y-130.006
X132.344Y-110.003
X132.344Y-90.001
X142.186Y-92.501
X142.186Y-72.498
X142.186Y-112.503
X142.186Y-132.506
X142.206Y-154.018
X152.327Y-154.903
X152.346Y-92.501
X152.346Y-72.498
X152.346Y-112.503
X152.346Y-132.506
X162.189Y-115.003
X162.189Y-135.006
X162.189Y-74.998
X162.189Y-95.001
X163.139Y-155.405
X172.349Y-115.003
X172.349Y-135.006
X172.349Y-74.998
X172.349Y-95.001
X173.144Y-157.169
X178.694Y-177.932
X183.871Y-158.611
X188.508Y-180.562
X193.685Y-161.241
X205.913Y-180.623
X208.542Y-170.809
T4
X63.446Y-77.458
X63.446Y-137.466
X63.446Y-117.463
X63.446Y-97.461
X64.716Y-74.918
X64.716Y-134.926
X64.716Y-114.923
X64.716Y-94.921
X69.796Y-74.918
X69.796Y-134.926
X69.796Y-114.923
X69.796Y-94.921
X71.066Y-77.458
X71.066Y-137.466
X71.066Y-117.463
X71.066Y-97.461
X83.449Y-117.463
X83.449Y-77.458
X83.449Y-97.461
X83.449Y-137.466
X84.719Y-114.923
X84.719Y-74.918
X84.719Y-94.921
X84.719Y-134.926
X89.799Y-114.923
X89.799Y-74.918
X89.799Y-94.921
X89.799Y-134.926
X91.069Y-117.463
X91.069Y-77.458
X91.069Y-97.461
X91.069Y-137.466
X103.451Y-112.463
X103.451Y-92.461
X103.451Y-72.458
X103.451Y-132.466
X104.721Y-109.923
X104.721Y-89.921
X104.721Y-69.918
X104.721Y-129.926
X109.801Y-109.923
X109.801Y-89.921
X109.801Y-69.918
X109.801Y-129.926
X111.071Y-112.463
X111.071Y-92.461
X111.071Y-72.458
X111.071Y-132.466
X123.454Y-67.458
X123.454Y-127.466
X123.454Y-107.463
X123.454Y-87.461
X124.724Y-64.918
X124.724Y-124.926
X124.724Y-104.923
X124.724Y-84.921
X129.804Y-64.918
X129.804Y-124.926
X129.804Y-104.923
X129.804Y-84.921
X131.074Y-67.458
X131.074Y-127.466
X131.074Y-107.463
X131.074Y-87.461
X143.456Y-89.961
X143.456Y-69.958
X143.456Y-109.963
X143.456Y-129.966
X143.692Y-151.598
X144.726Y-87.421
X144.726Y-67.418
X144.726Y-107.423
X144.726Y-127.426
X145.179Y-149.179
X149.806Y-87.421
X149.806Y-67.418
X149.806Y-107.423
X149.806Y-127.426
X150.239Y-149.621
X151.076Y-89.961
X151.076Y-69.958
X151.076Y-109.963
X151.076Y-129.966
X151.283Y-152.262
X163.459Y-112.463
X163.459Y-132.466
X163.459Y-72.458
X163.459Y-92.461
X164.729Y-109.923
X164.729Y-129.926
X164.729Y-69.918
X164.729Y-89.921
X164.831Y-153.124
X166.522Y-150.843
X169.809Y-109.923
X169.809Y-129.926
X169.809Y-69.918
X169.809Y-89.921
X171.079Y-112.463
X171.079Y-132.466
X171.079Y-72.458
X171.079Y-92.461
X171.525Y-151.725
X172.335Y-154.447
X180.578Y-175.807
X182.463Y-173.682
X185.755Y-156.486
X187.369Y-174.997
X187.64Y-154.362
X187.939Y-177.779
X192.547Y-155.676
X193.116Y-158.458
X201.663Y-176.855
X202.978Y-171.948
X203.788Y-178.739
X205.76Y-171.379
T5
X67.256Y-79.998
X67.256Y-140.006
X67.256Y-120.003
X67.256Y-100.001
X87.259Y-120.003
X87.259Y-79.998
X87.259Y-100.001
X87.259Y-140.006
X107.261Y-115.003
X107.261Y-95.001
X107.261Y-74.998
X107.261Y-135.006
X127.264Y-69.998
X127.264Y-130.006
X127.264Y-110.003
X127.264Y-90.001
X147.266Y-92.501
X147.266Y-154.461
X147.266Y-72.498
X147.266Y-112.503
X147.266Y-132.506
X167.269Y-115.003
X167.269Y-135.006
X167.269Y-74.998
X167.269Y-95.001
X168.142Y-156.287
X183.601Y-179.247
X188.778Y-159.926
X207.228Y-175.716
M30
