%TF.GenerationSoftware,KiCad,Pcbnew,9.0.4*%
%TF.CreationDate,2025-11-27T19:30:42+01:00*%
%TF.ProjectId,lag_large,6c61675f-6c61-4726-9765-2e6b69636164,v1.0.0*%
%TF.SameCoordinates,Original*%
%TF.FileFunction,Soldermask,Bot*%
%TF.FilePolarity,Negative*%
%FSLAX46Y46*%
G04 Gerber Fmt 4.6, Leading zero omitted, Abs format (unit mm)*
G04 Created by KiCad (PCBNEW 9.0.4) date 2025-11-27 19:30:42*
%MOMM*%
%LPD*%
G01*
G04 APERTURE LIST*
G04 Aperture macros list*
%AMRoundRect*
0 Rectangle with rounded corners*
0 $1 Rounding radius*
0 $2 $3 $4 $5 $6 $7 $8 $9 X,Y pos of 4 corners*
0 Add a 4 corners polygon primitive as box body*
4,1,4,$2,$3,$4,$5,$6,$7,$8,$9,$2,$3,0*
0 Add four circle primitives for the rounded corners*
1,1,$1+$1,$2,$3*
1,1,$1+$1,$4,$5*
1,1,$1+$1,$6,$7*
1,1,$1+$1,$8,$9*
0 Add four rect primitives between the rounded corners*
20,1,$1+$1,$2,$3,$4,$5,0*
20,1,$1+$1,$4,$5,$6,$7,0*
20,1,$1+$1,$6,$7,$8,$9,0*
20,1,$1+$1,$8,$9,$2,$3,0*%
%AMHorizOval*
0 Thick line with rounded ends*
0 $1 width*
0 $2 $3 position (X,Y) of the first rounded end (center of the circle)*
0 $4 $5 position (X,Y) of the second rounded end (center of the circle)*
0 Add line between two ends*
20,1,$1,$2,$3,$4,$5,0*
0 Add two circle primitives to create the rounded ends*
1,1,$1,$2,$3*
1,1,$1,$4,$5*%
%AMFreePoly0*
4,1,15,0.975355,0.935355,1.335355,0.575355,1.350000,0.540000,1.350000,-0.900000,1.335355,-0.935355,1.300000,-0.950000,-1.300000,-0.950000,-1.335355,-0.935355,-1.350000,-0.900000,-1.350000,0.540000,-1.335355,0.575355,-0.975355,0.935355,-0.940000,0.950000,0.940000,0.950000,0.975355,0.935355,0.975355,0.935355,$1*%
%AMFreePoly1*
4,1,15,1.335355,0.935355,1.350000,0.900000,1.350000,-0.540000,1.335355,-0.575355,0.975355,-0.935355,0.940000,-0.950000,-0.940000,-0.950000,-0.975355,-0.935355,-1.335355,-0.575355,-1.350000,-0.540000,-1.350000,0.900000,-1.335355,0.935355,-1.300000,0.950000,1.300000,0.950000,1.335355,0.935355,1.335355,0.935355,$1*%
%AMFreePoly2*
4,1,16,-0.214645,0.660355,-0.210957,0.656235,0.289043,0.031235,0.299694,-0.005522,0.289043,-0.031235,-0.210957,-0.656235,-0.244478,-0.674694,-0.250000,-0.675000,-0.500000,-0.675000,-0.535355,-0.660355,-0.550000,-0.625000,-0.550000,0.625000,-0.535355,0.660355,-0.500000,0.675000,-0.250000,0.675000,-0.214645,0.660355,-0.214645,0.660355,$1*%
%AMFreePoly3*
4,1,16,0.535355,0.660355,0.550000,0.625000,0.550000,-0.625000,0.535355,-0.660355,0.500000,-0.675000,-0.650000,-0.675000,-0.685355,-0.660355,-0.700000,-0.625000,-0.689043,-0.593765,-0.214031,0.000000,-0.689043,0.593765,-0.699694,0.630522,-0.681235,0.664043,-0.650000,0.675000,0.500000,0.675000,0.535355,0.660355,0.535355,0.660355,$1*%
%AMFreePoly4*
4,1,14,1.310355,1.285355,1.325000,1.250000,1.325000,-1.250000,1.310355,-1.285355,1.275000,-1.300000,-0.775000,-1.300000,-0.810355,-1.285355,-1.310355,-0.785355,-1.325000,-0.750000,-1.325000,1.250000,-1.310355,1.285355,-1.275000,1.300000,1.275000,1.300000,1.310355,1.285355,1.310355,1.285355,$1*%
G04 Aperture macros list end*
%ADD10RoundRect,0.050000X-0.450000X-0.600000X0.450000X-0.600000X0.450000X0.600000X-0.450000X0.600000X0*%
%ADD11RoundRect,0.050000X-0.547352X-0.512743X0.338975X-0.669026X0.547352X0.512743X-0.338975X0.669026X0*%
%ADD12O,1.800000X1.800000*%
%ADD13RoundRect,0.050000X0.600000X-0.300000X0.600000X0.300000X-0.600000X0.300000X-0.600000X-0.300000X0*%
%ADD14RoundRect,0.050000X-0.500581X-0.558497X0.395994X-0.636937X0.500581X0.558497X-0.395994X0.636937X0*%
%ADD15RoundRect,0.050000X-0.589958X-0.463087X0.279375X-0.696024X0.589958X0.463087X-0.279375X0.696024X0*%
%ADD16FreePoly0,270.000000*%
%ADD17FreePoly1,270.000000*%
%ADD18O,1.700000X1.200000*%
%ADD19HorizOval,1.370000X-0.164350X-0.613363X0.164350X0.613363X0*%
%ADD20HorizOval,1.370000X0.164350X0.613363X-0.164350X-0.613363X0*%
%ADD21C,3.100000*%
%ADD22C,3.900000*%
%ADD23C,1.600000*%
%ADD24O,2.300000X1.700000*%
%ADD25O,3.400000X1.700000*%
%ADD26FreePoly2,180.000000*%
%ADD27C,1.800000*%
%ADD28FreePoly2,0.000000*%
%ADD29FreePoly3,0.000000*%
%ADD30C,0.900000*%
%ADD31FreePoly3,180.000000*%
%ADD32RoundRect,0.270833X0.654167X-0.379167X0.654167X0.379167X-0.654167X0.379167X-0.654167X-0.379167X0*%
%ADD33O,1.850000X1.300000*%
%ADD34RoundRect,0.050000X0.500000X0.400000X-0.500000X0.400000X-0.500000X-0.400000X0.500000X-0.400000X0*%
%ADD35RoundRect,0.050000X0.350000X0.750000X-0.350000X0.750000X-0.350000X-0.750000X0.350000X-0.750000X0*%
%ADD36C,1.000000*%
%ADD37RoundRect,0.050000X0.463087X-0.589958X0.696024X0.279375X-0.463087X0.589958X-0.696024X-0.279375X0*%
%ADD38C,2.000000*%
%ADD39C,4.200000*%
%ADD40RoundRect,0.050000X-1.275000X-1.250000X1.275000X-1.250000X1.275000X1.250000X-1.275000X1.250000X0*%
%ADD41FreePoly4,0.000000*%
%ADD42RoundRect,0.050000X-1.555079X-0.877413X0.908032X-1.537402X1.555079X0.877413X-0.908032X1.537402X0*%
%ADD43FreePoly4,345.000000*%
%ADD44RoundRect,0.050000X-1.379093X-1.134120X1.161204X-1.356367X1.379093X1.134120X-1.161204X1.356367X0*%
%ADD45FreePoly4,355.000000*%
%ADD46RoundRect,0.050000X0.877413X-1.555079X1.537402X0.908032X-0.877413X1.555079X-1.537402X-0.908032X0*%
%ADD47FreePoly4,75.000000*%
%ADD48RoundRect,0.050000X-1.472690X-1.009608X1.038570X-1.452411X1.472690X1.009608X-1.038570X1.452411X0*%
%ADD49FreePoly4,350.000000*%
G04 APERTURE END LIST*
D10*
%TO.C,D10*%
X105611375Y-120003198D03*
X108911377Y-120003198D03*
%TD*%
D11*
%TO.C,D26*%
X165648449Y-160924563D03*
X168898315Y-161497601D03*
%TD*%
D12*
%TO.C,S30*%
X184268864Y-105748192D03*
X184268868Y-112248204D03*
%TD*%
%TO.C,DISP1*%
X192078850Y-96298189D03*
X189538854Y-96298188D03*
X186998857Y-96298188D03*
X184458858Y-96298187D03*
D13*
X184458854Y-98148189D03*
X186998857Y-98148176D03*
X189538859Y-98148188D03*
X192078857Y-98148187D03*
X184458856Y-99048187D03*
X186998855Y-99048191D03*
X189538855Y-99048188D03*
X192078858Y-99048185D03*
%TD*%
D14*
%TO.C,D25*%
X145186856Y-159297858D03*
X148474302Y-159585472D03*
%TD*%
D15*
%TO.C,D28*%
X180713378Y-183649352D03*
X183900934Y-184503452D03*
%TD*%
D10*
%TO.C,D23*%
X165618863Y-100000685D03*
X168918865Y-100000685D03*
%TD*%
%TO.C,D7*%
X85608863Y-105000689D03*
X88908865Y-105000689D03*
%TD*%
%TO.C,D16*%
X125613877Y-74998188D03*
X128913879Y-74998188D03*
%TD*%
%TO.C,D11*%
X105611370Y-100000685D03*
X108911372Y-100000685D03*
%TD*%
%TO.C,D8*%
X85608860Y-84998198D03*
X88908862Y-84998198D03*
%TD*%
%TO.C,D17*%
X145616360Y-137505686D03*
X148916362Y-137505686D03*
%TD*%
D16*
%TO.C,RE1*%
X184668849Y-137998194D03*
D17*
X195868847Y-137998194D03*
D18*
X192768852Y-145498192D03*
X190268847Y-145498193D03*
X187768845Y-145498195D03*
X187768854Y-130998195D03*
X192768848Y-130998197D03*
%TD*%
D10*
%TO.C,D12*%
X105611357Y-79998195D03*
X108911359Y-79998195D03*
%TD*%
D19*
%TO.C,XX1*%
X212652482Y-163970250D03*
X210720635Y-163452613D03*
X208788778Y-162934975D03*
X206856927Y-162417339D03*
X204925075Y-161899700D03*
D20*
X202993225Y-161382058D03*
D21*
X212625538Y-186480289D03*
%TD*%
D10*
%TO.C,D22*%
X165618860Y-120003179D03*
X168918862Y-120003179D03*
%TD*%
%TO.C,D5*%
X85608866Y-145005688D03*
X88908868Y-145005688D03*
%TD*%
D22*
%TO.C,H3*%
X77257621Y-130004429D03*
%TD*%
%TO.C,H2*%
X157267623Y-83749448D03*
%TD*%
D10*
%TO.C,D3*%
X65606365Y-105000694D03*
X68906367Y-105000694D03*
%TD*%
D23*
%TO.C,TRRS1*%
X196668878Y-119998190D03*
X189668880Y-119998193D03*
D24*
X195068879Y-117698194D03*
X195068882Y-122298193D03*
X192068881Y-117698190D03*
X192068879Y-122298191D03*
D25*
X187518876Y-117698194D03*
X187518880Y-122298193D03*
%TD*%
D10*
%TO.C,D24*%
X165618859Y-79998171D03*
X168918861Y-79998171D03*
%TD*%
D26*
%TO.C,MCU1*%
X193768865Y-63298202D03*
D27*
X195888867Y-63298202D03*
D26*
X193768866Y-65838194D03*
D27*
X195888873Y-65838197D03*
D26*
X193768864Y-68378203D03*
D27*
X195888868Y-68378196D03*
D26*
X193768868Y-70918203D03*
D27*
X195888863Y-70918203D03*
D26*
X193768868Y-73458203D03*
D27*
X195888866Y-73458202D03*
D26*
X193768865Y-75998197D03*
D27*
X195888867Y-75998203D03*
D26*
X193768866Y-78538198D03*
D27*
X195888866Y-78538204D03*
D26*
X193768867Y-81078202D03*
D27*
X195888860Y-81078202D03*
D26*
X193768867Y-83618201D03*
D27*
X195888873Y-83618203D03*
D26*
X193768867Y-86158205D03*
D27*
X195888867Y-86158202D03*
D26*
X193768866Y-88698204D03*
D27*
X195888866Y-88698200D03*
D26*
X193768869Y-91238206D03*
D27*
X195888864Y-91238199D03*
X180648871Y-91238206D03*
D28*
X182768867Y-91238205D03*
D27*
X180648867Y-88698202D03*
D28*
X182768869Y-88698202D03*
D27*
X180648861Y-86158207D03*
D28*
X182768868Y-86158210D03*
D27*
X180648866Y-83618208D03*
D28*
X182768870Y-83618201D03*
D27*
X180648871Y-81078201D03*
D28*
X182768866Y-81078201D03*
D27*
X180648868Y-78538202D03*
D28*
X182768866Y-78538201D03*
D27*
X180648867Y-75998201D03*
D28*
X182768869Y-75998207D03*
D27*
X180648868Y-73458200D03*
D28*
X182768868Y-73458206D03*
D27*
X180648874Y-70918202D03*
D28*
X182768867Y-70918202D03*
D27*
X180648861Y-68378201D03*
D28*
X182768867Y-68378203D03*
D27*
X180648867Y-65838202D03*
D28*
X182768867Y-65838199D03*
D27*
X180648868Y-63298204D03*
D28*
X182768868Y-63298200D03*
D29*
X183493865Y-63298206D03*
D30*
X191668868Y-63298202D03*
D29*
X183493867Y-65838202D03*
D30*
X191668866Y-65838201D03*
D29*
X183493865Y-68378202D03*
D30*
X191668869Y-68378202D03*
D29*
X183493867Y-70918208D03*
D30*
X191668867Y-70918204D03*
D29*
X183493867Y-73458200D03*
D30*
X191668869Y-73458202D03*
D29*
X183493866Y-75998202D03*
D30*
X191668868Y-75998197D03*
D29*
X183493868Y-78538204D03*
D30*
X191668865Y-78538203D03*
D29*
X183493868Y-81078201D03*
D30*
X191668869Y-81078203D03*
D29*
X183493866Y-83618203D03*
D30*
X191668867Y-83618200D03*
D29*
X183493869Y-86158203D03*
D30*
X191668868Y-86158201D03*
D29*
X183493868Y-88698203D03*
D30*
X191668861Y-88698200D03*
D29*
X183493866Y-91238202D03*
D30*
X191668868Y-91238201D03*
X184868866Y-91238205D03*
D31*
X193043868Y-91238203D03*
D30*
X184868866Y-88698202D03*
D31*
X193043869Y-88698198D03*
D30*
X184868868Y-86158203D03*
D31*
X193043867Y-86158202D03*
D30*
X184868865Y-83618202D03*
D31*
X193043869Y-83618202D03*
D30*
X184868867Y-81078200D03*
D31*
X193043867Y-81078196D03*
D30*
X184868865Y-78538202D03*
D31*
X193043867Y-78538204D03*
D30*
X184868866Y-75998207D03*
D31*
X193043868Y-75998202D03*
D30*
X184868869Y-73458201D03*
D31*
X193043866Y-73458200D03*
D30*
X184868865Y-70918201D03*
D31*
X193043866Y-70918203D03*
D30*
X184868867Y-68378204D03*
D31*
X193043868Y-68378201D03*
D30*
X184868866Y-65838203D03*
D31*
X193043865Y-65838201D03*
D30*
X184868873Y-63298204D03*
D31*
X193043866Y-63298201D03*
%TD*%
D10*
%TO.C,D2*%
X65606372Y-125003193D03*
X68906374Y-125003193D03*
%TD*%
D32*
%TO.C,_30*%
X193268859Y-109998196D03*
D33*
X193268857Y-107998195D03*
%TD*%
D10*
%TO.C,D18*%
X145616369Y-117503191D03*
X148916371Y-117503191D03*
%TD*%
D22*
%TO.C,H4*%
X137265104Y-121254437D03*
%TD*%
%TO.C,H5*%
X175871428Y-167766906D03*
%TD*%
D10*
%TO.C,D19*%
X145616356Y-97500687D03*
X148916358Y-97500687D03*
%TD*%
D34*
%TO.C,T1*%
X170918875Y-62253193D03*
X170918873Y-60043187D03*
D35*
X169518873Y-62903185D03*
D36*
X168768869Y-61143190D03*
X168768869Y-61143190D03*
X165768872Y-61143189D03*
X165768872Y-61143189D03*
D34*
X163618872Y-62253189D03*
X163618871Y-60043189D03*
D35*
X165018870Y-62903192D03*
X168018873Y-62903191D03*
%TD*%
D10*
%TO.C,D14*%
X125613864Y-115003186D03*
X128913866Y-115003186D03*
%TD*%
D15*
%TO.C,D27*%
X185890396Y-164328419D03*
X189077952Y-165182519D03*
%TD*%
D10*
%TO.C,D4*%
X65606352Y-84998197D03*
X68906354Y-84998197D03*
%TD*%
D22*
%TO.C,H1*%
X77257618Y-89999449D03*
%TD*%
D10*
%TO.C,D9*%
X105611360Y-140005701D03*
X108911362Y-140005701D03*
%TD*%
%TO.C,D30*%
X188618853Y-127998186D03*
X191918855Y-127998186D03*
%TD*%
%TO.C,D21*%
X165618857Y-140005692D03*
X168918859Y-140005692D03*
%TD*%
D19*
%TO.C,XX2*%
X206052619Y-188601364D03*
X204120769Y-188083726D03*
X202188912Y-187566082D03*
X200257065Y-187048448D03*
X198325212Y-186530811D03*
D20*
X196393361Y-186013172D03*
D21*
X217284304Y-169093625D03*
%TD*%
D10*
%TO.C,D15*%
X125613859Y-95000691D03*
X128913861Y-95000691D03*
%TD*%
D37*
%TO.C,D29*%
X211630102Y-178604276D03*
X212484202Y-175416720D03*
%TD*%
D10*
%TO.C,D13*%
X125613851Y-135005680D03*
X128913853Y-135005680D03*
%TD*%
%TO.C,D20*%
X145616354Y-77498173D03*
X148916356Y-77498173D03*
%TD*%
%TO.C,D6*%
X85608864Y-125003182D03*
X88908866Y-125003182D03*
%TD*%
%TO.C,D1*%
X65606372Y-145005693D03*
X68906374Y-145005693D03*
%TD*%
D38*
%TO.C,S16*%
X122183858Y-69998185D03*
D21*
X123453862Y-67458185D03*
X124723858Y-64918184D03*
D39*
X127263858Y-69998185D03*
D21*
X129803857Y-64918179D03*
X131073858Y-67458184D03*
D38*
X132343858Y-69998185D03*
D40*
X120178860Y-67458182D03*
D41*
X133105854Y-64918186D03*
%TD*%
D38*
%TO.C,S1*%
X62176358Y-140005695D03*
D21*
X63446362Y-137465695D03*
X64716358Y-134925694D03*
D39*
X67256358Y-140005695D03*
D21*
X69796357Y-134925689D03*
X71066358Y-137465694D03*
D38*
X72336358Y-140005695D03*
D40*
X60171360Y-137465692D03*
D41*
X73098354Y-134925696D03*
%TD*%
D38*
%TO.C,S14*%
X122183861Y-110003191D03*
D21*
X123453865Y-107463191D03*
X124723861Y-104923190D03*
D39*
X127263861Y-110003191D03*
D21*
X129803860Y-104923185D03*
X131073861Y-107463190D03*
D38*
X132343861Y-110003191D03*
D40*
X120178863Y-107463188D03*
D41*
X133105857Y-104923192D03*
%TD*%
D38*
%TO.C,S7*%
X82178859Y-100000678D03*
D21*
X83448863Y-97460678D03*
X84718859Y-94920677D03*
D39*
X87258859Y-100000678D03*
D21*
X89798858Y-94920672D03*
X91068859Y-97460677D03*
D38*
X92338859Y-100000678D03*
D40*
X80173861Y-97460675D03*
D41*
X93100855Y-94920679D03*
%TD*%
D38*
%TO.C,S20*%
X142186364Y-72498199D03*
D21*
X143456368Y-69958199D03*
X144726364Y-67418198D03*
D39*
X147266364Y-72498199D03*
D21*
X149806363Y-67418193D03*
X151076364Y-69958198D03*
D38*
X152346364Y-72498199D03*
D40*
X140181366Y-69958196D03*
D41*
X153108360Y-67418200D03*
%TD*%
D38*
%TO.C,S27*%
X183871369Y-158611032D03*
D21*
X185755495Y-156486279D03*
X187639621Y-154361530D03*
D39*
X188778273Y-159925832D03*
D21*
X192546524Y-155676328D03*
X193115853Y-158458480D03*
D38*
X193685177Y-161240632D03*
D42*
X182592091Y-155638645D03*
D43*
X195736012Y-156530948D03*
%TD*%
D38*
%TO.C,S17*%
X142186373Y-132505698D03*
D21*
X143456377Y-129965698D03*
X144726373Y-127425697D03*
D39*
X147266373Y-132505698D03*
D21*
X149806372Y-127425692D03*
X151076373Y-129965697D03*
D38*
X152346373Y-132505698D03*
D40*
X140181375Y-129965695D03*
D41*
X153108369Y-127425699D03*
%TD*%
D38*
%TO.C,S19*%
X142186354Y-92500680D03*
D21*
X143456358Y-89960680D03*
X144726354Y-87420679D03*
D39*
X147266354Y-92500680D03*
D21*
X149806353Y-87420674D03*
X151076354Y-89960679D03*
D38*
X152346354Y-92500680D03*
D40*
X140181356Y-89960677D03*
D41*
X153108350Y-87420681D03*
%TD*%
D38*
%TO.C,S12*%
X102181371Y-74998181D03*
D21*
X103451375Y-72458181D03*
X104721371Y-69918180D03*
D39*
X107261371Y-74998181D03*
D21*
X109801370Y-69918175D03*
X111071371Y-72458180D03*
D38*
X112341371Y-74998181D03*
D40*
X100176373Y-72458178D03*
D41*
X113103367Y-69918182D03*
%TD*%
D38*
%TO.C,S25*%
X142205688Y-154017935D03*
D21*
X143692231Y-151598286D03*
X145178775Y-149178639D03*
D39*
X147266358Y-154460684D03*
D21*
X150239442Y-149621387D03*
X151283236Y-152262412D03*
D38*
X152327028Y-154903433D03*
D44*
X140429692Y-151312851D03*
D45*
X153528881Y-149909180D03*
%TD*%
D38*
%TO.C,S21*%
X162188867Y-135005686D03*
D21*
X163458871Y-132465686D03*
X164728867Y-129925685D03*
D39*
X167268867Y-135005686D03*
D21*
X169808866Y-129925680D03*
X171078867Y-132465685D03*
D38*
X172348867Y-135005686D03*
D40*
X160183869Y-132465683D03*
D41*
X173110863Y-129925687D03*
%TD*%
D38*
%TO.C,S11*%
X102181363Y-95000683D03*
D21*
X103451367Y-92460683D03*
X104721363Y-89920682D03*
D39*
X107261363Y-95000683D03*
D21*
X109801362Y-89920677D03*
X111071363Y-92460682D03*
D38*
X112341363Y-95000683D03*
D40*
X100176365Y-92460680D03*
D41*
X113103359Y-89920684D03*
%TD*%
D38*
%TO.C,S4*%
X62176358Y-79998183D03*
D21*
X63446362Y-77458183D03*
X64716358Y-74918182D03*
D39*
X67256358Y-79998183D03*
D21*
X69796357Y-74918177D03*
X71066358Y-77458182D03*
D38*
X72336358Y-79998183D03*
D40*
X60171360Y-77458180D03*
D41*
X73098354Y-74918184D03*
%TD*%
D38*
%TO.C,S5*%
X82178865Y-140005673D03*
D21*
X83448869Y-137465673D03*
X84718865Y-134925672D03*
D39*
X87258865Y-140005673D03*
D21*
X89798864Y-134925667D03*
X91068865Y-137465672D03*
D38*
X92338865Y-140005673D03*
D40*
X80173867Y-137465670D03*
D41*
X93100861Y-134925674D03*
%TD*%
D38*
%TO.C,S3*%
X62176374Y-100000691D03*
D21*
X63446378Y-97460691D03*
X64716374Y-94920690D03*
D39*
X67256374Y-100000691D03*
D21*
X69796373Y-94920685D03*
X71066374Y-97460690D03*
D38*
X72336374Y-100000691D03*
D40*
X60171376Y-97460688D03*
D41*
X73098370Y-94920692D03*
%TD*%
D38*
%TO.C,S13*%
X122183859Y-130005687D03*
D21*
X123453863Y-127465687D03*
X124723859Y-124925686D03*
D39*
X127263859Y-130005687D03*
D21*
X129803858Y-124925681D03*
X131073859Y-127465686D03*
D38*
X132343859Y-130005687D03*
D40*
X120178861Y-127465684D03*
D41*
X133105855Y-124925688D03*
%TD*%
D38*
%TO.C,S9*%
X102181371Y-135005687D03*
D21*
X103451375Y-132465687D03*
X104721371Y-129925686D03*
D39*
X107261371Y-135005687D03*
D21*
X109801370Y-129925681D03*
X111071371Y-132465686D03*
D38*
X112341371Y-135005687D03*
D40*
X100176373Y-132465684D03*
D41*
X113103367Y-129925688D03*
%TD*%
D38*
%TO.C,S28*%
X178694342Y-177931965D03*
D21*
X180578468Y-175807212D03*
X182462594Y-173682463D03*
D39*
X183601246Y-179246765D03*
D21*
X187369497Y-174997261D03*
X187938826Y-177779413D03*
D38*
X188508150Y-180561565D03*
D42*
X177415064Y-174959578D03*
D43*
X190558985Y-175851881D03*
%TD*%
D38*
%TO.C,S18*%
X142186373Y-112503196D03*
D21*
X143456377Y-109963196D03*
X144726373Y-107423195D03*
D39*
X147266373Y-112503196D03*
D21*
X149806372Y-107423190D03*
X151076373Y-109963195D03*
D38*
X152346373Y-112503196D03*
D40*
X140181375Y-109963193D03*
D41*
X153108369Y-107423197D03*
%TD*%
D38*
%TO.C,S23*%
X162188870Y-95000698D03*
D21*
X163458874Y-92460698D03*
X164728870Y-89920697D03*
D39*
X167268870Y-95000698D03*
D21*
X169808869Y-89920692D03*
X171078870Y-92460697D03*
D38*
X172348870Y-95000698D03*
D40*
X160183872Y-92460695D03*
D41*
X173110866Y-89920699D03*
%TD*%
D38*
%TO.C,S8*%
X82178858Y-79998188D03*
D21*
X83448862Y-77458188D03*
X84718858Y-74918187D03*
D39*
X87258858Y-79998188D03*
D21*
X89798857Y-74918182D03*
X91068858Y-77458187D03*
D38*
X92338858Y-79998188D03*
D40*
X80173860Y-77458185D03*
D41*
X93100854Y-74918189D03*
%TD*%
D38*
%TO.C,S24*%
X162188868Y-74998191D03*
D21*
X163458872Y-72458191D03*
X164728868Y-69918190D03*
D39*
X167268868Y-74998191D03*
D21*
X169808867Y-69918185D03*
X171078868Y-72458190D03*
D38*
X172348868Y-74998191D03*
D40*
X160183870Y-72458188D03*
D41*
X173110864Y-69918192D03*
%TD*%
D38*
%TO.C,S29*%
X205912712Y-180623308D03*
D21*
X203787959Y-178739182D03*
X201663210Y-176855056D03*
D39*
X207227512Y-175716404D03*
D21*
X202978008Y-171948153D03*
X205760160Y-171378824D03*
D38*
X208542312Y-170809500D03*
D46*
X202940325Y-181902586D03*
D47*
X203832628Y-168758665D03*
%TD*%
D38*
%TO.C,S6*%
X82178857Y-120003188D03*
D21*
X83448861Y-117463188D03*
X84718857Y-114923187D03*
D39*
X87258857Y-120003188D03*
D21*
X89798856Y-114923182D03*
X91068857Y-117463187D03*
D38*
X92338857Y-120003188D03*
D40*
X80173859Y-117463185D03*
D41*
X93100853Y-114923189D03*
%TD*%
D38*
%TO.C,S22*%
X162188859Y-115003190D03*
D21*
X163458863Y-112463190D03*
X164728859Y-109923189D03*
D39*
X167268859Y-115003190D03*
D21*
X169808858Y-109923184D03*
X171078859Y-112463189D03*
D38*
X172348859Y-115003190D03*
D40*
X160183861Y-112463187D03*
D41*
X173110855Y-109923191D03*
%TD*%
D38*
%TO.C,S15*%
X122183871Y-90000693D03*
D21*
X123453875Y-87460693D03*
X124723871Y-84920692D03*
D39*
X127263871Y-90000693D03*
D21*
X129803870Y-84920687D03*
X131073871Y-87460692D03*
D38*
X132343871Y-90000693D03*
D40*
X120178873Y-87460690D03*
D41*
X133105867Y-84920694D03*
%TD*%
D38*
%TO.C,S10*%
X102181353Y-115003196D03*
D21*
X103451357Y-112463196D03*
X104721353Y-109923195D03*
D39*
X107261353Y-115003196D03*
D21*
X109801352Y-109923190D03*
X111071353Y-112463195D03*
D38*
X112341353Y-115003196D03*
D40*
X100176355Y-112463193D03*
D41*
X113103349Y-109923197D03*
%TD*%
D38*
%TO.C,S2*%
X62176364Y-120003191D03*
D21*
X63446368Y-117463191D03*
X64716364Y-114923190D03*
D39*
X67256364Y-120003191D03*
D21*
X69796363Y-114923185D03*
X71066364Y-117463190D03*
D38*
X72336364Y-120003191D03*
D40*
X60171366Y-117463188D03*
D41*
X73098360Y-114923192D03*
%TD*%
D38*
%TO.C,S26*%
X163138795Y-155404902D03*
D21*
X164830570Y-153124023D03*
X166522339Y-150843143D03*
D39*
X168141619Y-156287033D03*
D21*
X171525163Y-151725270D03*
X172334803Y-154447220D03*
D38*
X173144443Y-157169164D03*
D48*
X161605322Y-152555324D03*
D49*
X174776998Y-152298662D03*
%TD*%
M02*
