%TF.GenerationSoftware,KiCad,Pcbnew,9.0.4*%
%TF.CreationDate,2025-11-27T19:30:41+01:00*%
%TF.ProjectId,lag_large,6c61675f-6c61-4726-9765-2e6b69636164,v1.0.0*%
%TF.SameCoordinates,Original*%
%TF.FileFunction,Paste,Top*%
%TF.FilePolarity,Positive*%
%FSLAX46Y46*%
G04 Gerber Fmt 4.6, Leading zero omitted, Abs format (unit mm)*
G04 Created by KiCad (PCBNEW 9.0.4) date 2025-11-27 19:30:41*
%MOMM*%
%LPD*%
G01*
G04 APERTURE LIST*
G04 Aperture macros list*
%AMRotRect*
0 Rectangle, with rotation*
0 The origin of the aperture is its center*
0 $1 length*
0 $2 width*
0 $3 Rotation angle, in degrees counterclockwise*
0 Add horizontal line*
21,1,$1,$2,0,0,$3*%
%AMOutline5P*
0 Free polygon, 5 corners , with rotation*
0 The origin of the aperture is its center*
0 number of corners: always 5*
0 $1 to $10 corner X, Y*
0 $11 Rotation angle, in degrees counterclockwise*
0 create outline with 5 corners*
4,1,5,$1,$2,$3,$4,$5,$6,$7,$8,$9,$10,$1,$2,$11*%
%AMOutline6P*
0 Free polygon, 6 corners , with rotation*
0 The origin of the aperture is its center*
0 number of corners: always 6*
0 $1 to $12 corner X, Y*
0 $13 Rotation angle, in degrees counterclockwise*
0 create outline with 6 corners*
4,1,6,$1,$2,$3,$4,$5,$6,$7,$8,$9,$10,$11,$12,$1,$2,$13*%
%AMOutline7P*
0 Free polygon, 7 corners , with rotation*
0 The origin of the aperture is its center*
0 number of corners: always 7*
0 $1 to $14 corner X, Y*
0 $15 Rotation angle, in degrees counterclockwise*
0 create outline with 7 corners*
4,1,7,$1,$2,$3,$4,$5,$6,$7,$8,$9,$10,$11,$12,$13,$14,$1,$2,$15*%
%AMOutline8P*
0 Free polygon, 8 corners , with rotation*
0 The origin of the aperture is its center*
0 number of corners: always 8*
0 $1 to $16 corner X, Y*
0 $17 Rotation angle, in degrees counterclockwise*
0 create outline with 8 corners*
4,1,8,$1,$2,$3,$4,$5,$6,$7,$8,$9,$10,$11,$12,$13,$14,$15,$16,$1,$2,$17*%
%AMFreePoly0*
4,1,6,0.250000,0.000000,-0.250000,-0.625000,-0.500000,-0.625000,-0.500000,0.625000,-0.250000,0.625000,0.250000,0.000000,0.250000,0.000000,$1*%
%AMFreePoly1*
4,1,6,0.500000,-0.625000,-0.650000,-0.625000,-0.150000,0.000000,-0.650000,0.625000,0.500000,0.625000,0.500000,-0.625000,0.500000,-0.625000,$1*%
G04 Aperture macros list end*
%ADD10C,0.300000*%
%ADD11R,0.900000X1.200000*%
%ADD12RotRect,0.900000X1.200000X350.000000*%
%ADD13RotRect,0.900000X1.200000X355.000000*%
%ADD14RotRect,0.900000X1.200000X345.000000*%
%ADD15FreePoly0,180.000000*%
%ADD16FreePoly0,0.000000*%
%ADD17FreePoly1,180.000000*%
%ADD18FreePoly1,0.000000*%
%ADD19R,1.000000X0.800000*%
%ADD20R,0.700000X1.500000*%
%ADD21RotRect,0.900000X1.200000X75.000000*%
%ADD22R,2.550000X2.500000*%
%ADD23Outline5P,-1.275000X1.250000X1.275000X1.250000X1.275000X-0.750000X0.775000X-1.250000X-1.275000X-1.250000X0.000000*%
%ADD24RotRect,2.550000X2.500000X345.000000*%
%ADD25Outline5P,-1.275000X1.250000X1.275000X1.250000X1.275000X-0.750000X0.775000X-1.250000X-1.275000X-1.250000X345.000000*%
%ADD26RotRect,2.550000X2.500000X355.000000*%
%ADD27Outline5P,-1.275000X1.250000X1.275000X1.250000X1.275000X-0.750000X0.775000X-1.250000X-1.275000X-1.250000X355.000000*%
%ADD28RotRect,2.550000X2.500000X75.000000*%
%ADD29Outline5P,-1.275000X1.250000X1.275000X1.250000X1.275000X-0.750000X0.775000X-1.250000X-1.275000X-1.250000X75.000000*%
%ADD30RotRect,2.550000X2.500000X350.000000*%
%ADD31Outline5P,-1.275000X1.250000X1.275000X1.250000X1.275000X-0.750000X0.775000X-1.250000X-1.275000X-1.250000X350.000000*%
G04 APERTURE END LIST*
D10*
G36*
X206029154Y-150994577D02*
G01*
X206127144Y-151080409D01*
X206207619Y-151176425D01*
X206251023Y-151246979D01*
X206283629Y-151321382D01*
X206305791Y-151400296D01*
X206315666Y-151481438D01*
X206311974Y-151567780D01*
X206293659Y-151660662D01*
X206262019Y-151750122D01*
X206211825Y-151847330D01*
X206139945Y-151953680D01*
X206034611Y-152077683D01*
X205928905Y-152173322D01*
X205822324Y-152244292D01*
X205735179Y-152285310D01*
X205648726Y-152311731D01*
X205562110Y-152324469D01*
X205474390Y-152323865D01*
X205388442Y-152309949D01*
X205301609Y-152281841D01*
X205212976Y-152238359D01*
X205121747Y-152177745D01*
X204781317Y-151921212D01*
X204816139Y-151875002D01*
X205163174Y-151875002D01*
X205280576Y-151963471D01*
X205345677Y-152005478D01*
X205406540Y-152031607D01*
X205464309Y-152044122D01*
X205552436Y-152043183D01*
X205635784Y-152020807D01*
X205714014Y-151980668D01*
X205788006Y-151925184D01*
X205854991Y-151860002D01*
X205913114Y-151790664D01*
X205971796Y-151700096D01*
X206007867Y-151616986D01*
X206024853Y-151539591D01*
X206024914Y-151466061D01*
X206008956Y-151393398D01*
X205977960Y-151326477D01*
X205930848Y-151263946D01*
X205865277Y-151205048D01*
X205739463Y-151110241D01*
X205163174Y-151875002D01*
X204816139Y-151875002D01*
X205678629Y-150730438D01*
X206029154Y-150994577D01*
G37*
G36*
X206912541Y-151693172D02*
G01*
X206992478Y-151712953D01*
X207075380Y-151749904D01*
X207162475Y-151806507D01*
X207240843Y-151874587D01*
X207299191Y-151944074D01*
X207340237Y-152015464D01*
X207368063Y-152092961D01*
X207382053Y-152172844D01*
X207382317Y-152256243D01*
X207370530Y-152339461D01*
X207347664Y-152425210D01*
X207312873Y-152514134D01*
X207244864Y-152643225D01*
X207154759Y-152776313D01*
X207051713Y-152899548D01*
X206946374Y-153000495D01*
X206870485Y-153058452D01*
X206794342Y-153104094D01*
X206717559Y-153138406D01*
X206637356Y-153161105D01*
X206556710Y-153169678D01*
X206474508Y-153164324D01*
X206394606Y-153144508D01*
X206311745Y-153107549D01*
X206224703Y-153050971D01*
X206146276Y-152982857D01*
X206087887Y-152913376D01*
X206046813Y-152842032D01*
X206019045Y-152764529D01*
X206005054Y-152684643D01*
X206004984Y-152666551D01*
X206292126Y-152666551D01*
X206306545Y-152725404D01*
X206338706Y-152779203D01*
X206391554Y-152829553D01*
X206454520Y-152866472D01*
X206515073Y-152882537D01*
X206575574Y-152880144D01*
X206635426Y-152862698D01*
X206696463Y-152831981D01*
X206759538Y-152786076D01*
X206846015Y-152703823D01*
X206928366Y-152605714D01*
X207001022Y-152498045D01*
X207055868Y-152392833D01*
X207082233Y-152320112D01*
X207094759Y-152253226D01*
X207094978Y-152190872D01*
X207080602Y-152132055D01*
X207048469Y-152078275D01*
X206995624Y-152027925D01*
X206932657Y-151991002D01*
X206872078Y-151974916D01*
X206811530Y-151977278D01*
X206751652Y-151994677D01*
X206690810Y-152025154D01*
X206628173Y-152070542D01*
X206542211Y-152152302D01*
X206458757Y-152251838D01*
X206387127Y-152358030D01*
X206331843Y-152463785D01*
X206305103Y-152537070D01*
X206292400Y-152604209D01*
X206292126Y-152666551D01*
X206004984Y-152666551D01*
X206004733Y-152601253D01*
X206016552Y-152517986D01*
X206039438Y-152432212D01*
X206074232Y-152343288D01*
X206142233Y-152214206D01*
X206232291Y-152081183D01*
X206335386Y-151957884D01*
X206440731Y-151856928D01*
X206516621Y-151798974D01*
X206592745Y-151753358D01*
X206669491Y-151719090D01*
X206749776Y-151696378D01*
X206830423Y-151687810D01*
X206912541Y-151693172D01*
G37*
G36*
X207738766Y-152282863D02*
G01*
X207983592Y-152467352D01*
X207798344Y-153603048D01*
X208411288Y-152789644D01*
X208624295Y-152950156D01*
X207726982Y-154140930D01*
X207490495Y-153962724D01*
X207671208Y-152815697D01*
X207054460Y-153634149D01*
X206841453Y-153473637D01*
X207738766Y-152282863D01*
G37*
G36*
X209091636Y-153302323D02*
G01*
X209349921Y-153496955D01*
X208954124Y-153913987D01*
X208799856Y-153797738D01*
X209091636Y-153302323D01*
G37*
G36*
X209248750Y-155287665D02*
G01*
X209991890Y-154301485D01*
X209659799Y-154051237D01*
X209813972Y-153846642D01*
X210706229Y-154519006D01*
X210552056Y-154723601D01*
X210219965Y-154473352D01*
X209476825Y-155459532D01*
X209248750Y-155287665D01*
G37*
G36*
X212380584Y-155780723D02*
G01*
X212476946Y-155864963D01*
X212544071Y-155947702D01*
X212586892Y-156029873D01*
X212608643Y-156113022D01*
X212611789Y-156200181D01*
X212596479Y-156286504D01*
X212561710Y-156373764D01*
X212504990Y-156463489D01*
X212443118Y-156534207D01*
X212376858Y-156589235D01*
X212305730Y-156630209D01*
X212228760Y-156657343D01*
X212148889Y-156668657D01*
X212064585Y-156664100D01*
X211982309Y-156643777D01*
X211896008Y-156605190D01*
X211804296Y-156545485D01*
X211547693Y-156352120D01*
X211226669Y-156778134D01*
X211008615Y-156613818D01*
X211353652Y-156155938D01*
X211695527Y-156155938D01*
X211930332Y-156332876D01*
X212002621Y-156376542D01*
X212068155Y-156396347D01*
X212129692Y-156396288D01*
X212189530Y-156379404D01*
X212239687Y-156349575D01*
X212281939Y-156305959D01*
X212315324Y-156248716D01*
X212330905Y-156190872D01*
X212330001Y-156130469D01*
X212312191Y-156072934D01*
X212274488Y-156016218D01*
X212212165Y-155958871D01*
X211977360Y-155781933D01*
X211695527Y-156155938D01*
X211353652Y-156155938D01*
X211905928Y-155423044D01*
X212380584Y-155780723D01*
G37*
G36*
X213488628Y-156615695D02*
G01*
X213444183Y-156807481D01*
X213381296Y-157025455D01*
X213297470Y-157272373D01*
X213152463Y-157647388D01*
X212963638Y-158087034D01*
X212732198Y-157912632D01*
X212799228Y-157766000D01*
X212863851Y-157622714D01*
X212471412Y-157326991D01*
X212351490Y-157428605D01*
X212229014Y-157533455D01*
X211997574Y-157359053D01*
X212258921Y-157145616D01*
X212694904Y-157145616D01*
X212976670Y-157357942D01*
X213091666Y-157062125D01*
X213183324Y-156790582D01*
X212947418Y-156953427D01*
X212694904Y-157145616D01*
X212258921Y-157145616D01*
X212368179Y-157056387D01*
X212688660Y-156813602D01*
X212902946Y-156664985D01*
X213095140Y-156544452D01*
X213267210Y-156448844D01*
X213488628Y-156615695D01*
G37*
G36*
X213974477Y-156981807D02*
G01*
X214219303Y-157166297D01*
X214034054Y-158301993D01*
X214646998Y-157488589D01*
X214860005Y-157649101D01*
X213962692Y-158839875D01*
X213726205Y-158661669D01*
X213906918Y-157514642D01*
X213290170Y-158333094D01*
X213077164Y-158172582D01*
X213974477Y-156981807D01*
G37*
G36*
X214934901Y-159572487D02*
G01*
X214183526Y-159006285D01*
X214335163Y-158805055D01*
X214596813Y-159002223D01*
X215190851Y-158213908D01*
X214937540Y-158023024D01*
X215089177Y-157821795D01*
X215823801Y-158375374D01*
X215672164Y-158576603D01*
X215418926Y-158385775D01*
X214824888Y-159174090D01*
X215086538Y-159371257D01*
X214934901Y-159572487D01*
G37*
G36*
X215628594Y-160137312D02*
G01*
X215536256Y-160056663D01*
X215466065Y-159972116D01*
X215415386Y-159883083D01*
X215382606Y-159788455D01*
X215367227Y-159686675D01*
X215369522Y-159585234D01*
X215389244Y-159479968D01*
X215427894Y-159369426D01*
X215487812Y-159252213D01*
X215572087Y-159127023D01*
X215677995Y-159001345D01*
X215782242Y-158904791D01*
X215885355Y-158833360D01*
X215997886Y-158779997D01*
X216107322Y-158751462D01*
X216215667Y-158745669D01*
X216296086Y-158756131D01*
X216376015Y-158779880D01*
X216456347Y-158817795D01*
X216537838Y-158871350D01*
X216631228Y-158954764D01*
X216698052Y-159042082D01*
X216741893Y-159134296D01*
X216766175Y-159233947D01*
X216771652Y-159341739D01*
X216756981Y-159459900D01*
X216478156Y-159428584D01*
X216485137Y-159331975D01*
X216473922Y-159243963D01*
X216454121Y-159190144D01*
X216421094Y-159141468D01*
X216373084Y-159096986D01*
X216315022Y-159063232D01*
X216253102Y-159046013D01*
X216185349Y-159044863D01*
X216109346Y-159061326D01*
X216039643Y-159091607D01*
X215967947Y-159139267D01*
X215893363Y-159207373D01*
X215815272Y-159299840D01*
X215750850Y-159396589D01*
X215707928Y-159484860D01*
X215683241Y-159566145D01*
X215674416Y-159641998D01*
X215681369Y-159718520D01*
X215704563Y-159785696D01*
X215744148Y-159845739D01*
X215802168Y-159899972D01*
X215885155Y-159951616D01*
X215967449Y-159982431D01*
X216053640Y-159998460D01*
X216145053Y-160003186D01*
X216146067Y-160298460D01*
X216047492Y-160298843D01*
X215956642Y-160288219D01*
X215872482Y-160267193D01*
X215791519Y-160235647D01*
X215710366Y-160192675D01*
X215628594Y-160137312D01*
G37*
G36*
X123396059Y-157053869D02*
G01*
X123385139Y-156790574D01*
X123381313Y-156496354D01*
X123384976Y-156196168D01*
X123396059Y-155890479D01*
X123591331Y-155890479D01*
X123627051Y-155997549D01*
X123686186Y-155942039D01*
X123745662Y-155901012D01*
X123808898Y-155873938D01*
X123870592Y-155865291D01*
X123931243Y-155874571D01*
X123978761Y-155901012D01*
X124016845Y-155940386D01*
X124044890Y-155987107D01*
X124096808Y-155942114D01*
X124158280Y-155902019D01*
X124224522Y-155874160D01*
X124288522Y-155865291D01*
X124351270Y-155873096D01*
X124401750Y-155895160D01*
X124442853Y-155931420D01*
X124472936Y-155978602D01*
X124494119Y-156040628D01*
X124504860Y-156121471D01*
X124513455Y-156425303D01*
X124511430Y-156736005D01*
X124498540Y-157053869D01*
X124233934Y-157053869D01*
X124248588Y-156630718D01*
X124250153Y-156434613D01*
X124246482Y-156253729D01*
X124241429Y-156187164D01*
X124232835Y-156148766D01*
X124214335Y-156123967D01*
X124179345Y-156115152D01*
X124152798Y-156119874D01*
X124124757Y-156135119D01*
X124078504Y-156178166D01*
X124074291Y-156892210D01*
X123818110Y-156892210D01*
X123813897Y-156253729D01*
X123809534Y-156187274D01*
X123799151Y-156148766D01*
X123778833Y-156123624D01*
X123746761Y-156115152D01*
X123722104Y-156120207D01*
X123694188Y-156137225D01*
X123645919Y-156182379D01*
X123641180Y-156394789D01*
X123643813Y-156608736D01*
X123660665Y-157053869D01*
X123396059Y-157053869D01*
G37*
G36*
X124758293Y-156915291D02*
G01*
X124928377Y-156711593D01*
X124999796Y-156757112D01*
X125084723Y-156795582D01*
X125174060Y-156821598D01*
X125258013Y-156831302D01*
X125339312Y-156825714D01*
X125397690Y-156807122D01*
X125428872Y-156786058D01*
X125445734Y-156762298D01*
X125451271Y-156734674D01*
X125440350Y-156697177D01*
X125404010Y-156663233D01*
X125352837Y-156636095D01*
X125283201Y-156608644D01*
X125126763Y-156551949D01*
X125045892Y-156517152D01*
X124970326Y-156476387D01*
X124903184Y-156425999D01*
X124849609Y-156364005D01*
X124823898Y-156316472D01*
X124807948Y-156261393D01*
X124802348Y-156197034D01*
X124809820Y-156129538D01*
X124831479Y-156070723D01*
X124867469Y-156018615D01*
X124914372Y-155974362D01*
X124971277Y-155936885D01*
X125039660Y-155906232D01*
X125150025Y-155877349D01*
X125272760Y-155867398D01*
X125385887Y-155876414D01*
X125502653Y-155904126D01*
X125613720Y-155951084D01*
X125713771Y-156018523D01*
X125554127Y-156211780D01*
X125487235Y-156171890D01*
X125420771Y-156146659D01*
X125352365Y-156132449D01*
X125285308Y-156127791D01*
X125219180Y-156132548D01*
X125156164Y-156146659D01*
X125119566Y-156163899D01*
X125099606Y-156185973D01*
X125092142Y-156213887D01*
X125102385Y-156245914D01*
X125138304Y-156278001D01*
X125188764Y-156304616D01*
X125260120Y-156333596D01*
X125419763Y-156394504D01*
X125501623Y-156431578D01*
X125578307Y-156475288D01*
X125646266Y-156528296D01*
X125699024Y-156590876D01*
X125724021Y-156638318D01*
X125738916Y-156692686D01*
X125743171Y-156755648D01*
X125734186Y-156830439D01*
X125710395Y-156894434D01*
X125671922Y-156949928D01*
X125617142Y-156998273D01*
X125554148Y-157034033D01*
X125476989Y-157061287D01*
X125382878Y-157078984D01*
X125268546Y-157085376D01*
X125175530Y-157080076D01*
X125082596Y-157064092D01*
X124989194Y-157037107D01*
X124858966Y-156980768D01*
X124758293Y-156915291D01*
G37*
G36*
X126614019Y-155831677D02*
G01*
X126561743Y-155825070D01*
X126514269Y-155805462D01*
X126470130Y-155771868D01*
X126435564Y-155728744D01*
X126415175Y-155680663D01*
X126408214Y-155625872D01*
X126415177Y-155571085D01*
X126435567Y-155523035D01*
X126470130Y-155479968D01*
X126514276Y-155446318D01*
X126561749Y-155426683D01*
X126614019Y-155420067D01*
X126668942Y-155426838D01*
X126717000Y-155446614D01*
X126759924Y-155479968D01*
X126793223Y-155522885D01*
X126812970Y-155570943D01*
X126819733Y-155625872D01*
X126812972Y-155680804D01*
X126793226Y-155728895D01*
X126759924Y-155771868D01*
X126717007Y-155805167D01*
X126668948Y-155824915D01*
X126614019Y-155831677D01*
G37*
G36*
X126063740Y-157473905D02*
G01*
X126063740Y-157207192D01*
X126437615Y-157207192D01*
X126512904Y-157198853D01*
X126565603Y-157176743D01*
X126601809Y-157142701D01*
X126624508Y-157094977D01*
X126632887Y-157028681D01*
X126632887Y-156213887D01*
X126175115Y-156213887D01*
X126175115Y-155963935D01*
X126907935Y-155963935D01*
X126907935Y-157028681D01*
X126899926Y-157167633D01*
X126878534Y-157273321D01*
X126852091Y-157334854D01*
X126813265Y-157384306D01*
X126760931Y-157423438D01*
X126699756Y-157449288D01*
X126613979Y-157467111D01*
X126496416Y-157473905D01*
X126063740Y-157473905D01*
G37*
G36*
X127974147Y-157053869D02*
G01*
X127890329Y-157046935D01*
X127823958Y-157027872D01*
X127771456Y-156998273D01*
X127726988Y-156957118D01*
X127691738Y-156906830D01*
X127665393Y-156845957D01*
X127642201Y-156745051D01*
X127633886Y-156623390D01*
X127633886Y-156155085D01*
X127339878Y-156155085D01*
X127339878Y-155898905D01*
X127633886Y-155898905D01*
X127633886Y-155627979D01*
X127917360Y-155627979D01*
X127917360Y-155898905D01*
X128322742Y-155898905D01*
X128322742Y-156155085D01*
X127917360Y-156155085D01*
X127917360Y-156610751D01*
X127926039Y-156683792D01*
X127949875Y-156738887D01*
X127975802Y-156765392D01*
X128015031Y-156782677D01*
X128072790Y-156789262D01*
X128316422Y-156789262D01*
X128316422Y-157053869D01*
X127974147Y-157053869D01*
G37*
G36*
X128567748Y-155898905D02*
G01*
X128826035Y-155898905D01*
X128838976Y-156228976D01*
X128861260Y-156506200D01*
X128891156Y-156736780D01*
X129046495Y-156262155D01*
X129260726Y-156262155D01*
X129416156Y-156736780D01*
X129446044Y-156506201D01*
X129468299Y-156228978D01*
X129481186Y-155898905D01*
X129739564Y-155898905D01*
X129719403Y-156269561D01*
X129683877Y-156570909D01*
X129632240Y-156848037D01*
X129577815Y-157053869D01*
X129304782Y-157053869D01*
X129153656Y-156566696D01*
X129002440Y-157053869D01*
X128729407Y-157053869D01*
X128674982Y-156848037D01*
X128623344Y-156570909D01*
X128587840Y-156269562D01*
X128567748Y-155898905D01*
G37*
G36*
X131262815Y-155726714D02*
G01*
X131371320Y-155650397D01*
X131493717Y-155588045D01*
X131580646Y-155558064D01*
X131674100Y-155539732D01*
X131775176Y-155533457D01*
X131882003Y-155541269D01*
X131972572Y-155563317D01*
X132049632Y-155598266D01*
X132115345Y-155645839D01*
X132170180Y-155706101D01*
X132209114Y-155774503D01*
X132233035Y-155852670D01*
X132241374Y-155942960D01*
X132236201Y-156026051D01*
X132221286Y-156100571D01*
X132197228Y-156167725D01*
X132147327Y-156261926D01*
X132087043Y-156345137D01*
X131953687Y-156495255D01*
X131663893Y-156801901D01*
X132281308Y-156801901D01*
X132281308Y-157053869D01*
X131296338Y-157053869D01*
X131296338Y-156801901D01*
X131611411Y-156482707D01*
X131767849Y-156323063D01*
X131843068Y-156236596D01*
X131903312Y-156149865D01*
X131934299Y-156088582D01*
X131952096Y-156029040D01*
X131957900Y-155970255D01*
X131951148Y-155915455D01*
X131931906Y-155870387D01*
X131900106Y-155832776D01*
X131859039Y-155804582D01*
X131811037Y-155787339D01*
X131754202Y-155781302D01*
X131668654Y-155792119D01*
X131576698Y-155826457D01*
X131489757Y-155875008D01*
X131418154Y-155926199D01*
X131262815Y-155726714D01*
G37*
G36*
X133165480Y-155536405D02*
G01*
X133252375Y-155556486D01*
X133325355Y-155588045D01*
X133391192Y-155632504D01*
X133446559Y-155686834D01*
X133492325Y-155751901D01*
X133543608Y-155863402D01*
X133579428Y-155998648D01*
X133598879Y-156143856D01*
X133605715Y-156308409D01*
X133598917Y-156471138D01*
X133579428Y-156617071D01*
X133557321Y-156710767D01*
X133528123Y-156792943D01*
X133492325Y-156864916D01*
X133446564Y-156929926D01*
X133391198Y-156984227D01*
X133325355Y-157028681D01*
X133252375Y-157060240D01*
X133165480Y-157080321D01*
X133061847Y-157087482D01*
X132958155Y-157080340D01*
X132870833Y-157060274D01*
X132797149Y-157028681D01*
X132730532Y-156984245D01*
X132674118Y-156929934D01*
X132627064Y-156864916D01*
X132590005Y-156792843D01*
X132582515Y-156772501D01*
X132897991Y-156772501D01*
X132940914Y-156797164D01*
X132994614Y-156812949D01*
X133061847Y-156818663D01*
X133138581Y-156810160D01*
X133196125Y-156786974D01*
X133239168Y-156750427D01*
X133271938Y-156702053D01*
X133297425Y-156641338D01*
X133314822Y-156565688D01*
X133327989Y-156445815D01*
X133332682Y-156306302D01*
X133330575Y-156164519D01*
X133320134Y-156043802D01*
X132897991Y-156772501D01*
X132582515Y-156772501D01*
X132559747Y-156710663D01*
X132536756Y-156617071D01*
X132516516Y-156471103D01*
X132509461Y-156308409D01*
X132509552Y-156306302D01*
X132782494Y-156306302D01*
X132785609Y-156454313D01*
X132799347Y-156581350D01*
X133225612Y-155844225D01*
X133182690Y-155819559D01*
X133129018Y-155803775D01*
X133061847Y-155798063D01*
X132984911Y-155806410D01*
X132926520Y-155829253D01*
X132882237Y-155865291D01*
X132848114Y-155913089D01*
X132821282Y-155973147D01*
X132802461Y-156048015D01*
X132787749Y-156166979D01*
X132782494Y-156306302D01*
X132509552Y-156306302D01*
X132516556Y-156143892D01*
X132536756Y-155998648D01*
X132559718Y-155905735D01*
X132589968Y-155823903D01*
X132627064Y-155751901D01*
X132674124Y-155686826D01*
X132730538Y-155632487D01*
X132797149Y-155588045D01*
X132870833Y-155556452D01*
X132958155Y-155536386D01*
X133061847Y-155529244D01*
X133165480Y-155536405D01*
G37*
G36*
X133865467Y-155726714D02*
G01*
X133973972Y-155650397D01*
X134096368Y-155588045D01*
X134183297Y-155558064D01*
X134276752Y-155539732D01*
X134377828Y-155533457D01*
X134484655Y-155541269D01*
X134575224Y-155563317D01*
X134652284Y-155598266D01*
X134717997Y-155645839D01*
X134772832Y-155706101D01*
X134811766Y-155774503D01*
X134835687Y-155852670D01*
X134844026Y-155942960D01*
X134838852Y-156026051D01*
X134823938Y-156100571D01*
X134799879Y-156167725D01*
X134749978Y-156261926D01*
X134689695Y-156345137D01*
X134556339Y-156495255D01*
X134266545Y-156801901D01*
X134883960Y-156801901D01*
X134883960Y-157053869D01*
X133898990Y-157053869D01*
X133898990Y-156801901D01*
X134214063Y-156482707D01*
X134370500Y-156323063D01*
X134445720Y-156236596D01*
X134505964Y-156149865D01*
X134536950Y-156088582D01*
X134554748Y-156029040D01*
X134560552Y-155970255D01*
X134553800Y-155915455D01*
X134534558Y-155870387D01*
X134502758Y-155832776D01*
X134461691Y-155804582D01*
X134413688Y-155787339D01*
X134356853Y-155781302D01*
X134271305Y-155792119D01*
X134179350Y-155826457D01*
X134092409Y-155875008D01*
X134020806Y-155926199D01*
X133865467Y-155726714D01*
G37*
G36*
X136067683Y-155814825D02*
G01*
X135481775Y-155814825D01*
X135481775Y-156150872D01*
X135585639Y-156107824D01*
X135646648Y-156093520D01*
X135737955Y-156087858D01*
X135805106Y-156093912D01*
X135871289Y-156112218D01*
X135937440Y-156143545D01*
X135997104Y-156185713D01*
X136050545Y-156240455D01*
X136098091Y-156309416D01*
X136132447Y-156385503D01*
X136154308Y-156476509D01*
X136162113Y-156585563D01*
X136154870Y-156683386D01*
X136134001Y-156770294D01*
X136100198Y-156848063D01*
X136053141Y-156918271D01*
X135995366Y-156976734D01*
X135925900Y-157024468D01*
X135848641Y-157058661D01*
X135760137Y-157080000D01*
X135658179Y-157087482D01*
X135552671Y-157081265D01*
X135462021Y-157063702D01*
X135384047Y-157036008D01*
X135272646Y-156975895D01*
X135160473Y-156894225D01*
X135341091Y-156690527D01*
X135410691Y-156744243D01*
X135482782Y-156786148D01*
X135560435Y-156813506D01*
X135647646Y-156822876D01*
X135720505Y-156814886D01*
X135780067Y-156792332D01*
X135829271Y-156755740D01*
X135866328Y-156706972D01*
X135889364Y-156646491D01*
X135897598Y-156570909D01*
X135890176Y-156497583D01*
X135869532Y-156439167D01*
X135836690Y-156392398D01*
X135792294Y-156356864D01*
X135737951Y-156335025D01*
X135670727Y-156327277D01*
X135615643Y-156331108D01*
X135567779Y-156342023D01*
X135523057Y-156359375D01*
X135481775Y-156381865D01*
X135225595Y-156381865D01*
X135225595Y-155562858D01*
X136067683Y-155562858D01*
X136067683Y-155814825D01*
G37*
D11*
%TO.C,D10*%
X105611375Y-120003198D03*
X108911377Y-120003198D03*
%TD*%
D12*
%TO.C,D26*%
X165648449Y-160924563D03*
X168898315Y-161497601D03*
%TD*%
D13*
%TO.C,D25*%
X145186856Y-159297858D03*
X148474302Y-159585472D03*
%TD*%
D14*
%TO.C,D28*%
X180713378Y-183649352D03*
X183900934Y-184503452D03*
%TD*%
D11*
%TO.C,D23*%
X165618863Y-100000685D03*
X168918865Y-100000685D03*
%TD*%
%TO.C,D7*%
X85608863Y-105000689D03*
X88908865Y-105000689D03*
%TD*%
%TO.C,D16*%
X125613877Y-74998188D03*
X128913879Y-74998188D03*
%TD*%
%TO.C,D11*%
X105611370Y-100000685D03*
X108911372Y-100000685D03*
%TD*%
%TO.C,D8*%
X85608860Y-84998198D03*
X88908862Y-84998198D03*
%TD*%
%TO.C,D17*%
X145616360Y-137505686D03*
X148916362Y-137505686D03*
%TD*%
%TO.C,D12*%
X105611357Y-79998195D03*
X108911359Y-79998195D03*
%TD*%
%TO.C,D22*%
X165618860Y-120003179D03*
X168918862Y-120003179D03*
%TD*%
%TO.C,D5*%
X85608866Y-145005688D03*
X88908868Y-145005688D03*
%TD*%
%TO.C,D3*%
X65606365Y-105000694D03*
X68906367Y-105000694D03*
%TD*%
%TO.C,D24*%
X165618859Y-79998171D03*
X168918861Y-79998171D03*
%TD*%
D15*
%TO.C,MCU1*%
X193768865Y-63298202D03*
X193768866Y-65838194D03*
X193768864Y-68378203D03*
X193768868Y-70918203D03*
X193768868Y-73458203D03*
X193768865Y-75998197D03*
X193768866Y-78538198D03*
X193768867Y-81078202D03*
X193768867Y-83618201D03*
X193768867Y-86158205D03*
X193768866Y-88698204D03*
X193768869Y-91238206D03*
D16*
X182768867Y-91238205D03*
X182768869Y-88698202D03*
X182768868Y-86158210D03*
X182768870Y-83618201D03*
X182768866Y-81078201D03*
X182768866Y-78538201D03*
X182768869Y-75998207D03*
X182768868Y-73458206D03*
X182768867Y-70918202D03*
X182768867Y-68378203D03*
X182768867Y-65838199D03*
X182768868Y-63298200D03*
D17*
X193043866Y-63298201D03*
X193043865Y-65838201D03*
X193043868Y-68378201D03*
X193043866Y-70918203D03*
X193043866Y-73458200D03*
X193043868Y-75998202D03*
X193043867Y-78538204D03*
X193043867Y-81078196D03*
X193043869Y-83618202D03*
X193043867Y-86158202D03*
X193043869Y-88698198D03*
X193043868Y-91238203D03*
D18*
X183493866Y-91238202D03*
X183493868Y-88698203D03*
X183493869Y-86158203D03*
X183493866Y-83618203D03*
X183493868Y-81078201D03*
X183493868Y-78538204D03*
X183493866Y-75998202D03*
X183493867Y-73458200D03*
X183493867Y-70918208D03*
X183493865Y-68378202D03*
X183493867Y-65838202D03*
X183493865Y-63298206D03*
%TD*%
D11*
%TO.C,D2*%
X65606372Y-125003193D03*
X68906374Y-125003193D03*
%TD*%
%TO.C,D18*%
X145616369Y-117503191D03*
X148916371Y-117503191D03*
%TD*%
%TO.C,D19*%
X145616356Y-97500687D03*
X148916358Y-97500687D03*
%TD*%
D19*
%TO.C,T1*%
X170918875Y-62253193D03*
X170918873Y-60043187D03*
D20*
X165018870Y-62903192D03*
D19*
X163618872Y-62253189D03*
X163618871Y-60043189D03*
D20*
X169518873Y-62903185D03*
X166518874Y-62903190D03*
%TD*%
D11*
%TO.C,D14*%
X125613864Y-115003186D03*
X128913866Y-115003186D03*
%TD*%
D14*
%TO.C,D27*%
X185890396Y-164328419D03*
X189077952Y-165182519D03*
%TD*%
D11*
%TO.C,D4*%
X65606352Y-84998197D03*
X68906354Y-84998197D03*
%TD*%
%TO.C,D9*%
X105611360Y-140005701D03*
X108911362Y-140005701D03*
%TD*%
%TO.C,D30*%
X188618853Y-127998186D03*
X191918855Y-127998186D03*
%TD*%
%TO.C,D21*%
X165618857Y-140005692D03*
X168918859Y-140005692D03*
%TD*%
%TO.C,D15*%
X125613859Y-95000691D03*
X128913861Y-95000691D03*
%TD*%
D21*
%TO.C,D29*%
X211630102Y-178604276D03*
X212484202Y-175416720D03*
%TD*%
D11*
%TO.C,D13*%
X125613851Y-135005680D03*
X128913853Y-135005680D03*
%TD*%
%TO.C,D20*%
X145616354Y-77498173D03*
X148916356Y-77498173D03*
%TD*%
%TO.C,D6*%
X85608864Y-125003182D03*
X88908866Y-125003182D03*
%TD*%
%TO.C,D1*%
X65606372Y-145005693D03*
X68906374Y-145005693D03*
%TD*%
D22*
%TO.C,S16*%
X134348858Y-67458183D03*
D23*
X121421858Y-64918185D03*
%TD*%
D22*
%TO.C,S1*%
X74341358Y-137465693D03*
D23*
X61414358Y-134925695D03*
%TD*%
D22*
%TO.C,S14*%
X134348861Y-107463189D03*
D23*
X121421861Y-104923191D03*
%TD*%
D22*
%TO.C,S7*%
X94343859Y-97460676D03*
D23*
X81416859Y-94920678D03*
%TD*%
D22*
%TO.C,S20*%
X154351364Y-69958197D03*
D23*
X141424364Y-67418199D03*
%TD*%
D24*
%TO.C,S27*%
X196279259Y-159306116D03*
D25*
X184450136Y-153506909D03*
%TD*%
D22*
%TO.C,S17*%
X154351373Y-129965696D03*
D23*
X141424373Y-127425698D03*
%TD*%
D22*
%TO.C,S19*%
X154351354Y-89960678D03*
D23*
X141424354Y-87420680D03*
%TD*%
D22*
%TO.C,S12*%
X114346371Y-72458179D03*
D23*
X101419371Y-69918181D03*
%TD*%
D26*
%TO.C,S25*%
X154545773Y-152547849D03*
D27*
X141889341Y-148890853D03*
%TD*%
D22*
%TO.C,S21*%
X174353867Y-132465684D03*
D23*
X161426867Y-129925686D03*
%TD*%
D22*
%TO.C,S11*%
X114346363Y-92460681D03*
D23*
X101419363Y-89920683D03*
%TD*%
D22*
%TO.C,S4*%
X74341358Y-77458181D03*
D23*
X61414358Y-74918183D03*
%TD*%
D22*
%TO.C,S5*%
X94343865Y-137465671D03*
D23*
X81416865Y-134925673D03*
%TD*%
D22*
%TO.C,S3*%
X74341374Y-97460689D03*
D23*
X61414374Y-94920691D03*
%TD*%
D22*
%TO.C,S13*%
X134348859Y-127465685D03*
D23*
X121421859Y-124925687D03*
%TD*%
D22*
%TO.C,S9*%
X114346371Y-132465685D03*
D23*
X101419371Y-129925687D03*
%TD*%
D24*
%TO.C,S28*%
X191102232Y-178627049D03*
D25*
X179273109Y-172827842D03*
%TD*%
D22*
%TO.C,S18*%
X154351373Y-109963194D03*
D23*
X141424373Y-107423196D03*
%TD*%
D22*
%TO.C,S23*%
X174353870Y-92460696D03*
D23*
X161426870Y-89920698D03*
%TD*%
D22*
%TO.C,S8*%
X94343858Y-77458186D03*
D23*
X81416858Y-74918188D03*
%TD*%
D22*
%TO.C,S24*%
X174353868Y-72458189D03*
D23*
X161426868Y-69918191D03*
%TD*%
D28*
%TO.C,S29*%
X206607796Y-168215418D03*
D29*
X200808589Y-180044541D03*
%TD*%
D22*
%TO.C,S6*%
X94343857Y-117463186D03*
D23*
X81416857Y-114923188D03*
%TD*%
D22*
%TO.C,S22*%
X174353859Y-112463188D03*
D23*
X161426859Y-109923190D03*
%TD*%
D22*
%TO.C,S15*%
X134348871Y-87460691D03*
D23*
X121421871Y-84920693D03*
%TD*%
D22*
%TO.C,S10*%
X114346353Y-112463194D03*
D23*
X101419353Y-109923196D03*
%TD*%
D22*
%TO.C,S2*%
X74341364Y-117463189D03*
D23*
X61414364Y-114923191D03*
%TD*%
D30*
%TO.C,S26*%
X175560049Y-155015921D03*
D31*
X163270507Y-150269758D03*
%TD*%
M02*
